<svg width="100" height="101" viewBox="0 0 100 101" fill="none" xmlns="http://www.w3.org/2000/svg">
<path d="M97.5 44.3327C94.1667 40.9993 89.1667 40.9993 85.8333 44.3327L58.3333 71.8327V8.49935C58.3333 3.49935 55 0.166016 50 0.166016C45 0.166016 41.6667 3.49935 41.6667 8.49935V71.8327L14.1667 44.3327C10.8333 40.9993 5.83333 40.9993 2.5 44.3327C-0.833333 47.666 -0.833333 52.666 2.5 55.9993L44.1667 97.666C47.5 100.999 52.5 100.999 55.8333 97.666L97.5 55.9993C100.833 53.4993 100.833 47.666 97.5 44.3327Z" fill="url(#paint0_linear_2560_8736)"/>
<defs>
<linearGradient id="paint0_linear_2560_8736" x1="50" y1="0.166016" x2="50" y2="100.166" gradientUnits="userSpaceOnUse">
<stop stop-color="#EB2C27"/>
<stop offset="1" stop-color="#EB2C27"/>
</linearGradient>
</defs>
</svg>
