<svg width="81" height="81" viewBox="0 0 81 81" fill="none" xmlns="http://www.w3.org/2000/svg">
<g id="Check" clip-path="url(#clip0_82_553)">
<path id="Vector" d="M40.7124 0C18.3463 0 0.212402 18.1339 0.212402 40.5C0.212402 62.8661 18.3463 81 40.7124 81C63.0785 81 81.2124 62.8661 81.2124 40.5C81.2124 18.1339 63.0785 0 40.7124 0ZM59.474 29.2967L40.0745 58.9478C40.0695 58.9528 40.0593 58.9579 40.0593 58.9629C39.9581 59.1148 39.9024 59.2869 39.7758 59.4287C39.5987 59.6211 39.3708 59.7223 39.1683 59.8691C39.1177 59.9046 39.0671 59.9451 39.0114 59.9805C38.6975 60.1779 38.3735 60.3096 38.0192 60.3956C37.9027 60.426 37.7964 60.4564 37.6749 60.4766C37.3929 60.5154 37.1072 60.5188 36.8244 60.4868C36.6246 60.4741 36.4264 60.4436 36.2321 60.3956C36.0316 60.3352 35.8368 60.2572 35.6499 60.1628C35.4879 60.0868 35.3158 60.0666 35.1639 59.9704C35.0525 59.8995 34.9918 59.7881 34.8956 59.7021C34.8551 59.6666 34.8045 59.6565 34.764 59.6211L23.4695 49.1771C22.8001 48.5343 22.4095 47.6545 22.3818 46.7268C22.3541 45.799 22.6914 44.8975 23.3214 44.2158C23.9513 43.5342 24.8235 43.1269 25.7505 43.0815C26.6775 43.036 27.5854 43.3561 28.2789 43.9729L36.4548 51.5363L53.5408 25.4188C54.055 24.632 54.8607 24.0817 55.7807 23.889C56.7007 23.6963 57.6595 23.8769 58.4463 24.3911C59.2331 24.9054 59.7834 25.7111 59.9762 26.6311C60.1689 27.551 59.9883 28.5099 59.474 29.2967Z" fill="#247E2D"/>
</g>
<defs>
<clipPath id="clip0_82_553">
<rect width="81" height="81" fill="white"/>
</clipPath>
</defs>
</svg>
