<svg width="32" height="24" viewBox="0 0 32 24" fill="none" xmlns="http://www.w3.org/2000/svg">
<path d="M29.3338 0H9.33382C8.41382 0 7.68716 0.466667 7.20716 1.17333L0.000488281 11.9933L7.20716 22.8133C7.68716 23.52 8.41382 24 9.33382 24H29.3338C30.8072 24 32.0005 22.8067 32.0005 21.3333V2.66667C32.0005 1.19333 30.8072 0 29.3338 0ZM25.3338 16.78L23.4472 18.6667L18.6672 13.8867L13.8872 18.6667L12.0005 16.78L16.7805 12L12.0005 7.22L13.8872 5.33333L18.6672 10.1133L23.4472 5.33333L25.3338 7.22L20.5538 12L25.3338 16.78Z" fill="#1F2937"/>
</svg>
