<svg width="11" height="15" viewBox="0 0 11 15" fill="none" xmlns="http://www.w3.org/2000/svg">
<path d="M2.66699 11.5C2.66699 11.5 0.666992 6.16668 0.666992 3.50001C0.666992 0.833344 2.00033 0.833344 2.00033 0.833344H2.66699C2.66699 0.833344 3.33366 0.833344 3.33366 1.50001C3.33366 2.16668 2.66699 2.16668 2.66699 3.50001C2.66699 4.83334 4.66699 6.16668 4.66699 8.16668C4.66699 10.1667 2.66699 11.5 2.66699 11.5ZM6.00033 10.8333C5.33366 10.8333 3.33366 12.5 3.33366 12.5C3.13366 12.6333 3.20033 12.8333 3.33366 13.0333C3.33366 13.0333 4.00033 14.2333 5.33366 14.2333H9.33366C10.067 14.2333 10.667 13.6333 10.667 12.9V12.2333C10.667 11.5 10.067 10.9 9.33366 10.9H6.00033V10.8333Z" fill="#EB2C27"/>
</svg>
