<svg width="16" height="16" viewBox="0 0 16 16" fill="none" xmlns="http://www.w3.org/2000/svg">
<path d="M6.66655 11.2921V4.8011C6.66655 4.21198 7.14399 3.73438 7.73311 3.73438C8.32175 3.73438 8.79983 4.21198 8.79983 4.8011V7.94686L11.6957 8.77454C12.2603 8.93598 12.6269 9.53854 12.5123 10.1136L11.655 14.4011H6.75807L3.77903 11.4219C3.36239 11.0053 3.36239 10.3297 3.77903 9.91358C4.19567 9.49694 4.87055 9.49694 5.28735 9.91358L6.66655 11.2921Z" fill="#1F2937"/>
<path d="M10.6895 6.02409C10.8463 5.64649 10.9332 5.23353 10.9332 4.79961C10.9332 3.03401 9.50104 1.59961 7.73224 1.59961C5.96664 1.59961 4.5332 3.03401 4.5332 4.79961C4.5332 5.26105 4.6332 5.69849 4.80936 6.09497L5.798 5.68505C5.67368 5.41481 5.59992 5.11625 5.59992 4.79961C5.59992 3.62265 6.55512 2.66633 7.73272 2.66633C8.91144 2.66633 9.86664 3.62265 9.86664 4.79961C9.86664 5.08873 9.80824 5.36409 9.70344 5.61577L10.6895 6.02409Z" fill="#1F2937"/>
</svg>
