<svg width="173" height="103" viewBox="0 0 173 103" fill="none" xmlns="http://www.w3.org/2000/svg">
<path d="M95.4824 21.603C83.5764 21.1559 73.1933 13.7742 66.7928 9.67426C57.2329 3.5512 35.5172 -2.95412 17.9277 5.97724C-5.68615 17.9674 -0.581532 47.3966 6.03212 59.6241C19.9439 85.3466 64.7242 109.699 124.911 100.528C178.77 92.3204 184.237 18.32 154.75 9.42724C129.174 1.71442 125.526 22.7311 95.4824 21.603Z" fill="#EEF2FF"/>
<path d="M157.874 85.0471L156.03 16.437C155.869 10.4291 150.868 5.6902 144.86 5.85166L36.7411 8.75657C30.7333 8.91803 25.9944 13.9191 26.1559 19.927L27.9995 88.5371C28.161 94.545 33.1621 99.2839 39.17 99.1224L147.289 96.2169C153.297 96.0554 158.036 91.0543 157.874 85.0471Z" fill="#2A3C7C"/>
<path d="M152.336 79.6975L150.493 11.0873C150.331 5.07952 145.33 0.340593 139.322 0.502053L31.2026 3.40696C25.1947 3.56842 20.4558 8.56954 20.6173 14.5774L22.461 83.1875C22.6224 89.1954 27.6235 93.9343 33.6314 93.7728L141.751 90.8672C147.758 90.7065 152.498 85.7054 152.336 79.6975Z" fill="#2A3C7C"/>
<path d="M129.877 12.7914C129.795 9.77193 127.282 7.38936 124.262 7.47078L50.869 9.4428C47.8496 9.52422 45.467 12.0379 45.5484 15.0573C45.6298 18.0768 48.1435 20.4593 51.1629 20.3779L124.555 18.4059C127.576 18.3252 129.957 15.8115 129.877 12.7914Z" fill="#4057A9"/>
<path d="M76.7217 11.7375L76.7795 15.9251L75.9395 15.9366L75.902 13.2129L74.8177 15.9521L74.1817 15.9609L73.0163 13.2527L73.0538 15.9764L72.2139 15.988L72.1562 11.8004L73.1101 11.7873L74.4849 14.8826L75.7738 11.7505L76.7217 11.7375ZM80.6757 14.1372C80.6773 14.2572 80.6708 14.3653 80.6561 14.4615L78.2264 14.495C78.2497 14.7347 78.3363 14.9215 78.4861 15.0554C78.636 15.1894 78.8189 15.2549 79.0349 15.2519C79.3469 15.2476 79.567 15.1105 79.6953 14.8408L80.6012 14.8283C80.5096 15.1496 80.3293 15.4161 80.0602 15.6278C79.791 15.8355 79.4584 15.9421 79.0625 15.9476C78.7425 15.952 78.4536 15.886 78.1957 15.7495C77.9417 15.609 77.7409 15.4098 77.5934 15.1518C77.4498 14.8937 77.3757 14.5947 77.371 14.2547C77.3662 13.9108 77.4321 13.6078 77.5685 13.3459C77.7049 13.084 77.8981 12.8813 78.1481 12.7379C78.3982 12.5944 78.6872 12.5204 79.0152 12.5159C79.3311 12.5116 79.614 12.5757 79.8639 12.7082C80.1177 12.8407 80.3144 13.032 80.4539 13.2821C80.5973 13.5282 80.6712 13.8132 80.6757 14.1372ZM79.8024 13.9092C79.7955 13.6933 79.7151 13.5224 79.5614 13.3965C79.4075 13.2666 79.2207 13.2031 79.0007 13.2062C78.7927 13.209 78.6176 13.2755 78.4754 13.4054C78.3371 13.5314 78.2535 13.7065 78.2246 13.9309L79.8024 13.9092ZM85.3938 12.434C85.8017 12.4283 86.1314 12.5498 86.3829 12.7984C86.6383 13.0429 86.7691 13.3891 86.7752 13.837L86.8021 15.7869L85.9622 15.7984L85.9369 13.9626C85.9333 13.7026 85.8646 13.5056 85.7307 13.3714C85.5968 13.2332 85.4159 13.1657 85.1879 13.1689C84.9599 13.172 84.7789 13.2445 84.6448 13.3864C84.5147 13.5242 84.4514 13.7231 84.455 13.983L84.4803 15.8189L83.6404 15.8305L83.6151 13.9946C83.6115 13.7347 83.5428 13.5376 83.4089 13.4034C83.275 13.2652 83.0941 13.1977 82.8661 13.2009C82.6341 13.2041 82.4511 13.2766 82.317 13.4185C82.1869 13.5563 82.1237 13.7552 82.1273 14.0151L82.1526 15.851L81.3126 15.8625L81.2668 12.5389L82.1067 12.5273L82.1123 12.9292C82.2183 12.7878 82.3548 12.6759 82.5217 12.5936C82.6926 12.5112 82.88 12.4686 83.084 12.4658C83.344 12.4622 83.5767 12.515 83.7822 12.6242C83.9877 12.7294 84.1478 12.8832 84.2626 13.0856C84.368 12.8921 84.5218 12.736 84.7242 12.6172C84.9306 12.4983 85.1538 12.4373 85.3938 12.434ZM88.3999 12.9266C88.5057 12.7651 88.6519 12.6331 88.8385 12.5305C89.0291 12.4278 89.2464 12.3748 89.4904 12.3715C89.7744 12.3676 90.0313 12.434 90.2612 12.5709C90.4951 12.7076 90.6799 12.9051 90.8154 13.1633C90.955 13.4174 91.0271 13.7144 91.0317 14.0544C91.0364 14.3943 90.9726 14.6973 90.8403 14.9631C90.7119 15.2249 90.5327 15.4294 90.3027 15.5766C90.0767 15.7237 89.8217 15.7992 89.5377 15.8031C89.2897 15.8066 89.0711 15.7616 88.8818 15.6682C88.6964 15.5707 88.5467 15.4448 88.4325 15.2903L88.4391 15.7643L87.5992 15.7759L87.5379 11.3363L88.3779 11.3247L88.3999 12.9266ZM90.1738 14.0662C90.1711 13.8662 90.1267 13.6948 90.0407 13.552C89.9587 13.4051 89.8492 13.2946 89.7121 13.2205C89.5791 13.1463 89.4346 13.1103 89.2786 13.1125C89.1266 13.1146 88.9832 13.1565 88.8483 13.2384C88.7174 13.3162 88.6109 13.4297 88.529 13.5788C88.451 13.7279 88.4134 13.9025 88.4162 14.1024C88.4189 14.3024 88.4613 14.4759 88.5433 14.6227C88.6294 14.7696 88.7389 14.8821 88.872 14.9602C89.0091 15.0344 89.1536 15.0704 89.3056 15.0683C89.4616 15.0661 89.605 15.0241 89.7359 14.9423C89.8708 14.8605 89.9772 14.745 90.0551 14.5959C90.1371 14.4467 90.1766 14.2702 90.1738 14.0662ZM94.731 13.9434C94.7326 14.0633 94.7261 14.1714 94.7114 14.2677L92.2817 14.3012C92.305 14.5409 92.3916 14.7277 92.5414 14.8616C92.6913 14.9956 92.8742 15.0611 93.0902 15.0581C93.4022 15.0538 93.6223 14.9167 93.7506 14.6469L94.6565 14.6345C94.5649 14.9557 94.3846 15.2223 94.1155 15.434C93.8463 15.6417 93.5137 15.7483 93.1178 15.7538C92.7978 15.7582 92.5089 15.6922 92.251 15.5557C91.997 15.4152 91.7962 15.2159 91.6487 14.958C91.5051 14.6999 91.431 14.4009 91.4263 14.0609C91.4215 13.717 91.4874 13.414 91.6238 13.1521C91.7602 12.8902 91.9534 12.6875 92.2034 12.5441C92.4535 12.4006 92.7425 12.3266 93.0705 12.3221C93.3864 12.3177 93.6693 12.3818 93.9192 12.5144C94.173 12.6469 94.3697 12.8382 94.5092 13.0883C94.6526 13.3344 94.7265 13.6194 94.731 13.9434ZM93.8578 13.7154C93.8508 13.4995 93.7704 13.3285 93.6167 13.2027C93.4629 13.0728 93.276 13.0093 93.056 13.0124C92.848 13.0152 92.6729 13.0817 92.5307 13.2116C92.3924 13.3375 92.3088 13.5127 92.2799 13.7371L93.8578 13.7154ZM96.1692 12.8494C96.2747 12.672 96.4128 12.532 96.5834 12.4297C96.758 12.3273 96.9573 12.2745 97.1813 12.2714L97.1934 13.1533L96.9715 13.1564C96.7075 13.16 96.5084 13.2248 96.3741 13.3506C96.2438 13.4765 96.1808 13.6933 96.185 14.0013L96.2079 15.6572L95.368 15.6687L95.3221 12.3451L96.162 12.3335L96.1692 12.8494ZM98.9901 13.5186C98.9844 13.1066 99.0714 12.7374 99.2509 12.4109C99.4343 12.0803 99.6848 11.8229 100.002 11.6385C100.324 11.45 100.684 11.353 101.084 11.3475C101.552 11.3411 101.964 11.4554 102.319 11.6905C102.675 11.9256 102.925 12.2542 103.071 12.6763L102.105 12.6896C102.006 12.4909 101.868 12.3428 101.691 12.2452C101.517 12.1476 101.317 12.1004 101.089 12.1035C100.845 12.1069 100.628 12.1679 100.437 12.2865C100.251 12.4011 100.105 12.5631 99.9999 12.7726C99.8988 12.982 99.8502 13.2267 99.854 13.5067C99.8578 13.7827 99.9132 14.0259 100.02 14.2365C100.131 14.443 100.281 14.6029 100.471 14.7163C100.664 14.8256 100.883 14.8786 101.127 14.8753C101.355 14.8721 101.554 14.8194 101.725 14.717C101.899 14.6106 102.033 14.4567 102.127 14.2554L103.092 14.2421C102.958 14.672 102.717 15.0094 102.368 15.2542C102.024 15.495 101.615 15.6186 101.143 15.6251C100.743 15.6306 100.38 15.5456 100.054 15.3701C99.7312 15.1905 99.4738 14.9401 99.2813 14.6187C99.0929 14.2973 98.9958 13.9306 98.9901 13.5186ZM103.589 13.8812C103.584 13.5453 103.646 13.2464 103.775 12.9846C103.907 12.7227 104.086 12.5202 104.312 12.3771C104.542 12.2339 104.799 12.1604 105.083 12.1565C105.331 12.153 105.548 12.2001 105.733 12.2975C105.923 12.3949 106.074 12.5188 106.189 12.6693L106.182 12.1953L107.028 12.1836L107.074 15.5073L106.228 15.519L106.221 15.033C106.115 15.1905 105.967 15.3226 105.777 15.4292C105.59 15.5318 105.373 15.5848 105.125 15.5882C104.845 15.5921 104.588 15.5236 104.354 15.3828C104.124 15.242 103.939 15.0425 103.799 14.7844C103.664 14.5223 103.594 14.2212 103.589 13.8812ZM106.205 13.8572C106.202 13.6532 106.16 13.4797 106.078 13.3369C105.996 13.19 105.886 13.0795 105.749 13.0054C105.612 12.9272 105.466 12.8893 105.31 12.8914C105.154 12.8936 105.01 12.9335 104.879 13.0114C104.748 13.0892 104.642 13.2026 104.56 13.3518C104.482 13.4969 104.444 13.6694 104.447 13.8694C104.45 14.0694 104.492 14.2448 104.574 14.3957C104.66 14.5425 104.77 14.655 104.903 14.7332C105.04 14.8113 105.185 14.8493 105.337 14.8472C105.492 14.8451 105.638 14.8051 105.773 14.7272C105.908 14.6453 106.014 14.5318 106.092 14.3868C106.17 14.2377 106.208 14.0611 106.205 13.8572ZM108.695 12.6767C108.801 12.4992 108.939 12.3593 109.11 12.257C109.284 12.1545 109.483 12.1018 109.707 12.0987L109.72 12.9806L109.498 12.9837C109.234 12.9873 109.035 13.0521 108.9 13.1779C108.77 13.3037 108.707 13.5206 108.711 13.8286L108.734 15.4844L107.894 15.496L107.848 12.1723L108.688 12.1608L108.695 12.6767ZM110.081 13.7917C110.076 13.4557 110.138 13.1569 110.266 12.8951C110.399 12.6332 110.58 12.4307 110.81 12.2875C111.04 12.1443 111.297 12.0708 111.581 12.0669C111.797 12.0639 112.004 12.109 112.201 12.2023C112.398 12.2916 112.556 12.4135 112.674 12.5678L112.652 10.99L113.504 10.9782L113.565 15.4178L112.713 15.4296L112.707 14.9376C112.605 15.103 112.461 15.237 112.274 15.3396C112.088 15.4422 111.87 15.4952 111.622 15.4986C111.342 15.5025 111.085 15.434 110.851 15.2932C110.617 15.1524 110.431 14.953 110.291 14.6949C110.155 14.4327 110.085 14.1317 110.081 13.7917ZM112.697 13.7676C112.694 13.5637 112.651 13.3902 112.569 13.2473C112.487 13.1005 112.378 12.99 112.241 12.9158C112.104 12.8377 111.957 12.7997 111.801 12.8019C111.645 12.804 111.502 12.844 111.371 12.9218C111.24 12.9997 111.133 13.1131 111.051 13.2623C110.973 13.4074 110.936 13.5799 110.939 13.7799C110.941 13.9799 110.984 14.1553 111.066 14.3062C111.152 14.453 111.261 14.5655 111.394 14.6437C111.532 14.7218 111.676 14.7598 111.828 14.7577C111.984 14.7556 112.13 14.7155 112.264 14.6377C112.399 14.5558 112.506 14.4423 112.584 14.2972C112.662 14.1482 112.699 13.9716 112.697 13.7676Z" fill="white"/>
<path d="M144.879 36.1715C144.851 35.1289 143.984 34.3064 142.941 34.3347L80.1319 36.0224C79.0893 36.0507 78.2669 36.9181 78.2951 37.9606C78.3234 39.0032 79.1908 39.825 80.2334 39.7974L143.043 38.1097C144.085 38.0814 144.908 37.2141 144.879 36.1715ZM144.879 42.2455C144.851 41.203 143.984 40.3805 142.941 40.4088L80.1319 42.0965C79.0893 42.1248 78.2669 42.9921 78.2951 44.0347C78.3234 45.0773 79.1908 45.8991 80.2334 45.8715L143.043 44.1838C144.085 44.1555 144.908 43.2874 144.879 42.2455Z" fill="white"/>
<path d="M145.463 69.914L144.939 50.4111C144.878 48.1459 142.992 46.3588 140.727 46.4195L82.3459 47.9885C80.0807 48.0493 78.2936 49.935 78.3543 52.2003L78.8787 71.7032C78.9394 73.9684 80.8252 75.7555 83.0904 75.6948L141.471 74.1257C143.737 74.065 145.524 72.1793 145.463 69.914Z" fill="white"/>
<path d="M52.1959 24.7301C57.3556 24.7301 61.5385 20.5473 61.5385 15.3875C61.5385 10.2277 57.3556 6.04492 52.1959 6.04492C47.0361 6.04492 42.8533 10.2277 42.8533 15.3875C42.8533 20.5473 47.0361 24.7301 52.1959 24.7301Z" fill="white"/>
<path d="M51.9054 84.8708C63.9337 84.8708 73.6845 75.12 73.6845 63.0917C73.6845 51.0634 63.9337 41.3125 51.9054 41.3125C39.8771 41.3125 30.1262 51.0634 30.1262 63.0917C30.1262 75.12 39.8771 84.8708 51.9054 84.8708Z" fill="white"/>
<mask id="mask0_4747_3165" style="mask-type:luminance" maskUnits="userSpaceOnUse" x="30" y="41" width="44" height="44">
<path d="M51.9081 84.9587C63.9364 84.9587 73.6872 75.2078 73.6872 63.1795C73.6872 51.1513 63.9364 41.4004 51.9081 41.4004C39.8798 41.4004 30.1289 51.1513 30.1289 63.1795C30.1289 75.2078 39.8798 84.9587 51.9081 84.9587Z" fill="white"/>
</mask>
<g mask="url(#mask0_4747_3165)">
<path d="M77.0848 105.253L31.0417 106.49L40.0925 59.9407L64.9304 59.2734L77.0848 105.253Z" fill="#88A1F9"/>
</g>
<mask id="mask1_4747_3165" style="mask-type:luminance" maskUnits="userSpaceOnUse" x="30" y="41" width="44" height="44">
<path d="M51.9081 84.9587C63.9364 84.9587 73.6872 75.2078 73.6872 63.1795C73.6872 51.1513 63.9364 41.4004 51.9081 41.4004C39.8798 41.4004 30.1289 51.1513 30.1289 63.1795C30.1289 75.2078 39.8798 84.9587 51.9081 84.9587Z" fill="white"/>
</mask>
<g mask="url(#mask1_4747_3165)">
<path d="M61.1582 65.293L61.1585 65.2956" stroke="black" stroke-width="6.47" stroke-miterlimit="10"/>
</g>
<mask id="mask2_4747_3165" style="mask-type:luminance" maskUnits="userSpaceOnUse" x="30" y="41" width="44" height="44">
<path d="M51.9081 84.9587C63.9364 84.9587 73.6872 75.2078 73.6872 63.1795C73.6872 51.1513 63.9364 41.4004 51.9081 41.4004C39.8798 41.4004 30.1289 51.1513 30.1289 63.1795C30.1289 75.2078 39.8798 84.9587 51.9081 84.9587Z" fill="white"/>
</mask>
<g mask="url(#mask2_4747_3165)">
<path d="M65.6487 78.293L80.2257 77.5306C80.2257 77.5306 80.6666 59.8162 64.8918 59.3008C64.8925 59.3008 64.4468 66.4547 65.6487 78.293ZM39.504 78.8547L24.927 78.0922C24.927 78.0922 24.4861 60.3779 40.2609 59.8624C40.2602 59.8624 40.7059 67.0164 39.504 78.8547Z" fill="#88A1F9"/>
</g>
<mask id="mask3_4747_3165" style="mask-type:luminance" maskUnits="userSpaceOnUse" x="30" y="41" width="44" height="44">
<path d="M51.9081 84.9587C63.9364 84.9587 73.6872 75.2078 73.6872 63.1795C73.6872 51.1513 63.9364 41.4004 51.9081 41.4004C39.8798 41.4004 30.1289 51.1513 30.1289 63.1795C30.1289 75.2078 39.8798 84.9587 51.9081 84.9587Z" fill="white"/>
</mask>
<g mask="url(#mask3_4747_3165)">
<path d="M41.0115 72.8359L38.8083 83.553" stroke="#4057A9" stroke-width="10.25" stroke-miterlimit="10"/>
</g>
<mask id="mask4_4747_3165" style="mask-type:luminance" maskUnits="userSpaceOnUse" x="30" y="41" width="44" height="44">
<path d="M51.9081 84.9587C63.9364 84.9587 73.6872 75.2078 73.6872 63.1795C73.6872 51.1512 63.9364 41.4004 51.9081 41.4004C39.8798 41.4004 30.1289 51.1512 30.1289 63.1795C30.1289 75.2078 39.8798 84.9587 51.9081 84.9587Z" fill="white"/>
</mask>
<g mask="url(#mask4_4747_3165)">
<path d="M62.7693 72.8359L64.9725 83.553" stroke="#4057A9" stroke-width="10.25" stroke-miterlimit="10"/>
</g>
<path d="M52.5105 65.0792C54.882 64.9688 56.6905 62.9168 56.5021 60.5501L56.1012 55.5227C56.0605 55.0087 55.6189 54.6195 55.1035 54.6436L48.9611 54.9293C48.4457 54.9535 48.042 55.3819 48.0489 55.8974L48.1158 60.9406C48.1476 63.3135 50.1389 65.1889 52.5105 65.0792Z" fill="#9FB3F9"/>
<path d="M56.518 60.578C53.9484 61.1197 50.2107 60.5573 48.0862 58.5529L48.0386 56.7285L56.2309 57.571L56.518 60.578Z" fill="black"/>
<path d="M41.9825 49.71C39.0176 44.4053 40.9413 37.6868 46.2791 34.7039C51.617 31.7203 58.3472 33.6027 61.3114 38.9067C64.2764 44.2114 62.3527 50.9299 57.0155 53.9128C51.6777 56.8964 44.9467 55.0147 41.9825 49.71Z" fill="black"/>
<path fill-rule="evenodd" clip-rule="evenodd" d="M59.2243 49.8847L62.3045 49.7818C63.7866 49.7322 64.9485 48.4902 64.8989 47.0081C64.8492 45.5259 63.6072 44.364 62.1251 44.4136L59.0449 44.5165C57.5628 44.5661 56.4008 45.8081 56.4505 47.2903C56.5002 48.7724 57.7422 49.9336 59.2243 49.8847Z" fill="#9FB3F9"/>
<path fill-rule="evenodd" clip-rule="evenodd" d="M59.9482 49.0275L62.0624 48.9571C63.0801 48.9233 63.8771 48.0705 63.8433 47.0534C63.8094 46.0357 62.9566 45.2387 61.9395 45.2725L59.8254 45.3429C58.8076 45.3767 58.0107 46.2296 58.0445 47.2466C58.0783 48.2644 58.9305 49.062 59.9482 49.0275Z" fill="#7F98EF"/>
<path fill-rule="evenodd" clip-rule="evenodd" d="M44.862 50.2865L41.7804 50.2423C40.2976 50.221 39.1122 49.001 39.1336 47.5182C39.155 46.0354 40.3749 44.85 41.8577 44.8714L44.9392 44.9155C46.422 44.9369 47.6075 46.1568 47.5861 47.6397C47.5647 49.1232 46.3448 50.3079 44.862 50.2865Z" fill="#9FB3F9"/>
<path fill-rule="evenodd" clip-rule="evenodd" d="M41.7432 49.3529L43.8588 49.3832C44.8765 49.3977 45.7135 48.5849 45.7287 47.5665C45.7432 46.5487 44.9303 45.7118 43.9119 45.6966L41.7964 45.6662C40.7786 45.6517 39.9416 46.4645 39.9265 47.483C39.912 48.5014 40.7255 49.3384 41.7432 49.3529Z" fill="#7F98EF"/>
<path fill-rule="evenodd" clip-rule="evenodd" d="M51.6785 59.1551C50.4911 59.1579 49.2622 58.8274 48.0995 58.2664C44.052 56.3123 41.4893 51.0021 42.6582 45.3531C44.9959 34.0709 58.6896 34.0985 60.8797 45.389C61.9747 51.0421 59.3424 56.3427 55.2686 58.2809C54.0991 58.8371 52.866 59.1627 51.6785 59.1551Z" fill="#9FB3F9"/>
<path fill-rule="evenodd" clip-rule="evenodd" d="M47.7993 46.4611C48.2361 46.5357 48.5314 46.9552 48.4555 47.3975C48.381 47.8411 47.9656 48.1406 47.5281 48.0661C47.0907 47.9916 46.796 47.572 46.8713 47.129C46.9458 46.6854 47.3612 46.3873 47.7993 46.4611ZM46.6615 44.7134C46.5166 44.841 46.2972 44.8279 46.1716 44.683C46.046 44.5395 46.0626 44.318 46.2075 44.1903C46.4393 43.9868 46.9292 43.7798 47.4412 43.7667C47.831 43.7563 48.2437 43.8509 48.5894 44.1275C48.7391 44.2469 48.7632 44.467 48.6425 44.6188C48.5217 44.7706 48.303 44.7969 48.154 44.6775C47.9497 44.5146 47.6958 44.4594 47.4522 44.465C47.1052 44.4746 46.796 44.5947 46.6615 44.7134ZM56.051 46.2507C55.6246 46.3763 55.3769 46.8275 55.5011 47.2588C55.6232 47.6907 56.0683 47.9384 56.4954 47.8135C56.9211 47.6886 57.1688 47.2367 57.0453 46.8048C56.9232 46.3735 56.4781 46.1258 56.051 46.2507ZM57.2585 43.9764C57.3951 44.1117 57.3986 44.3346 57.2647 44.4719C57.1323 44.6099 56.9128 44.6119 56.7755 44.4767C56.6486 44.3511 56.3477 44.2145 56.0041 44.1883C55.7619 44.1696 55.5052 44.2124 55.2927 44.3642C55.1375 44.476 54.9208 44.4387 54.809 44.2807C54.6979 44.1227 54.7338 43.9033 54.8897 43.7908C55.2499 43.5321 55.6667 43.4589 56.0538 43.4886C56.5637 43.5286 57.0398 43.7605 57.2585 43.9764Z" fill="black"/>
<path d="M55.2424 50.9197C55.566 52.5523 58.0818 51.9837 57.7112 50.3615C57.3876 48.7297 54.8726 49.2982 55.2424 50.9197ZM45.9654 51.1695C46.289 52.802 48.8047 52.2335 48.4342 50.6113C48.1106 48.9788 45.5948 49.5473 45.9654 51.1695ZM50.794 49.1478C50.7995 48.947 50.8126 48.7593 50.834 48.5848C50.8713 47.9603 51.0631 47.5097 51.3674 47.262C51.475 47.1682 51.5992 47.102 51.74 47.0661C51.7489 47.0661 51.7579 47.0668 51.7669 47.0668C51.7759 47.0647 51.7841 47.0626 51.7931 47.0605C51.9387 47.0674 52.0732 47.1082 52.1988 47.1785C52.548 47.3614 52.8281 47.7644 52.9923 48.3688C53.0482 48.5358 53.0896 48.7186 53.1365 48.9139C53.1524 49.056 53.1745 49.1878 53.1821 49.3134C53.3118 50.12 53.1634 50.7279 52.205 50.8093C52.1878 50.8114 52.1712 50.8128 52.1547 50.8141C52.1381 50.8162 52.1216 50.8183 52.1043 50.8197C51.1487 50.9294 50.8796 50.3629 50.8409 49.5473C50.823 49.4231 50.8078 49.2899 50.794 49.1478Z" fill="#7F98EF"/>
<path d="M50.8596 53.0632C51.286 54.871 54.1143 54.2038 53.7024 52.3925C53.5258 51.628 53.02 52.3435 52.2348 52.5284C51.4502 52.7134 50.683 52.2987 50.8596 53.0632Z" fill="white"/>
<path fill-rule="evenodd" clip-rule="evenodd" d="M38.8816 36.5552C38.8381 35.2525 39.78 34.1464 41.0371 33.9518C41.4918 32.3428 42.9436 31.1401 44.7038 31.0814C45.4573 31.0566 46.1687 31.2443 46.78 31.5907C47.4521 29.9995 48.9997 28.859 50.8393 28.7975C52.5429 28.7403 54.0595 29.6242 54.891 30.9807C55.425 30.6806 56.0364 30.4991 56.6912 30.4777C58.3396 30.4225 59.7851 31.3871 60.4234 32.803C62.2457 32.8113 63.7499 34.2589 63.8113 36.0957C63.8361 36.8367 63.6215 37.5302 63.2379 38.1029C63.6567 38.6156 63.9175 39.2649 63.941 39.9776C63.999 41.7068 62.6438 43.1558 60.9147 43.2137C59.812 43.2503 58.8247 42.7128 58.2375 41.8703C57.7172 42.314 57.0486 42.5913 56.3124 42.6162C55.2435 42.6521 54.2831 42.1477 53.6904 41.35C53.0362 41.911 52.1944 42.2622 51.2657 42.2933C50.3135 42.325 49.4296 42.0152 48.7306 41.4742C48.1973 42.3333 47.2589 42.9184 46.1721 42.955C45.4269 42.9798 44.7348 42.7425 44.1828 42.3257C43.6598 42.7783 42.985 43.0612 42.2398 43.0861C40.5107 43.144 39.0617 41.7889 39.0037 40.0597C38.9802 39.3677 39.1845 38.7204 39.5474 38.1891C39.1521 37.7572 38.9023 37.1873 38.8816 36.5552Z" fill="#161616"/>
<path opacity="0.05" d="M35.1826 93.7308L111.492 1.24873L124.38 0.902344L49.2848 93.7308H35.1826Z" fill="white"/>
<path opacity="0.05" d="M67.1343 92.8396L141.716 0.701172L143.851 1.48087C150.105 3.76477 152.423 11.4065 148.494 16.7802L89.9533 92.3746L67.1343 92.8396Z" fill="white"/>
<path d="M49.1016 13.05C49.1016 12.594 49.2336 12.237 49.4976 11.979C49.7676 11.721 50.1126 11.592 50.5326 11.592C50.9526 11.592 51.2946 11.721 51.5586 11.979C51.8286 12.237 51.9636 12.594 51.9636 13.05C51.9636 13.512 51.8286 13.872 51.5586 14.13C51.2946 14.388 50.9526 14.517 50.5326 14.517C50.1126 14.517 49.7676 14.388 49.4976 14.13C49.2336 13.872 49.1016 13.512 49.1016 13.05ZM54.8796 11.7L51.3426 18H50.1186L53.6466 11.7H54.8796ZM50.5236 12.348C50.1936 12.348 50.0286 12.582 50.0286 13.05C50.0286 13.524 50.1936 13.761 50.5236 13.761C50.6856 13.761 50.8116 13.704 50.9016 13.59C50.9916 13.47 51.0366 13.29 51.0366 13.05C51.0366 12.582 50.8656 12.348 50.5236 12.348ZM53.0526 16.641C53.0526 16.179 53.1846 15.822 53.4486 15.57C53.7186 15.312 54.0636 15.183 54.4836 15.183C54.9036 15.183 55.2426 15.312 55.5006 15.57C55.7646 15.822 55.8966 16.179 55.8966 16.641C55.8966 17.103 55.7646 17.463 55.5006 17.721C55.2426 17.979 54.9036 18.108 54.4836 18.108C54.0576 18.108 53.7126 17.979 53.4486 17.721C53.1846 17.463 53.0526 17.103 53.0526 16.641ZM54.4746 15.939C54.1326 15.939 53.9616 16.173 53.9616 16.641C53.9616 17.115 54.1326 17.352 54.4746 17.352C54.8106 17.352 54.9786 17.115 54.9786 16.641C54.9786 16.173 54.8106 15.939 54.4746 15.939Z" fill="black"/>
</svg>
