<svg width="140" height="140" viewBox="0 0 140 140" fill="none" xmlns="http://www.w3.org/2000/svg">
<path d="M104.963 35.0461C108.556 36.2551 110.681 37.7168 110.635 39.239C110.589 40.8244 108.83 48.1934 108.163 49.6304C107.517 51.0042 104.959 51.3517 101.207 50.8105C102.864 54.2203 103.312 56.7604 102.196 57.7935C101.081 58.8266 94.9154 62.6183 93.4783 63.1513C92.0412 63.6843 89.986 62.1361 87.69 59.1178C86.4811 62.7103 85.0195 64.8369 83.5005 64.7917C81.915 64.7436 74.5433 62.9837 73.1062 62.3106C71.7321 61.6649 71.3835 59.1068 71.926 55.355C68.519 57.0118 65.9775 57.4583 64.9443 56.3428C63.9113 55.2273 60.1182 49.0616 59.5865 47.626C59.0549 46.1904 60.6045 44.1338 63.62 41.841C60.0275 40.6293 57.9036 39.1675 57.949 37.6481C57.9956 36.0613 59.7528 28.691 60.4218 27.2539C61.0675 25.8801 63.6255 25.5326 67.376 26.0739C65.7206 22.6668 65.2727 20.1253 66.3896 19.0922C67.5065 18.0591 73.6704 14.2661 75.1075 13.7344C76.5446 13.2028 78.5984 14.7524 80.8902 17.7679C82.1033 14.1754 83.5649 12.0515 85.0839 12.0968C86.6694 12.1449 94.0397 13.902 95.4768 14.5697C96.8509 15.2153 97.1995 17.7734 96.657 21.5252C100.065 19.8684 102.607 19.4219 103.64 20.5374C104.673 21.653 108.465 27.8186 108.998 29.2556C109.531 30.6926 107.98 32.7506 104.963 35.0461Z" fill="white"/>
<path d="M83.5457 65.6174H83.4701C81.7901 65.568 74.2756 63.7751 72.7545 63.0594C71.2341 62.3436 70.6223 60.2129 70.9359 56.7138C67.6964 58.0739 65.4805 58.1399 64.3416 56.9062C63.2027 55.6725 59.396 49.4712 58.8134 47.916C58.2268 46.3389 59.286 44.3909 61.9636 42.1159C58.6994 40.8121 57.0728 39.3051 57.1237 37.6263C57.1745 35.9475 58.966 28.4314 59.6789 26.9107C60.392 25.3899 62.5268 24.7772 66.0259 25.0903C64.6659 21.8523 64.5999 19.6364 65.8336 18.4961C67.0672 17.3559 73.2697 13.5505 74.8251 12.9666C76.4022 12.3813 78.3489 13.4406 80.6239 16.1181C81.9 12.8993 83.3798 11.27 85.0283 11.27H85.1039C86.7867 11.3208 94.2984 13.1122 95.8195 13.8266C97.3406 14.541 97.9517 16.6731 97.6395 20.1721C100.878 18.8121 103.094 18.7462 104.234 19.9798C105.375 21.2135 109.18 27.4162 109.762 28.9713C110.349 30.5471 109.288 32.4951 106.611 34.7729C109.875 36.0725 111.502 37.5796 111.452 39.2625C111.402 40.9454 109.61 48.4546 108.896 49.9781C108.181 51.5016 106.049 52.1116 102.549 51.7984C103.91 55.0392 103.976 57.2551 102.742 58.3926C101.508 59.5301 95.3057 63.3383 93.7517 63.918C92.1746 64.5047 90.2251 63.4454 87.9487 60.7693C86.6768 63.9909 85.1942 65.6174 83.5457 65.6174ZM71.9208 54.5323C72.0391 54.5322 72.156 54.5576 72.2638 54.6067C72.3709 54.6559 72.4668 54.7276 72.5445 54.817C72.6215 54.9063 72.6789 55.0113 72.7125 55.1248C72.7454 55.2384 72.7538 55.3576 72.737 55.4747C72.163 59.4491 72.7286 61.2268 73.451 61.5661C74.7936 62.1953 82.04 63.9249 83.5198 63.9689H83.5408C84.3388 63.9689 85.6338 62.6295 86.905 58.8569C86.9526 58.7151 87.038 58.5889 87.1521 58.492C87.2662 58.395 87.4048 58.331 87.5525 58.3067C87.7002 58.2824 87.8514 58.2988 87.9907 58.3541C88.13 58.4094 88.2511 58.5015 88.3421 58.6207C90.7718 61.8161 92.4371 62.6583 93.1861 62.3794C94.5133 61.8862 100.591 58.1508 101.631 57.1892C102.216 56.6479 102.216 54.7823 100.461 51.1706C100.396 51.0359 100.369 50.886 100.382 50.737C100.395 50.5879 100.449 50.4453 100.538 50.3244C100.626 50.2035 100.745 50.109 100.883 50.0509C101.021 49.9928 101.172 49.9733 101.32 49.9946C105.295 50.5689 107.072 50.0014 107.412 49.2802C108.041 47.938 109.768 40.6954 109.813 39.2144C109.836 38.4162 108.505 37.107 104.7 35.828C104.558 35.7804 104.431 35.6948 104.334 35.5807C104.236 35.4665 104.173 35.328 104.148 35.18C104.124 35.032 104.14 34.8803 104.196 34.741C104.252 34.6017 104.344 34.4802 104.463 34.3896C107.66 31.9594 108.504 30.2943 108.226 29.547C107.731 28.2199 103.995 22.1408 103.032 21.1008C102.491 20.5156 100.625 20.5156 97.0158 22.27C96.8814 22.3357 96.7316 22.3635 96.5818 22.3503C96.4327 22.3371 96.2899 22.2835 96.1688 22.1952C96.0477 22.1069 95.9532 21.9872 95.8951 21.8491C95.837 21.711 95.8174 21.5597 95.8384 21.4113C96.4145 17.437 95.8468 15.6592 95.1258 15.3199C93.7832 14.6852 86.5396 12.9638 85.057 12.9199H85.0367C84.238 12.9199 82.9416 14.2594 81.669 18.0304C81.6214 18.1722 81.536 18.2982 81.4219 18.395C81.3078 18.4919 81.1692 18.5558 81.0215 18.5799C80.8738 18.6041 80.7226 18.5875 80.5833 18.5321C80.444 18.4767 80.3229 18.3845 80.2326 18.2653C77.8036 15.0699 76.1397 14.2277 75.3928 14.5053C74.0642 14.9998 67.9863 18.7366 66.9463 19.6996C66.3611 20.2409 66.3611 22.1064 68.1155 25.7154C68.1808 25.85 68.2083 26 68.195 26.149C68.1816 26.2981 68.1279 26.4407 68.0397 26.5616C67.9515 26.6824 67.832 26.777 67.694 26.8351C67.5561 26.8933 67.405 26.9127 67.2568 26.8914C63.2825 26.3172 61.5047 26.8832 61.1654 27.6058C60.5362 28.9466 58.8093 36.1921 58.7654 37.6744C58.7406 38.4698 60.0705 39.7777 63.8759 41.0622C64.0177 41.1101 64.1437 41.1957 64.2405 41.3098C64.3374 41.424 64.4013 41.5623 64.4254 41.71C64.4496 41.8577 64.433 42.0092 64.3776 42.1482C64.3222 42.2872 64.23 42.4085 64.1108 42.4991C60.9154 44.928 60.0732 46.5931 60.3521 47.3404C60.8453 48.6689 64.5821 54.7452 65.5437 55.7851C66.0864 56.3704 67.9519 56.3704 71.561 54.6161C71.673 54.5609 71.7962 54.5322 71.9208 54.5323Z" fill="#101014"/>
<path d="M85.7747 57.5024C85.6235 57.5023 85.4758 57.4609 85.347 57.3827C85.2182 57.3044 85.1132 57.1924 85.0432 57.0586L75.3167 38.4341C75.2425 38.2923 75.2117 38.1317 75.2278 37.9725L76.2029 27.9437C76.2155 27.8118 76.2589 27.6846 76.331 27.5732C76.4024 27.4618 76.5004 27.3692 76.6152 27.3036L80.8369 24.9461C80.9601 24.8767 81.0994 24.8403 81.2408 24.8403C81.3822 24.8403 81.5215 24.8767 81.6447 24.9461L89.6212 29.4645C89.7556 29.5406 89.8662 29.6529 89.9397 29.7887L100.381 49.0659C100.433 49.162 100.465 49.2674 100.475 49.376C100.487 49.4847 100.475 49.5944 100.444 49.6989C100.412 49.8033 100.359 49.9003 100.289 49.9844C100.22 50.0684 100.134 50.1377 100.037 50.1882L86.1534 57.4104C86.0365 57.4709 85.9063 57.5025 85.7747 57.5024ZM76.8917 37.8886L86.1275 55.5667L98.5371 49.1098L88.6097 30.7792L81.2422 26.6057L77.808 28.529L76.8917 37.8886Z" fill="#101014"/>
<path d="M81.8253 34.6947C81.3472 34.6944 80.8761 34.5802 80.4505 34.3616C80.0249 34.143 79.6581 33.8262 79.3788 33.4375C79.1002 33.0488 78.9182 32.5993 78.8475 32.1263C78.7768 31.6532 78.8202 31.1702 78.9735 30.7171C79.1268 30.264 79.3851 29.8539 79.7288 29.5207C80.0718 29.1875 80.489 28.9407 80.9468 28.8008C81.4039 28.661 81.8883 28.6321 82.3587 28.7164C82.8298 28.8008 83.2736 28.9961 83.6537 29.286C84.1556 29.6684 84.5245 30.1986 84.7086 30.8017C84.8927 31.4049 84.8836 32.0507 84.6813 32.6481C84.479 33.2456 84.094 33.7644 83.5816 34.1316C83.0685 34.4987 82.4532 34.6957 81.8225 34.6947H81.8253ZM81.8253 30.3177C81.5012 30.3184 81.1883 30.4343 80.9419 30.6446C80.6955 30.8549 80.5317 31.1461 80.4799 31.466C80.4288 31.7859 80.4925 32.1136 80.6605 32.3908C80.8278 32.6679 81.0889 32.8763 81.3962 32.9788C81.7035 33.0813 82.0374 33.0711 82.3384 32.9501C82.6387 32.8291 82.8865 32.6051 83.037 32.3183C83.1875 32.0315 83.2316 31.7004 83.1609 31.3842C83.0895 31.0681 82.9089 30.7874 82.6499 30.5925C82.414 30.4141 82.1263 30.3175 81.8309 30.3177H81.8253ZM114.042 98.7812C118.092 105.58 118.783 111.542 113.545 116.63C108.488 121.544 102.774 120.912 96.3727 117.043C94.4806 124.284 90.8224 128.72 83.7706 128.72C76.4717 128.72 72.8093 123.966 70.9753 116.268C64.1763 120.315 58.2139 121.006 53.1226 115.765C48.2086 110.708 48.8419 104.994 52.7105 98.5929C45.4761 96.6973 41.0332 93.0454 41.0332 85.988C41.0332 78.6849 45.7866 75.0267 53.4854 73.1927C49.4354 66.3923 48.7443 60.43 53.9854 55.3401C59.0424 50.426 64.756 51.058 71.158 54.9279C73.0536 47.6935 75.5456 54.5611 82.603 54.5611C89.9033 54.5611 94.7284 48.0123 96.5624 55.711C103.362 51.6611 109.325 50.9701 114.412 56.207C119.326 61.2639 118.693 66.9789 114.824 73.3796C122.063 75.2738 126.501 78.9299 126.501 85.9838C126.501 93.2883 121.74 96.9472 114.042 98.7812Z" fill="#101014"/>
<path d="M108.822 93.9728C112.872 100.771 113.563 106.734 108.325 111.822C103.268 116.736 97.5545 116.103 91.1523 112.234C89.2609 119.476 85.602 123.912 78.5502 123.912C71.2513 123.912 67.5889 119.158 65.7549 111.459C58.956 115.507 52.9937 116.198 47.9024 110.957C42.9883 105.9 43.6217 100.186 47.4903 93.7845C40.2559 91.8882 35.813 88.237 35.813 81.1796C35.813 73.8765 40.5663 70.2183 48.2651 68.3842C44.2152 61.5839 43.5241 55.6216 48.7652 50.5317C53.8221 45.6176 59.5358 46.2496 65.9376 50.1195C67.8335 42.8851 71.4893 38.4423 78.5467 38.4423C85.847 38.4423 89.508 43.1997 91.342 50.8985C98.1425 46.8485 104.104 46.1575 109.192 51.3944C114.106 56.4514 113.472 62.1664 109.604 68.5669C116.842 70.4612 121.281 74.1173 121.281 81.1712C121.281 88.4799 116.52 92.1388 108.822 93.9728Z" fill="#EB2C27"/>
<path d="M79.072 116.47C76.0858 116.47 73.64 115.497 71.8032 113.585C70.336 112.05 69.2288 109.911 68.4361 107.066C65.8424 108.48 63.5372 109.176 61.4133 109.193H61.3377C58.711 109.193 56.3344 108.117 54.2709 105.993C54.1955 105.916 54.1361 105.824 54.0962 105.723C54.0562 105.623 54.0365 105.515 54.0381 105.407C54.0397 105.299 54.0626 105.192 54.1054 105.092C54.1483 104.993 54.2104 104.903 54.2881 104.828C54.3658 104.752 54.4575 104.693 54.5581 104.653C54.6587 104.613 54.7662 104.593 54.8745 104.595C54.9827 104.596 55.0896 104.619 55.189 104.662C55.2884 104.705 55.3783 104.767 55.4538 104.845C58.8814 108.374 62.919 108.455 68.5433 105.108C68.6543 105.043 68.7793 105.003 68.9082 104.995C69.0371 104.986 69.1662 105.008 69.2851 105.058C69.4041 105.108 69.5096 105.185 69.5931 105.284C69.6767 105.383 69.7359 105.5 69.766 105.625C71.2775 111.99 74.1524 114.829 79.072 114.829C82.4145 114.829 84.8421 113.456 86.4906 110.637C86.6082 110.465 86.786 110.344 86.989 110.298C87.192 110.251 87.4055 110.284 87.5854 110.389C87.7653 110.493 87.8997 110.662 87.9599 110.861C88.0208 111.061 88.004 111.275 87.9123 111.462C85.9712 114.786 82.9955 116.47 79.072 116.47ZM96.3144 109.678C94.2403 109.678 91.9912 109.007 89.5461 107.669L89.4404 108.068C89.4124 108.172 89.3641 108.27 89.2983 108.356C89.2325 108.443 89.1499 108.515 89.0561 108.569C88.9623 108.623 88.8587 108.658 88.7516 108.672C88.6445 108.687 88.5353 108.68 88.4303 108.652C88.326 108.624 88.228 108.576 88.1419 108.51C88.0558 108.444 87.9837 108.361 87.9291 108.268C87.8752 108.174 87.8402 108.07 87.8255 107.963C87.8115 107.856 87.8185 107.747 87.8465 107.642L88.2315 106.206C88.2644 106.083 88.326 105.969 88.4107 105.873C88.4954 105.778 88.6011 105.703 88.7201 105.655C88.8384 105.608 88.9665 105.588 89.0939 105.598C89.2213 105.608 89.3445 105.648 89.4537 105.715C94.7198 108.899 98.595 108.835 102.02 105.505C105.549 102.08 105.629 98.0434 102.28 92.4189C102.214 92.3076 102.175 92.183 102.166 92.0542C102.157 91.9254 102.179 91.7959 102.229 91.6769C102.279 91.5579 102.357 91.4522 102.455 91.3689C102.554 91.2856 102.67 91.2261 102.796 91.196C107.618 90.0466 110.374 88.1314 111.468 85.169C111.505 85.0675 111.562 84.9744 111.636 84.8953C111.709 84.8155 111.798 84.7511 111.896 84.7063C111.994 84.6608 112.101 84.6356 112.209 84.6314C112.317 84.6272 112.426 84.644 112.527 84.6818C112.629 84.7189 112.722 84.7763 112.801 84.8498C112.881 84.9233 112.945 85.0122 112.99 85.1102C113.035 85.2089 113.061 85.3146 113.065 85.4231C113.07 85.5316 113.052 85.6394 113.014 85.7409C111.817 88.9833 108.941 91.2086 104.238 92.5246C105.651 95.1181 106.349 97.4239 106.367 99.5477C106.389 102.204 105.313 104.607 103.17 106.691C101.119 108.682 98.8463 109.677 96.3144 109.678ZM112.829 82.7141C112.61 82.7141 112.401 82.6273 112.246 82.4726C112.092 82.3186 112.005 82.1086 112.005 81.8902C112.005 77.1134 109.349 74.2889 103.394 72.7293C103.27 72.6971 103.155 72.6362 103.059 72.5515C102.962 72.4668 102.887 72.3604 102.839 72.2421C102.791 72.1231 102.771 71.9943 102.782 71.8669C102.791 71.7388 102.831 71.6149 102.898 71.5057C104.272 69.2387 105.016 67.2467 105.185 65.4291C105.205 65.2114 105.311 65.0106 105.479 64.8709C105.647 64.7311 105.864 64.6638 106.081 64.6838C106.299 64.7039 106.5 64.8096 106.64 64.9777C106.78 65.1458 106.847 65.3626 106.827 65.5803C106.66 67.3937 106.009 69.3156 104.846 71.4287C110.77 73.2515 113.653 76.6822 113.653 81.8902C113.653 82.1086 113.567 82.3186 113.412 82.4726C113.257 82.6273 113.048 82.7141 112.829 82.7141ZM103.281 59.1881C103.171 59.1882 103.062 59.1661 102.959 59.1232C102.858 59.0802 102.766 59.0173 102.689 58.938C99.2614 55.4101 95.2252 55.3304 89.6021 58.6798C89.4915 58.746 89.3662 58.7852 89.2367 58.7942C89.1079 58.8031 88.9784 58.7816 88.8594 58.7313C88.7404 58.681 88.6347 58.6034 88.5514 58.5047C88.4674 58.406 88.4079 58.2891 88.3785 58.1632C86.8672 51.7956 83.9916 48.9588 79.072 48.9588C78.8536 48.9588 78.6436 48.8719 78.4889 48.7173C78.3349 48.5628 78.2481 48.3531 78.2481 48.1345C78.2481 47.9159 78.3349 47.7062 78.4889 47.5516C78.6436 47.3971 78.8536 47.3102 79.072 47.3102C82.0603 47.3102 84.5054 48.2828 86.3408 50.2034C87.8094 51.7394 88.9154 53.8784 89.7092 56.7221C92.302 55.3085 94.6071 54.612 96.7309 54.5941H96.8093C99.4343 54.5941 101.81 55.6698 103.872 57.7909C103.985 57.9071 104.061 58.0539 104.091 58.2131C104.121 58.3723 104.103 58.5367 104.04 58.6859C103.977 58.8351 103.872 58.9624 103.736 59.052C103.601 59.1415 103.443 59.1893 103.281 59.1895V59.1881ZM52.4191 102.236C52.2408 102.236 52.0674 102.178 51.9249 102.07C51.7825 101.963 51.6787 101.812 51.6291 101.641C50.8296 98.8939 51.3735 95.8482 53.2941 92.3503C47.3744 90.5289 44.4922 87.0982 44.4922 81.8902C44.4922 78.9005 45.4648 76.4554 47.384 74.62C48.9186 73.1528 51.0576 72.0468 53.9014 71.253C52.4877 68.6604 51.7898 66.3538 51.7733 64.2313C51.7527 61.5744 52.8284 59.1702 54.9729 57.0875C58.7083 53.4579 63.1772 53.1351 68.6079 56.1121C69.6011 52.87 71.0451 50.5826 73.0037 49.1387C73.0912 49.0745 73.1899 49.0281 73.2949 49.0021C73.4006 48.9761 73.5098 48.9711 73.6162 48.9872C73.7233 49.0035 73.8262 49.0406 73.9193 49.0965C74.0117 49.1524 74.0922 49.2261 74.1566 49.3132C74.221 49.4003 74.2672 49.4993 74.2931 49.6044C74.319 49.7094 74.3246 49.8186 74.3078 49.9257C74.2917 50.0327 74.2546 50.1355 74.1986 50.2281C74.1433 50.3208 74.0691 50.4016 73.9823 50.4659C72.1371 51.8259 70.8043 54.1476 69.9102 57.5629C69.8777 57.6869 69.8167 57.8016 69.732 57.8979C69.6473 57.9942 69.5413 58.0694 69.4225 58.1175C69.3036 58.1657 69.1752 58.1855 69.0473 58.1753C68.9195 58.1651 68.7959 58.1252 68.6862 58.0588C63.4218 54.8771 59.5463 54.9417 56.1214 58.2704C52.5921 61.7048 52.511 65.737 55.8604 71.3601C55.9264 71.4707 55.9654 71.596 55.9742 71.7248C55.983 71.8536 55.9615 71.9831 55.9112 72.1021C55.8611 72.2211 55.7837 72.3268 55.685 72.4108C55.5865 72.4941 55.4696 72.5536 55.3439 72.5837C48.9791 74.095 46.1394 76.9706 46.1394 81.8902C46.1394 86.6656 48.7922 89.4901 54.7449 91.049C54.8689 91.0819 54.9837 91.1428 55.0799 91.2275C55.1762 91.3122 55.2514 91.4179 55.2996 91.5369C55.3477 91.6559 55.3675 91.784 55.3573 91.9121C55.3471 92.0402 55.3072 92.1634 55.2408 92.2733C53.1403 95.7474 52.4767 98.6615 53.2103 101.181C53.2711 101.391 53.2462 101.616 53.1412 101.807C53.0361 101.998 52.8594 102.14 52.6498 102.201C52.575 102.224 52.4972 102.236 52.4191 102.236Z" fill="white"/>
<path d="M49.3218 90.4281C46.6676 93.6019 47.8766 97.7179 45.3227 99.0696C42.7248 100.443 39.9731 97.0088 35.7404 97.3826C31.5078 97.7564 29.41 101.633 26.6075 100.741C23.8557 99.8606 24.3159 95.6018 21.1466 92.9453C17.9772 90.2881 13.8572 91.4998 12.5068 88.9476C11.133 86.3492 14.5675 83.5975 14.1924 79.3667C13.8174 75.1352 9.94186 73.0345 10.8335 70.231C11.71 67.4831 15.9756 67.9406 18.6298 64.7657C21.284 61.5909 20.0764 57.4735 22.6275 56.1259C25.2282 54.7521 27.9853 58.1866 32.2112 57.8115C36.437 57.4365 38.5362 53.5638 41.3414 54.4526C44.089 55.3291 43.6329 59.5947 46.8064 62.2489C49.9799 64.9031 54.0985 63.6942 55.449 66.2466C56.8228 68.8486 53.3883 71.5974 53.7633 75.8303C54.1384 80.0632 58.0125 82.1597 57.1195 84.9632C56.2417 87.7149 51.976 87.255 49.3218 90.4281Z" fill="white"/>
<path d="M27.4662 101.702C27.0931 101.7 26.7224 101.641 26.3672 101.527C24.5812 100.957 23.9149 99.358 23.2074 97.6654C22.6098 96.2213 21.9916 94.7281 20.6164 93.578C19.2413 92.4286 17.6587 92.0836 16.131 91.7553C14.3451 91.3654 12.6511 90.9972 11.7733 89.3375C10.879 87.6491 11.5576 86.0195 12.2761 84.294C12.8929 82.8149 13.5304 81.2826 13.3669 79.4437C13.2034 77.6041 12.3022 76.2027 11.4326 74.8573C10.4201 73.283 9.46943 71.8011 10.0437 69.9806C10.6125 68.1947 12.2115 67.5297 13.9041 66.8291C15.3493 66.2315 16.8413 65.6133 17.9925 64.2368C19.1437 62.8602 19.4858 61.2817 19.8196 59.7541C20.2098 57.9681 20.578 56.2742 22.2375 55.3963C23.9259 54.5034 25.5552 55.1821 27.2807 55.9006C28.7617 56.5174 30.2921 57.1548 32.133 56.9914C33.9739 56.8278 35.3656 55.928 36.7132 55.0584C38.2849 54.0445 39.7686 53.0884 41.5889 53.6667C43.3748 54.2369 44.0397 55.8359 44.7417 57.5285C45.3393 58.9724 45.9576 60.4657 47.3327 61.6156C48.7079 62.7654 50.2878 63.1102 51.8154 63.4441C53.6013 63.8342 55.2966 64.2024 56.1759 65.862C57.0675 67.5504 56.3901 69.1797 55.6717 70.9037C55.0548 72.3849 54.4174 73.9165 54.5809 75.7575C54.7444 77.5985 55.6442 78.9929 56.5138 80.3404C57.5263 81.9105 58.4824 83.3931 57.9027 85.2131C57.3326 86.9995 55.7335 87.6645 54.0409 88.3645C52.5971 88.9623 51.1037 89.5804 49.9539 90.9573C48.804 92.3307 48.4592 93.912 48.1268 95.4387C47.7366 97.2244 47.3684 98.9184 45.7089 99.7976C44.0219 100.691 42.3925 100.012 40.6684 99.2936C39.1861 98.6769 37.6543 98.0378 35.8134 98.2023C33.9725 98.3675 32.5808 99.2656 31.2318 100.136C29.9913 100.936 28.8043 101.702 27.4662 101.702ZM23.952 56.6259C23.6229 56.6223 23.2981 56.7007 23.0069 56.854C22.0727 57.3485 21.7993 58.4119 21.4297 60.1057C21.0726 61.7474 20.6673 63.6076 19.2564 65.2946C17.8455 66.9816 16.087 67.7138 14.5346 68.3526C12.9328 69.0148 11.9423 69.4723 11.614 70.4809C11.2856 71.4889 11.8585 72.4724 12.8188 73.9606C13.7049 75.334 14.8081 77.0462 15.0086 79.2939C15.2092 81.5409 14.4261 83.4148 13.7983 84.9261C13.1114 86.5613 12.7253 87.6105 13.2296 88.564C13.7337 89.5174 14.7888 89.7729 16.4827 90.1411C18.1312 90.4995 19.9845 90.9048 21.6702 92.3146C23.3558 93.7237 24.0853 95.4835 24.7282 97.036C25.3918 98.6384 25.8492 99.6366 26.8576 99.9571C27.866 100.277 28.8496 99.7122 30.3388 98.7518C31.7126 97.8663 33.423 96.7631 35.6664 96.5621C37.9098 96.3619 39.7878 97.1446 41.299 97.7725C42.9338 98.4592 43.9834 98.8456 44.9354 98.3416C45.8875 97.8369 46.1444 96.7834 46.5139 95.0894C46.8711 93.4409 47.2764 91.588 48.6859 89.901C50.0968 88.214 51.8553 87.4853 53.4077 86.8441C55.0095 86.1805 56.0082 85.7227 56.3283 84.7147C56.6484 83.706 56.0852 82.7225 55.1249 81.235C54.2402 79.8609 53.137 78.1508 52.9364 75.9059C52.7359 73.661 53.5176 71.7843 54.1467 70.273C54.8336 68.6384 55.2197 67.5888 54.7155 66.6354C54.2113 65.682 53.1562 65.4264 51.4624 65.0569C49.8138 64.6997 47.9591 64.2931 46.2721 62.8835C44.5851 61.474 43.8584 59.7142 43.2155 58.1618C42.5519 56.56 42.0944 55.5626 41.0861 55.2411C40.0777 54.9196 39.0968 55.487 37.6076 56.4487C36.2338 57.3348 34.5234 58.4379 32.2787 58.6385C30.0338 58.8391 28.1573 58.0574 26.646 57.4282C25.5264 56.957 24.6802 56.6259 23.952 56.6259ZM60.5556 95.2146C60.2145 95.2132 59.8831 95.102 59.6106 94.8969C59.3382 94.6918 59.1394 94.404 59.0441 94.0765C58.9486 93.7488 58.9618 93.3996 59.0814 93.0804C59.2011 92.7612 59.4209 92.4889 59.7079 92.3048L96.7471 68.813C96.9221 68.6987 97.1181 68.6205 97.3239 68.5826C97.5297 68.5448 97.7404 68.5482 97.9448 68.5925C98.1492 68.6369 98.3431 68.7215 98.5146 68.8412C98.6861 68.9609 98.8317 69.1135 98.9437 69.2901C99.0557 69.4667 99.1313 69.6637 99.167 69.8698C99.202 70.0763 99.1964 70.287 99.1495 70.4907C99.1026 70.6944 99.0158 70.8869 98.8933 71.057C98.7715 71.2271 98.6175 71.3713 98.4397 71.4812L61.3991 94.9689C61.1469 95.1292 60.8544 95.2146 60.5556 95.2146ZM75.3607 72.5123C74.1126 72.5109 72.8974 72.1077 71.8964 71.3622C70.8954 70.616 70.1611 69.5678 69.802 68.3722C69.4431 67.1765 69.4787 65.897 69.9037 64.7231C70.3284 63.5493 71.1201 62.5436 72.1617 61.8548C73.2026 61.166 74.4381 60.8309 75.6848 60.8989C76.9315 60.9669 78.1229 61.4346 79.0826 62.2327C80.0423 63.0307 80.7199 64.1167 81.0146 65.3298C81.3093 66.5429 81.2057 67.8187 80.7185 68.9682C80.2719 70.0196 79.5257 70.9163 78.573 71.547C77.6203 72.177 76.5031 72.513 75.3607 72.5123ZM75.3691 64.0486C74.7104 64.0475 74.0748 64.2911 73.5855 64.7322C73.0962 65.1733 72.7882 65.7804 72.7217 66.4358C72.6545 67.091 72.8337 67.7478 73.2236 68.2787C73.6135 68.8095 74.1868 69.1766 74.8322 69.3086C75.4776 69.4406 76.1489 69.3281 76.7159 68.993C77.2829 68.6579 77.7057 68.1241 77.9017 67.4951C78.097 66.8662 78.0522 66.1869 77.7757 65.5892C77.4985 64.9914 77.0099 64.5178 76.4037 64.2602C76.0768 64.1207 75.7247 64.0487 75.3691 64.0486ZM81.4871 105.237C80.0395 105.24 78.643 104.705 77.5699 103.734C76.4961 102.763 75.8227 101.428 75.6799 99.988C75.5378 98.5481 75.9368 97.1068 76.7999 95.9448C77.6623 94.7835 78.9272 93.9848 80.3468 93.7048C81.7671 93.4248 83.2399 93.6838 84.4789 94.4314C85.7179 95.179 86.6342 96.3606 87.0493 97.7473C87.4637 99.1333 87.3475 100.625 86.7224 101.93C86.0973 103.235 85.0088 104.261 83.6683 104.806C82.976 105.09 82.2347 105.235 81.4871 105.237ZM81.4871 96.7694C81.0069 96.7694 80.5365 96.8996 80.1249 97.146C79.7133 97.3917 79.3766 97.7445 79.1498 98.1673C78.923 98.5894 78.8145 99.0653 78.8369 99.5448C78.8586 100.024 79.0105 100.488 79.2751 100.887C79.5397 101.287 79.9079 101.608 80.3405 101.815C80.7731 102.022 81.2533 102.108 81.7307 102.064C82.2081 102.02 82.6652 101.847 83.0523 101.564C83.4394 101.281 83.7425 100.899 83.9294 100.457C84.0995 100.054 84.1674 99.6149 84.1268 99.1788C84.0862 98.7434 83.9385 98.3241 83.697 97.9594C83.4548 97.594 83.1272 97.2951 82.7415 97.0872C82.3565 96.88 81.926 96.7708 81.4878 96.7694H81.4871Z" fill="#101014"/>
<path d="M48.7393 41.9934C48.1959 41.9934 47.6647 41.8323 47.2128 41.5304C46.761 41.2285 46.4088 40.7994 46.2008 40.2973C45.9929 39.7952 45.9385 39.2428 46.0445 38.7098C46.1505 38.1768 46.4122 37.6872 46.7965 37.303C47.1807 36.9187 47.6703 36.657 48.2033 36.5511C48.7362 36.445 49.2887 36.4994 49.7908 36.7074C50.2928 36.9153 50.7219 37.2675 51.0238 37.7194C51.3257 38.1712 51.4869 38.7024 51.4869 39.2458C51.4847 39.9738 51.1946 40.6715 50.6797 41.1863C50.1649 41.7011 49.4673 41.9913 48.7393 41.9934ZM48.7393 38.1372C48.522 38.1372 48.3094 38.2017 48.1287 38.3224C47.948 38.4432 47.8071 38.6148 47.7239 38.8156C47.6407 39.0165 47.619 39.2374 47.6614 39.4506C47.7038 39.6638 47.8085 39.8596 47.9622 40.0133C48.1159 40.167 48.3117 40.2717 48.5249 40.3141C48.7381 40.3565 48.959 40.3348 49.1599 40.2516C49.3607 40.1684 49.5323 40.0275 49.6531 39.8468C49.7739 39.6661 49.8383 39.4536 49.8383 39.2362C49.8383 38.9447 49.7225 38.6652 49.5165 38.459C49.3103 38.253 49.0308 38.1372 48.7393 38.1372ZM124.594 55.3825C123.49 55.3825 122.411 55.0553 121.493 54.4421C120.576 53.8289 119.86 52.9574 119.438 51.9377C119.015 50.918 118.905 49.796 119.12 48.7135C119.336 47.631 119.867 46.6367 120.648 45.8563C121.428 45.0759 122.422 44.5444 123.505 44.329C124.587 44.1137 125.709 44.2242 126.729 44.6466C127.749 45.0689 128.62 45.7842 129.233 46.7019C129.846 47.6196 130.174 48.6985 130.174 49.8022C130.173 51.2817 129.584 52.7003 128.538 53.7465C127.492 54.7927 126.073 55.3811 124.594 55.3825ZM124.594 45.8704C123.816 45.8704 123.056 46.1009 122.409 46.533C121.763 46.965 121.259 47.5791 120.961 48.2976C120.664 49.016 120.585 49.8065 120.737 50.5693C120.889 51.3319 121.264 52.0325 121.813 52.5824C122.363 53.1322 123.064 53.5067 123.826 53.6584C124.589 53.8102 125.38 53.7323 126.098 53.4347C126.817 53.1371 127.431 52.6331 127.863 51.9865C128.295 51.34 128.526 50.5798 128.526 49.8022C128.524 48.7598 128.11 47.7603 127.373 47.0232C126.636 46.286 125.636 45.8715 124.594 45.8704ZM36.1278 118.445C35.5741 118.445 35.0328 118.281 34.5724 117.974C34.112 117.666 33.7531 117.229 33.5412 116.717C33.3293 116.205 33.2738 115.643 33.3819 115.099C33.4899 114.556 33.7565 114.057 34.1481 113.666C34.5397 113.275 35.0386 113.008 35.5816 112.899C36.1248 112.792 36.6877 112.847 37.1993 113.059C37.7109 113.271 38.1482 113.629 38.4558 114.09C38.7635 114.551 38.9277 115.092 38.9277 115.645C38.9269 116.388 38.6317 117.099 38.1068 117.624C37.5819 118.149 36.8702 118.445 36.1278 118.445ZM36.1278 114.494C35.9002 114.494 35.6776 114.562 35.4882 114.689C35.299 114.815 35.1514 114.994 35.0643 115.205C34.9771 115.415 34.9543 115.647 34.9987 115.87C35.0432 116.093 35.1528 116.299 35.3138 116.46C35.4748 116.621 35.68 116.73 35.9033 116.775C36.1266 116.819 36.3581 116.796 36.5684 116.709C36.7788 116.622 36.9586 116.474 37.0851 116.285C37.2116 116.096 37.2791 115.873 37.2791 115.645C37.2788 115.34 37.1573 115.048 36.9415 114.832C36.7257 114.616 36.4331 114.495 36.1278 114.494ZM42.9666 21.7108C42.0085 21.7108 41.072 21.4267 40.2754 20.8944C39.4788 20.3622 38.858 19.6057 38.4913 18.7205C38.1247 17.8354 38.0288 16.8614 38.2157 15.9218C38.4026 14.9821 38.8639 14.119 39.5414 13.4415C40.2188 12.7641 41.082 12.3028 42.0216 12.1159C42.9612 11.9289 43.9352 12.0249 44.8203 12.3915C45.7054 12.7581 46.462 13.379 46.9942 14.1756C47.5265 14.9722 47.8106 15.9088 47.8106 16.8668C47.8092 18.1511 47.2984 19.3823 46.3903 20.2904C45.4821 21.1985 44.2508 21.7093 42.9666 21.7108ZM42.9666 13.6713C42.3346 13.6713 41.7168 13.8587 41.1913 14.2099C40.6658 14.561 40.2562 15.0601 40.0144 15.6439C39.7725 16.2278 39.7092 16.8703 39.8325 17.4902C39.9559 18.11 40.2601 18.6794 40.7071 19.1263C41.154 19.5732 41.7234 19.8775 42.3432 20.0008C42.9631 20.1242 43.6056 20.0609 44.1895 19.819C44.7733 19.5771 45.2724 19.1676 45.6235 18.6421C45.9747 18.1166 46.1621 17.4988 46.1621 16.8668C46.1609 16.0196 45.824 15.2075 45.2249 14.6084C44.6259 14.0094 43.8138 13.6724 42.9666 13.6713ZM28.5761 50.0536C27.91 50.0538 27.2588 49.8565 26.7049 49.4866C26.1509 49.1168 25.7191 48.5909 25.4641 47.9756C25.2091 47.3603 25.1422 46.6831 25.2722 46.0298C25.402 45.3765 25.7228 44.7764 26.1937 44.3055C26.6647 43.8344 27.2649 43.5137 27.9181 43.3838C28.5714 43.254 29.2486 43.3208 29.8639 43.5758C30.4793 43.8308 31.0051 44.2626 31.375 44.8165C31.7449 45.3705 31.9421 46.0216 31.9419 46.6878C31.9404 47.58 31.5853 48.4352 30.9544 49.0662C30.3236 49.697 29.4683 50.0521 28.5761 50.0536ZM28.5761 44.9705C28.2363 44.9702 27.9042 45.0707 27.6214 45.2591C27.3388 45.4476 27.1183 45.7155 26.9878 46.0292C26.8574 46.3429 26.8228 46.6882 26.8885 47.0215C26.9543 47.3549 27.1173 47.6613 27.357 47.9019C27.5968 48.1426 27.9025 48.3069 28.2355 48.3739C28.5686 48.441 28.9141 48.4078 29.2283 48.2787C29.5424 48.1494 29.8113 47.93 30.0009 47.6481C30.1905 47.3661 30.2922 47.0343 30.2933 46.6946C30.294 46.4685 30.2501 46.2445 30.1643 46.0354C30.0783 45.8262 29.9519 45.6361 29.7925 45.4758C29.633 45.3155 29.4435 45.1883 29.2347 45.1014C29.026 45.0144 28.8022 44.9695 28.5761 44.9691V44.9705Z" fill="#EB2C27"/>
<path d="M42.3911 87.7729L24.4204 88.8236L22.7485 73.6091L42.2908 72.466L42.3911 87.7729Z" fill="white"/>
<path d="M25.625 92.0722C25.4267 92.0722 25.2349 92.0008 25.085 91.8713C24.9351 91.7411 24.8371 91.5612 24.809 91.3652L22.3169 73.9807C22.3007 73.868 22.3082 73.7532 22.3388 73.6433C22.3694 73.5334 22.4225 73.4312 22.4946 73.3423C22.5668 73.2541 22.6565 73.182 22.7581 73.1302C22.8598 73.0784 22.971 73.0476 23.0849 73.0413L43.4569 71.8513C43.5708 71.845 43.6848 71.8618 43.7917 71.9017C43.8987 71.9409 43.9963 72.0025 44.0782 72.0816C44.1603 72.1614 44.2249 72.2566 44.2681 72.3623C44.3113 72.468 44.3321 72.5814 44.3293 72.6948L43.8938 90.2438C43.8886 90.451 43.8059 90.6477 43.6621 90.7968C43.5184 90.9452 43.324 91.0341 43.1176 91.046L25.68 92.0708L25.625 92.0722ZM24.0754 74.6352L26.3339 90.3817L42.27 89.4514L42.6642 73.5495L24.0754 74.6352Z" fill="#101014"/>
<path d="M32.9611 72.963C32.8285 72.963 32.6977 72.9315 32.58 72.8706C32.4623 72.8097 32.3611 72.7208 32.2849 72.6123C32.2087 72.5038 32.1598 72.3785 32.1424 72.2469C32.125 72.1153 32.1395 71.9816 32.1849 71.857C32.7686 70.2904 33.4406 68.7581 34.1975 67.2673C35.9024 63.9483 37.4575 62.2846 38.9522 62.1843C39.6611 62.1362 40.6846 62.4151 41.5281 64.0211C42.1271 65.1599 42.1861 66.3043 41.7039 67.4212C40.1845 70.9435 33.468 72.8545 33.1864 72.9343C33.1128 72.9539 33.0371 72.963 32.9611 72.963ZM39.0937 63.826H39.0648C37.8463 63.9098 35.8364 67.2605 34.3664 70.7979C36.4821 69.9971 39.4248 68.5436 40.1913 66.7632C40.4661 66.1188 40.4291 65.4718 40.0691 64.7849C39.8301 64.3453 39.4756 63.826 39.0868 63.826H39.0937Z" fill="#101014"/>
<path d="M33.3197 72.9414C33.2549 72.9414 33.1904 72.9344 33.1274 72.919C32.4611 72.7601 26.5758 71.2705 25.2459 68.1397C24.8049 67.0998 24.9079 65.9801 25.544 64.9004C26.4383 63.3891 27.4564 63.1515 28.1543 63.2243C29.5555 63.3699 30.9485 64.8728 32.413 67.8155C33.0572 69.126 33.6215 70.4746 34.1028 71.8529C34.1446 71.9768 34.1564 72.1091 34.1371 72.2386C34.1178 72.3681 34.0679 72.4913 33.9917 72.597C33.9154 72.7034 33.8149 72.7902 33.6986 72.8497C33.5822 72.9099 33.4533 72.9414 33.3224 72.9414H33.3197ZM27.9372 64.8619C27.5621 64.8619 27.2036 65.3331 26.9645 65.7383C26.5881 66.3758 26.5249 66.9336 26.7626 67.4955C27.4124 69.0245 30.0515 70.2156 31.983 70.8652C30.7741 67.843 29.0884 64.9773 27.9866 64.8633L27.9372 64.8619Z" fill="#101014"/>
</svg>
