<svg width="36" height="36" viewBox="0 0 36 36" fill="none" xmlns="http://www.w3.org/2000/svg">
<rect width="36" height="36" rx="18" fill="#1B73D2"/>
<path d="M17.9883 21.608C17.3323 21.608 16.7243 21.448 16.1643 21.128C15.6203 20.808 15.1883 20.376 14.8683 19.832C14.5483 19.272 14.3883 18.664 14.3883 18.008C14.3883 17.336 14.5483 16.728 14.8683 16.184C15.1883 15.624 15.6203 15.184 16.1643 14.864C16.7243 14.544 17.3323 14.384 17.9883 14.384C18.6603 14.384 19.2683 14.544 19.8123 14.864C20.3723 15.184 20.8123 15.624 21.1323 16.184C21.4523 16.728 21.6123 17.336 21.6123 18.008C21.6123 18.664 21.4523 19.272 21.1323 19.832C20.8123 20.376 20.3723 20.808 19.8123 21.128C19.2683 21.448 18.6603 21.608 17.9883 21.608Z" fill="#FAFAFA"/>
</svg>
