<svg width="16" height="16" viewBox="0 0 16 16" fill="none" xmlns="http://www.w3.org/2000/svg">
<mask id="mask0_2560_3752" style="mask-type:luminance" maskUnits="userSpaceOnUse" x="1" y="1" width="14" height="14">
<path d="M14.6666 8.00065C14.6666 11.6827 11.6819 14.6673 7.99992 14.6673C4.31792 14.6673 1.33325 11.6827 1.33325 8.00065C1.33325 4.31865 4.31792 1.33398 7.99992 1.33398C11.6819 1.33398 14.6666 4.31865 14.6666 8.00065Z" fill="white"/>
<path fill-rule="evenodd" clip-rule="evenodd" d="M8 4.83398C8.13261 4.83398 8.25978 4.88666 8.35355 4.98043C8.44732 5.0742 8.5 5.20138 8.5 5.33398V7.79398L10.02 9.31398C10.0691 9.35976 10.1085 9.41496 10.1359 9.47629C10.1632 9.53763 10.1779 9.60383 10.1791 9.67097C10.1802 9.7381 10.1679 9.80479 10.1427 9.86705C10.1176 9.92931 10.0802 9.98586 10.0327 10.0333C9.98521 10.0808 9.92866 10.1183 9.8664 10.1434C9.80414 10.1685 9.73745 10.1809 9.67032 10.1797C9.60318 10.1785 9.53697 10.1638 9.47564 10.1365C9.41431 10.1092 9.35911 10.0698 9.31333 10.0207L7.64667 8.35398C7.55287 8.26031 7.50012 8.13321 7.5 8.00065V5.33398C7.5 5.20138 7.55268 5.0742 7.64645 4.98043C7.74022 4.88666 7.86739 4.83398 8 4.83398Z" fill="black"/>
</mask>
<g mask="url(#mask0_2560_3752)">
<path d="M0 0.000976562H16V16.001H0V0.000976562Z" fill="#FAFAFA"/>
</g>
</svg>
