<svg width="56" height="56" viewBox="0 0 56 56" fill="none" xmlns="http://www.w3.org/2000/svg">
<rect x="0.5" y="0.5" width="55" height="55" rx="27.5" stroke="#177EB1"/>
<path d="M43.3287 29.6143C44.2216 28.7214 44.2216 27.2714 43.3287 26.3786L31.9001 14.95C31.0073 14.0572 29.5573 14.0572 28.6644 14.95C27.7716 15.8429 27.7716 17.2929 28.6644 18.1857L36.2001 25.7143H14.2858C13.0216 25.7143 12.0001 26.7357 12.0001 28C12.0001 29.2643 13.0216 30.2857 14.2858 30.2857H36.193L28.6716 37.8143C27.7787 38.7071 27.7787 40.1572 28.6716 41.05C29.5644 41.9429 31.0144 41.9429 31.9073 41.05L43.3358 29.6214L43.3287 29.6143Z" fill="#177EB1"/>
</svg>
