<svg width="500" height="121" viewBox="0 0 500 121" fill="none" xmlns="http://www.w3.org/2000/svg">
<path d="M104.447 0.077579C101.556 0.102083 96.7532 0.102083 93.7882 0.077579C90.8232 0.0653271 93.1879 0.0530752 99.0565 0.0530752C104.925 0.0530752 107.339 0.0653271 104.447 0.077579Z" fill="white" fill-opacity="0.5"/>
<path d="M436.045 64.6819C423.879 64.7064 413.894 64.6696 413.845 64.6206C413.796 64.5716 423.744 64.5594 458.16 64.6574L436.045 64.6819Z" fill="#848484" fill-opacity="0.3"/>
<path d="M424.345 55.2535C424.811 55.1558 425.558 55.0215 425.999 54.9604C426.44 54.8993 436.646 54.8505 470.596 54.8261L470.522 55.0947C470.486 55.2535 470.241 55.8153 469.996 56.3526C469.751 56.89 469.297 57.6838 469.003 58.1235C468.709 58.5631 468.195 59.247 467.851 59.6378C467.508 60.0408 466.835 60.7003 466.357 61.1033C465.879 61.5185 465.021 62.117 464.458 62.4589C463.894 62.7886 462.963 63.2405 462.387 63.4725C461.811 63.7046 461.039 63.9733 460.672 64.071C460.304 64.1687 459.471 64.3274 458.834 64.4251C457.854 64.5717 454.191 64.5961 435.837 64.5961C423.818 64.5961 413.992 64.5717 413.992 64.535C413.992 64.4984 414.139 64.1076 414.323 63.6435C414.507 63.1917 414.837 62.4955 415.07 62.0925C415.291 61.6895 415.732 61.03 416.05 60.627C416.369 60.224 416.847 59.65 417.116 59.3691C417.386 59.076 417.962 58.5387 418.403 58.1845C418.844 57.8304 419.616 57.293 420.118 56.9755C420.62 56.6702 421.588 56.1939 422.262 55.9252C422.936 55.6687 423.879 55.3634 424.345 55.2535Z" fill="white"/>
<path d="M469.885 54.8509C469.431 54.8387 468.905 54.8019 468.696 54.7774C468.488 54.7651 468.843 54.7284 469.468 54.7284C470.081 54.7161 470.62 54.7406 470.644 54.7897C470.669 54.8509 470.326 54.8754 469.885 54.8509Z" fill="white" fill-opacity="0.6"/>
<path d="M458.527 54.7895C453.21 54.8141 444.524 54.8141 439.231 54.7895C433.938 54.7773 438.3 54.765 448.91 54.765C459.52 54.765 463.845 54.7773 458.527 54.7895Z" fill="white" fill-opacity="0.6"/>
<path d="M441.816 50.858C422.164 50.858 419.579 50.8335 419.542 50.6742C419.505 50.5394 419.517 50.5394 419.591 50.6374C419.664 50.76 424.516 50.7967 464.041 50.858H441.816Z" fill="white" fill-opacity="0.2"/>
<path d="M430.777 41.3312C431.279 41.2335 431.855 41.1358 432.063 41.1114C432.271 41.087 442.649 41.0503 477.824 41.0259L477.567 41.6732C477.432 42.0151 477.126 42.6624 476.893 43.102C476.66 43.5417 476.243 44.2012 475.949 44.5798C475.668 44.9583 475.19 45.5323 474.884 45.8621C474.577 46.1918 474.026 46.7292 473.658 47.0589C473.291 47.3886 472.592 47.9016 472.127 48.2069C471.661 48.5122 470.914 48.9396 470.473 49.1472C470.032 49.3671 469.26 49.6846 468.758 49.8556C468.255 50.0265 467.447 50.2464 466.981 50.3563C466.515 50.4662 465.486 50.6005 464.714 50.6738C463.832 50.7471 455.256 50.7959 441.534 50.7959C420.865 50.7959 419.75 50.7837 419.75 50.5883C419.75 50.4662 420.019 49.8189 420.35 49.1472C420.669 48.4756 421.269 47.4863 421.673 46.949C422.078 46.4116 422.788 45.6178 423.254 45.1782C423.72 44.7385 424.455 44.1279 424.896 43.8104C425.337 43.5051 426.194 43.0043 426.795 42.699C427.395 42.3937 428.339 42.0029 428.878 41.8319C429.417 41.6487 430.274 41.4289 430.777 41.3312Z" fill="white"/>
<path d="M466.736 40.9894C460.598 41.0139 450.601 41.0139 444.499 40.9894C438.398 40.9771 443.421 40.9649 455.648 40.9649C467.876 40.9649 472.875 40.9771 466.736 40.9894Z" fill="white" fill-opacity="0.6"/>
<path d="M448.358 37.2038C435.629 37.2283 425.165 37.1915 425.116 37.1425C425.067 37.0935 435.494 37.0813 471.514 37.1793L448.358 37.2038Z" fill="white" fill-opacity="0.2"/>
<path d="M435.641 27.8975C436.303 27.7388 437.234 27.5434 437.699 27.4945C438.177 27.4335 448.849 27.3724 461.676 27.3602C474.406 27.3602 484.808 27.3846 484.808 27.4457C484.808 27.4945 484.551 28.0563 484.232 28.6914C483.926 29.3264 483.448 30.1813 483.166 30.5843C482.884 30.9873 482.223 31.7811 481.671 32.3551C481.132 32.9291 480.189 33.7351 479.589 34.1381C478.988 34.5534 478.082 35.0907 477.579 35.3472C477.077 35.6036 476.33 35.9334 475.925 36.0799C475.521 36.2387 474.835 36.4463 474.394 36.5562C473.953 36.6539 473.291 36.8127 472.924 36.886C472.409 37.0081 466.663 37.0447 448.763 37.0814C430.03 37.1058 425.264 37.0814 425.264 36.9715C425.264 36.886 425.484 36.3486 425.766 35.7746C426.048 35.2006 426.501 34.4068 426.771 34.0038C427.052 33.6008 427.591 32.9169 427.959 32.4772C428.339 32.0376 429.086 31.3293 429.625 30.9018C430.152 30.4744 430.949 29.9126 431.39 29.6561C431.831 29.3997 432.701 28.96 433.325 28.6914C433.938 28.4227 434.992 28.0685 435.641 27.8975Z" fill="white"/>
<path d="M473.72 27.3114C467.581 27.3359 457.498 27.3359 451.299 27.3114C445.099 27.2992 450.11 27.2869 462.448 27.2869C474.786 27.2869 479.858 27.2992 473.72 27.3114Z" fill="white" fill-opacity="0.6"/>
<path d="M466.613 23.1592C460.144 23.1837 449.498 23.1837 442.967 23.1592C436.437 23.1469 441.718 23.1347 454.729 23.1347C467.741 23.1347 473.082 23.1469 466.613 23.1592Z" fill="#090909" fill-opacity="0.5"/>
<path d="M443.641 13.56C444.217 13.4745 445.014 13.4012 445.418 13.389C445.822 13.3646 456.665 13.3402 492.894 13.3035L492.637 13.9386C492.502 14.2927 492.134 15.0255 491.816 15.5628C491.497 16.1002 490.909 16.9306 490.505 17.3947C490.101 17.8588 489.5 18.4938 489.169 18.7992C488.839 19.1045 488.287 19.5563 487.944 19.8128C487.601 20.0693 486.854 20.5456 486.278 20.8631C485.702 21.1928 484.71 21.6569 484.073 21.8889C483.436 22.1332 482.553 22.4141 482.112 22.524C481.671 22.6339 480.74 22.8049 480.03 22.9026C478.964 23.0369 474.577 23.0735 454.95 23.0735C435.984 23.0735 431.144 23.0369 431.144 22.9148C431.144 22.8415 431.402 22.2675 431.708 21.6691C432.014 21.0707 432.553 20.1792 432.909 19.7151C433.264 19.251 433.962 18.4572 434.465 17.9687C434.967 17.4802 435.788 16.7841 436.29 16.4299C436.793 16.0758 437.515 15.6117 437.883 15.4163C438.251 15.2209 439.059 14.8545 439.66 14.6103C440.26 14.366 441.179 14.0607 441.681 13.9386C442.183 13.8042 443.066 13.6333 443.641 13.56Z" fill="white"/>
<path d="M492.931 13.463C492.857 13.3405 487.736 13.3038 469.371 13.2792L445.908 13.2425H469.42C490.223 13.2425 492.943 13.267 492.98 13.4263C493.017 13.561 493.005 13.561 492.931 13.463Z" fill="white" fill-opacity="0.4"/>
<path d="M159.826 0.077579C156.322 0.102083 150.613 0.102083 147.145 0.077579C143.678 0.0653271 146.545 0.0530752 153.516 0.0530752C160.488 0.0530752 163.33 0.0653271 159.826 0.077579Z" fill="white" fill-opacity="0.5"/>
<path d="M218.942 0.077579C216.283 0.102083 211.958 0.102083 209.324 0.077579C206.69 0.0653271 208.87 0.0530752 214.163 0.0530752C219.456 0.0530752 221.6 0.0653271 218.942 0.077579Z" fill="white" fill-opacity="0.5"/>
<path d="M277.077 0.077579C273.916 0.102083 268.672 0.102083 265.437 0.077579C262.203 0.0653271 264.788 0.0530752 271.196 0.0530752C277.604 0.0530752 280.238 0.0653271 277.077 0.077579Z" fill="white" fill-opacity="0.5"/>
<path d="M330.372 0.077579C327.542 0.102083 322.887 0.102083 320.02 0.077579C317.153 0.0653271 319.468 0.0530752 325.165 0.0530752C330.863 0.0530752 333.203 0.0653271 330.372 0.077579Z" fill="white" fill-opacity="0.5"/>
<path d="M373.132 0.077579C371.515 0.102083 368.893 0.102083 367.312 0.077579C365.732 0.0653271 367.055 0.0530752 370.253 0.0530752C373.451 0.0530752 374.749 0.0653271 373.132 0.077579Z" fill="white" fill-opacity="0.5"/>
<path d="M392.649 0.138889C390.333 0.126637 387.393 0.102133 386.119 0.0776295C384.845 0.0653776 386.731 0.0408738 390.309 0.01637C393.899 0.00411811 396.839 0.0286219 396.839 0.0898814C396.839 0.138889 394.952 0.163393 392.649 0.138889Z" fill="white" fill-opacity="0.5"/>
<path d="M448.174 0.468132C448.812 0.333794 449.914 0.175031 450.625 0.126181C451.335 0.0651184 462.73 0.0162682 475.95 0.00405569C499.927 -0.00815684 500 -0.00815683 500 0.236094C500 0.370432 499.792 0.883358 499.534 1.37186C499.277 1.84815 498.799 2.64196 498.469 3.10604C498.138 3.58233 497.39 4.42499 496.815 4.98677C496.239 5.54855 495.271 6.34236 494.67 6.74538C494.07 7.13618 493.139 7.68574 492.612 7.9422C492.098 8.21088 491.154 8.58947 490.542 8.79708C489.917 9.00469 488.875 9.2978 488.238 9.43213C487.087 9.68838 486.94 9.6886 461.874 9.72514L461.811 9.72523C447.905 9.74966 436.535 9.73745 436.535 9.70081C436.535 9.66417 436.792 9.12682 437.099 8.51619C437.417 7.89335 437.932 7.02626 438.263 6.58661C438.581 6.14696 439.28 5.37757 439.806 4.86465C440.333 4.35172 441.093 3.69224 441.497 3.37472C441.901 3.0694 442.808 2.51984 443.519 2.15346C444.229 1.77487 445.308 1.29858 445.908 1.09097C446.508 0.883358 447.537 0.60247 448.174 0.468132Z" fill="white"/>
<path fill-rule="evenodd" clip-rule="evenodd" d="M88.3485 0.114331H99.0934C108.638 0.102118 109.851 0.126543 109.985 0.297519C110.12 0.444069 110.096 0.651682 109.887 1.37222C109.753 1.84851 109.593 2.43471 109.52 2.64233C109.459 2.86215 109.36 3.22853 109.299 3.43614C109.238 3.65597 108.932 4.71846 108.613 5.79316C108.295 6.86786 107.988 7.90593 107.939 8.11354C107.89 8.32116 107.363 10.1042 106.775 12.0826C106.187 14.061 105.636 15.9662 105.55 16.2959C105.452 16.6257 105.305 17.1508 105.207 17.4561C105.109 17.7614 104.938 18.311 104.84 18.6774C104.729 19.0438 104.423 20.094 104.166 20.9978C103.896 21.9015 103.651 22.7564 103.614 22.8907C103.578 23.025 103.271 24.0998 102.928 25.2722C102.573 26.4446 102.242 27.5681 102.181 27.7757C102.107 27.9833 101.899 28.6917 101.703 29.3634C101.507 30.035 101.323 30.6945 101.286 30.8289C101.25 30.9632 101.127 31.3784 101.017 31.7448C100.907 32.1112 100.772 32.5875 100.711 32.7829C100.662 32.9783 100.331 34.114 99.9878 35.2864C99.6447 36.4588 99.3139 37.5946 99.2527 37.79C99.1792 37.9854 98.8484 39.1212 98.5053 40.2936C98.15 41.466 97.8315 42.6017 97.7702 42.7971C97.7212 42.9925 97.4149 44.0428 97.0963 45.1175C96.7778 46.1922 96.4715 47.2425 96.4225 47.4379C96.3735 47.6333 96.0672 48.6836 95.7486 49.7583C95.4301 50.833 95.1238 51.8833 95.0748 52.0787C95.0258 52.2741 94.8542 52.8236 94.7195 53.2999C94.5724 53.7762 94.3764 54.4357 94.2784 54.7654C94.1804 55.0952 93.9844 55.7546 93.8373 56.2309C93.7026 56.7072 93.531 57.2568 93.482 57.4522C93.433 57.6476 93.1267 58.6979 92.8082 59.7726C92.4896 60.8473 92.1833 61.8975 92.1343 62.0929C92.0731 62.2883 91.7055 63.6195 91.2889 65.024C90.8846 66.4284 90.4681 67.8328 90.37 68.1382C90.2598 68.4435 90.0392 69.2129 89.8677 69.8479C89.6962 70.483 89.4757 71.2279 89.3899 71.4966C89.2919 71.7653 89.1326 72.2904 89.0346 72.6568C88.9243 73.0232 88.8018 73.475 88.7038 74.0002H469.861L467.104 77.7616C465.585 79.8256 464.004 81.975 463.588 82.549C463.171 83.1229 462.546 83.9656 462.203 84.4419C461.86 84.9182 461.1 85.9196 459.508 88.0568L84.4769 88.0446L84.2441 88.8018C84.1093 89.2292 83.9623 89.7055 83.9133 89.8765C83.8643 90.0474 83.509 91.1954 83.1292 92.4411C82.7494 93.6868 82.3818 94.8714 82.3328 95.0668C82.2715 95.2622 81.9775 96.288 81.6589 97.3261C81.3404 98.3642 81.0463 99.39 80.9851 99.5854C80.9361 99.7808 80.7033 100.562 80.0539 102.639L62.4847 102.7V102.358C62.4847 102.174 62.7298 101.283 63.0238 100.379C63.3178 99.4755 63.6976 98.2054 63.8692 97.5704C64.053 96.9353 64.2735 96.0804 64.3715 95.6774C64.4695 95.2744 64.7023 94.4806 64.8738 93.9066C65.0454 93.3326 65.4374 92.0381 65.7437 91.0367C66.05 90.023 66.3441 89.0338 66.3931 88.8384C66.4543 88.643 66.5278 88.3743 66.5769 88.2522C66.6504 88.0568 66.0623 88.0446 44.0456 88.0324L43.433 88.9239C43.1022 89.4124 42.7469 89.9009 42.6489 89.9986C42.5631 90.0963 42.3058 90.426 42.1098 90.7313C41.9015 91.0367 41.4482 91.6595 41.1051 92.1358C40.7621 92.6121 39.4756 94.3585 38.2627 96.0438C37.0498 97.7169 34.9179 100.66 33.5335 102.578C32.1367 104.495 30.8993 106.192 30.789 106.351C30.6665 106.51 30.397 106.876 30.2009 107.157C30.0049 107.45 29.4413 108.22 28.9513 108.879C28.4612 109.551 27.5055 110.858 26.8317 111.798C26.1456 112.738 25.484 113.642 25.3614 113.813C25.2389 113.984 24.8591 114.485 24.5406 114.937C24.222 115.388 23.2174 116.781 20.7057 120.286H10.3529C2.15633 120.286 0 120.249 0 120.127C0 120.054 0.51458 119.26 1.16393 118.393C1.80103 117.526 2.42588 116.671 2.53614 116.512C2.65866 116.353 3.19775 115.633 3.73683 114.912C4.27591 114.192 5.57462 112.433 6.61603 111.004C7.65744 109.588 8.78462 108.049 9.12767 107.585C9.45847 107.121 10.3774 105.887 11.1492 104.837C11.9211 103.774 12.7542 102.651 12.987 102.333C13.2198 102.004 16.1113 98.0833 19.4193 93.6013C22.715 89.1193 25.6187 85.1991 25.8515 84.8693C26.0843 84.5518 27.9343 82.0482 29.9559 79.3126C31.9775 76.577 33.7908 74.1223 33.999 73.8414C34.1951 73.5605 34.9914 72.4736 35.7633 71.4355C36.5474 70.3975 38.1034 68.2725 39.2428 66.7337C40.37 65.1949 41.5952 63.5096 41.9628 63.0089C42.3303 62.5082 43.2247 61.2869 43.9476 60.3099C44.6827 59.3207 47.1208 55.9989 49.3752 52.9335C51.6295 49.8682 54.0922 46.522 54.8518 45.4961C55.6114 44.4825 56.273 43.6032 56.322 43.5299C56.3833 43.4566 58.025 41.2339 59.9731 38.5838C61.9211 35.9337 63.6854 33.54 63.8937 33.2592C64.0897 32.9905 64.8371 31.9646 65.5477 31.012C66.2583 30.0473 67.312 28.6184 67.8878 27.849C68.4636 27.0674 70.6077 24.1486 72.6538 21.3641C74.6876 18.5797 76.5621 16.0151 76.8194 15.6853C77.0645 15.3434 77.8241 14.3297 78.498 13.426C79.1718 12.5223 80.2622 11.0323 80.9361 10.1286C81.6099 9.22488 82.296 8.28452 82.4553 8.05248C82.6146 7.82044 83.3865 6.77016 84.1583 5.7321C84.9302 4.69403 86.1921 2.99649 86.9518 1.97064L88.3485 0.114331ZM79.7721 39.9516C79.2698 40.6477 78.3999 41.8446 77.8241 42.6262C77.2605 43.3956 76.5867 44.2993 76.3416 44.6412C76.0843 44.971 75.484 45.8014 74.9939 46.4731C74.4916 47.1448 73.928 47.9142 73.732 48.1829C73.5359 48.4393 72.7151 49.5751 71.9064 50.6864C71.1101 51.7856 70.3259 52.8603 70.1789 53.0557C70.0196 53.2511 69.6521 53.7518 69.3458 54.1548C69.0395 54.5578 68.5984 55.1684 68.3656 55.5104C68.1451 55.8401 67.8755 56.1943 67.7775 56.3042C67.6795 56.4019 67.508 56.6217 67.41 56.7927C67.2997 56.9515 66.4788 58.1117 65.5722 59.3573C64.6656 60.5908 63.7957 61.7754 63.6364 61.983C63.4771 62.1784 63.3056 62.3983 63.2566 62.4715C63.1953 62.5326 62.9625 62.8623 62.742 63.2043C62.5092 63.534 62.2887 63.8393 62.2397 63.876C62.2029 63.9004 61.8109 64.4378 61.382 65.0484C60.941 65.659 59.4952 67.6619 58.1475 69.4815C56.7998 71.3134 55.5379 73.011 55.3541 73.2796L55.0233 73.7681C69.0272 73.7681 70.7057 73.7315 70.7425 73.6094C70.7793 73.5239 71.1346 72.3026 71.5511 70.8982C71.9677 69.4815 72.3597 68.1626 72.4088 67.9672C72.4578 67.7596 72.7641 66.7093 73.0826 65.6468C73.4012 64.5721 73.9647 62.6425 74.3323 61.3724C74.7121 60.0901 75.0552 58.8811 75.1164 58.6856C75.1654 58.478 75.435 57.5743 75.7045 56.6706C75.9741 55.7546 76.5621 53.7518 77.0032 52.213C77.4565 50.662 77.8731 49.2331 77.9221 49.0377C77.9834 48.8301 78.1672 48.1951 78.3387 47.6333C78.498 47.0593 78.8165 45.9602 79.037 45.1908C79.2576 44.4092 79.5639 43.3711 79.7109 42.8704C79.8579 42.3575 80.1642 41.3194 80.3725 40.55C80.593 39.7684 80.8013 38.9868 80.8503 38.8036C80.8993 38.6082 80.9361 38.4373 80.9238 38.4128C80.9238 38.3762 80.8626 38.4373 80.8013 38.5228C80.7401 38.6205 80.2745 39.2555 79.7721 39.9516Z" fill="white"/>
<path d="M66.834 73.8411C64.6777 73.8656 61.0879 73.8656 58.8703 73.8411C56.6527 73.8288 58.4047 73.8166 62.7909 73.8166C67.1771 73.8166 68.9904 73.8288 66.834 73.8411Z" fill="white" fill-opacity="0.2"/>
<path fill-rule="evenodd" clip-rule="evenodd" d="M167.422 0.175494L168.402 0.517445C168.942 0.712846 169.628 1.01816 169.934 1.21356C170.24 1.39675 170.706 1.79976 170.988 2.09286C171.257 2.37375 171.625 2.86225 171.796 3.16757C171.98 3.47288 172.201 4.02244 172.311 4.38882C172.433 4.79183 172.507 5.52458 172.507 6.2207C172.507 7.08779 172.409 7.79612 172.127 9.02958C171.919 9.93331 171.698 10.8737 171.649 11.1057C171.6 11.3378 171.38 12.2415 171.159 13.1208C170.951 14.0001 170.73 14.9282 170.669 15.1969C170.62 15.4656 170.314 16.7601 169.995 18.0669C169.677 19.3736 169.37 20.6437 169.321 20.8757C169.272 21.1078 168.966 22.4023 168.647 23.7457C168.329 25.0891 168.023 26.3836 167.974 26.6156C167.925 26.8477 167.814 27.2873 167.753 27.5926C167.68 27.898 167.533 28.533 167.422 28.9971C167.312 29.4612 167.153 30.1328 167.055 30.4626C166.957 30.7923 166.626 31.4152 166.32 31.8426C166.013 32.2578 165.536 32.7585 165.241 32.9539C164.96 33.1493 164.421 33.418 164.053 33.5646C163.685 33.6989 163.024 33.8455 161.786 33.9676L162.522 34.3095C162.926 34.4927 163.453 34.8347 163.685 35.0545C163.93 35.2865 164.237 35.714 164.396 36.0193C164.543 36.3246 164.739 36.8864 164.849 37.2772C164.947 37.6558 165.033 38.2664 165.033 38.6083C165.033 38.9625 164.947 39.6708 164.862 40.1715C164.764 40.6723 164.433 42.1866 164.114 43.53C163.796 44.8734 163.489 46.1679 163.44 46.3999C163.391 46.632 163.085 47.9265 162.767 49.2699C162.448 50.6133 162.142 51.9078 162.093 52.1398C162.044 52.3719 161.823 53.3122 161.603 54.216C161.382 55.1197 161.162 56.0845 161.1 56.3532C161.051 56.6218 160.917 57.1958 160.806 57.6355C160.696 58.0751 160.561 58.6491 160.5 58.9178C160.439 59.1865 160.279 59.907 160.132 60.5054C159.985 61.1038 159.814 61.8244 159.765 62.0931C159.704 62.3617 159.544 63.0212 159.397 63.5586C159.263 64.0959 159.152 64.5478 159.152 64.56C159.152 64.5844 156.163 64.5966 145.859 64.5966L145.932 64.1325C145.981 63.8883 146.325 62.3373 146.717 60.6886C147.109 59.0399 147.464 57.5011 147.525 57.2691C147.574 57.0371 147.795 56.0967 148.003 55.193C148.224 54.2892 148.444 53.3489 148.493 53.1168C148.554 52.8848 148.677 52.3352 148.787 51.8956C148.885 51.4559 149.167 50.2713 149.4 49.2699C149.633 48.2562 149.963 46.864 150.135 46.1557C150.306 45.4474 150.613 44.1284 150.833 43.2247C151.042 42.321 151.348 41.0264 151.507 40.3547C151.666 39.683 151.801 38.8404 151.801 38.4862C151.801 37.9122 151.764 37.8145 150.943 37.1184H145.675L145.553 37.5703C145.491 37.8267 145.295 38.6694 145.112 39.4388C144.94 40.2082 144.744 41.0631 144.695 41.3317C144.634 41.6004 144.278 43.1148 143.911 44.6902C143.531 46.2656 143.176 47.78 143.115 48.0486C143.053 48.3173 142.784 49.4653 142.514 50.6133C142.245 51.7612 141.767 53.7885 141.448 55.1319C141.13 56.4753 140.823 57.7698 140.774 58.0019C140.725 58.2339 140.419 59.5284 140.101 60.8718C139.782 62.2152 139.476 63.5586 139.402 63.8639C139.341 64.1692 139.267 64.4501 139.231 64.4989C139.206 64.56 136.18 64.5966 132.504 64.5966C128.829 64.5966 125.827 64.5844 125.827 64.56C125.827 64.5478 125.888 64.3402 125.962 64.1081C126.035 63.8761 126.146 63.4609 126.195 63.1922C126.244 62.9235 126.501 61.8488 126.746 60.8107C126.991 59.7727 127.322 58.3438 127.493 57.6355C127.665 56.9271 127.849 56.1578 127.91 55.9257C127.971 55.6937 128.253 54.5091 128.535 53.3C128.804 52.091 129.086 50.9064 129.135 50.6743C129.184 50.4423 129.49 49.1478 129.809 47.8044C130.128 46.461 130.434 45.1665 130.483 44.9344C130.532 44.7024 130.887 43.1636 131.279 41.5149C131.671 39.8662 132.027 38.3275 132.076 38.0954C132.125 37.8634 132.406 36.6788 132.688 35.4697C132.958 34.2607 133.239 33.1005 133.301 32.9051C133.362 32.7097 133.583 31.7693 133.791 30.829C134.011 29.8886 134.318 28.5452 134.477 27.8369C134.636 27.1286 134.832 26.3592 134.893 26.1271C134.955 25.8951 135.053 25.4554 135.126 25.1501C135.2 24.8448 135.371 24.0999 135.506 23.5014C135.653 22.903 135.898 21.8039 136.07 21.0589C136.241 20.314 136.425 19.5568 136.486 19.3492C136.535 19.1416 136.756 18.2134 136.964 17.273C137.185 16.3327 137.43 15.258 137.528 14.8916C137.613 14.5252 137.748 13.9757 137.822 13.6703C137.895 13.365 138.116 12.4369 138.312 11.5942C138.508 10.7515 138.802 9.45702 138.973 8.72427C139.157 7.9793 139.463 6.63593 139.684 5.7322C139.892 4.82847 140.199 3.50952 140.358 2.80119C140.529 2.09286 140.713 1.27462 140.787 0.969309C140.86 0.663996 140.946 0.34647 140.97 0.260982C141.007 0.138857 143.58 0.114432 167.422 0.175494ZM151.813 11.2278C151.752 11.5332 151.617 12.1071 151.519 12.5102C151.421 12.9132 151.164 13.9879 150.943 14.8916C150.735 15.7953 150.502 16.7601 150.453 17.0288C150.392 17.2975 150.294 17.7371 150.233 18.0058C150.159 18.2745 149.853 19.5934 149.535 20.9368C149.216 22.2802 148.91 23.5747 148.861 23.8068C148.812 24.0388 148.591 24.9792 148.383 25.8829C148.175 26.7866 148.003 27.5438 148.003 27.556C148.003 27.5804 149.093 27.5926 150.429 27.5926C152.414 27.5926 152.965 27.556 153.504 27.385C153.994 27.2263 154.288 27.0187 154.644 26.6156C154.901 26.3103 155.195 25.8218 155.281 25.5165C155.379 25.2112 155.624 24.222 155.844 23.3183C156.053 22.4145 156.359 21.12 156.518 20.4483C156.665 19.7766 156.971 18.4821 157.18 17.5784C157.388 16.6746 157.621 15.7343 157.682 15.5022C157.743 15.2702 157.915 14.6107 158.05 14.0367C158.184 13.4627 158.331 12.7544 158.368 12.4491C158.429 12.0705 158.393 11.7896 158.258 11.5332C158.16 11.3255 157.976 11.0813 157.854 10.9714C157.719 10.8737 157.4 10.7149 157.131 10.6416C156.837 10.5561 155.709 10.4951 154.35 10.4951C153.088 10.4951 152.034 10.5317 151.997 10.5806C151.96 10.6416 151.887 10.9225 151.813 11.2278Z" fill="white"/>
<path d="M155.232 10.4582C154.595 10.4827 153.602 10.4827 153.027 10.4582C152.451 10.4459 152.978 10.4214 154.19 10.4214C155.403 10.4214 155.869 10.4459 155.232 10.4582Z" fill="white" fill-opacity="0.6"/>
<path fill-rule="evenodd" clip-rule="evenodd" d="M204.631 0.11441H223.72L223.658 0.639549C223.622 0.920437 223.536 1.97072 223.462 2.98436C223.389 3.998 223.291 5.50014 223.23 6.3428C223.168 7.18547 223.07 8.52885 222.997 9.33487C222.936 10.1409 222.789 11.9484 222.678 13.365C222.58 14.7817 222.433 16.699 222.36 17.6394C222.298 18.5798 222.176 20.0086 222.115 20.8147C222.041 21.6207 221.931 23.0251 221.882 23.9289C221.821 24.8326 221.735 25.8829 221.698 26.2492C221.661 26.6156 221.527 28.4109 221.392 30.2183C221.257 32.038 221.085 34.3095 221.012 35.2865C220.951 36.2635 220.828 37.6924 220.767 38.4618C220.693 39.2312 220.583 40.6112 220.522 41.5149C220.461 42.4186 220.35 43.8841 220.289 44.7512C220.228 45.6183 220.118 47.0228 220.056 47.8654C219.983 48.7081 219.848 50.4911 219.75 51.8345C219.64 53.1779 219.48 55.4616 219.37 56.9027C219.26 58.3438 219.125 59.9925 219.064 60.5665C218.99 61.1404 218.941 61.9343 218.941 62.3373C218.941 62.7403 218.905 63.412 218.758 64.5966H212.105C205.844 64.5966 205.464 64.5844 205.526 64.389C205.55 64.2669 205.636 63.5952 205.709 62.8868C205.783 62.1785 205.893 61.1649 205.954 60.6275C206.016 60.0902 206.175 58.7224 206.31 57.5744C206.444 56.4264 206.616 54.9975 206.677 54.3991C206.751 53.8007 206.812 53.2267 206.812 53.1534C206.812 53.0313 205.856 53.0069 197.929 53.0557L196.484 57.3301C195.687 59.6872 195.001 61.7144 194.964 61.8488C194.94 61.9831 194.866 62.2029 194.805 62.3373C194.744 62.4716 194.56 63.0334 194.07 64.5966H187.086C180.47 64.5966 180.115 64.5844 180.213 64.389C180.287 64.2669 180.458 63.8394 180.605 63.4364C180.752 63.0334 180.997 62.3495 181.157 61.9098C181.316 61.4702 181.5 61.0061 181.561 60.8718C181.634 60.7374 182.051 59.6383 182.492 58.4293C182.945 57.2202 183.362 56.1211 183.411 55.9868C183.472 55.8524 183.778 55.0586 184.085 54.2159C184.403 53.3733 184.71 52.5795 184.759 52.4451C184.82 52.3108 185.04 51.7368 185.249 51.1628C185.457 50.5888 185.714 49.9049 185.825 49.6362C185.923 49.3676 186.057 49.0378 186.106 48.9035C186.168 48.7691 186.351 48.2807 186.535 47.8044C186.719 47.3281 186.952 46.7052 187.05 46.3999C187.148 46.0946 187.307 45.6794 187.393 45.484C187.479 45.2886 187.785 44.4825 188.067 43.7132C188.361 42.9438 188.655 42.1377 188.74 41.9423C188.826 41.7469 189.267 40.5868 189.721 39.3777C190.162 38.1687 190.578 37.0695 190.639 36.9352C190.701 36.8009 191.007 36.007 191.313 35.1644C191.632 34.3217 191.938 33.5279 191.999 33.3936C192.061 33.2592 192.294 32.6242 192.526 31.9891C192.759 31.3541 193.004 30.6702 193.09 30.4626C193.176 30.2549 193.286 29.9863 193.347 29.8519C193.396 29.7176 193.678 28.9726 193.96 28.2032C194.242 27.4339 194.536 26.64 194.634 26.4324C194.719 26.2248 194.989 25.5165 195.234 24.8448C195.491 24.1731 196.153 22.3901 196.729 20.8757C197.292 19.3614 197.831 17.9691 197.929 17.7615C198.015 17.5539 198.211 17.041 198.358 16.6013C198.505 16.1617 198.726 15.5633 198.848 15.258C198.971 14.9526 199.302 14.0978 199.583 13.365C199.877 12.6323 200.171 11.8629 200.257 11.6553C200.343 11.4476 200.637 10.6538 200.931 9.88444C201.213 9.11505 201.482 8.37008 201.544 8.23575C201.593 8.10141 201.789 7.61291 201.973 7.13662C202.156 6.66033 202.389 6.03749 202.487 5.73218C202.585 5.42686 202.744 5.01164 202.83 4.81624C202.928 4.62084 203.222 3.81481 203.516 3.04542C203.798 2.27603 204.092 1.48221 204.178 1.2746C204.264 1.0792 204.398 0.725037 204.484 0.517424L204.631 0.11441ZM208.772 20.9856C208.025 23.1717 207.106 25.834 206.726 26.9087C206.359 27.9956 206.028 28.9726 205.991 29.107C205.954 29.2413 205.881 29.4733 205.832 29.5955C205.771 29.7298 205.391 30.8289 204.986 32.038C204.582 33.247 203.688 35.8605 203.014 37.8389C202.328 39.8296 201.642 41.8446 201.47 42.3331C201.311 42.8216 201.176 43.2491 201.176 43.2735C201.176 43.3101 202.634 43.3346 204.423 43.3346H207.67C207.755 42.9193 207.804 42.4308 207.841 41.9912C207.89 41.5638 207.976 40.7089 208.037 40.0982C208.098 39.4998 208.27 38.0465 208.405 36.8619C208.552 35.6895 208.687 34.4561 208.723 34.1141C208.748 33.7844 208.834 33.0638 208.895 32.5265C208.968 32.0013 209.091 30.8411 209.189 29.9618C209.287 29.0948 209.458 27.5804 209.569 26.6034C209.679 25.6386 209.838 24.1243 209.936 23.2449C210.034 22.3779 210.169 21.2299 210.23 20.6803C210.292 20.143 210.439 19.0194 210.537 18.1767C210.635 17.3463 210.745 16.3082 210.782 15.893C210.818 15.4778 210.831 15.1236 210.794 15.1236C210.769 15.1236 210.61 15.5511 210.439 16.0762C210.279 16.6013 209.52 18.8118 208.772 20.9978V20.9856Z" fill="white"/>
<path d="M256.923 0.529589C257.229 0.431888 257.805 0.309763 258.209 0.2487C258.613 0.187638 264.274 0.138787 270.804 0.126575C280.214 0.114362 282.652 0.151 282.652 0.273125C282.652 0.346401 282.566 0.724989 282.468 1.09137C282.37 1.45774 282.162 2.33704 281.99 3.04537C281.819 3.7537 281.574 4.79176 281.439 5.36575C281.304 5.93974 280.998 7.22206 280.753 8.2357C280.52 9.23713 280.263 10.3118 280.189 10.6171C280.116 10.9225 280.03 11.2644 280.005 11.3865C279.956 11.5819 279.491 11.5941 272.581 11.6308C265.474 11.6552 265.168 11.6674 264.703 11.8995C264.36 12.0704 264.139 12.3025 263.943 12.6933C263.796 12.9986 263.526 13.8779 263.343 14.6473C263.171 15.4167 262.975 16.2471 262.926 16.4792C262.877 16.7112 262.571 18.0057 262.252 19.3491C261.934 20.6925 261.627 22.0114 261.554 22.2801C261.493 22.5488 261.395 22.9884 261.333 23.2571C261.284 23.5258 261.052 24.4906 260.843 25.3943C260.623 26.298 260.365 27.3727 260.267 27.7758C260.169 28.1788 260.047 28.7283 259.986 28.997C259.937 29.2657 259.679 30.3404 259.447 31.3785C259.202 32.4165 258.92 33.5767 258.822 33.9431C258.736 34.3095 258.601 34.859 258.528 35.1643C258.454 35.4697 258.221 36.4589 258.013 37.3626C257.805 38.2663 257.413 39.915 257.143 41.0264C256.886 42.1377 256.592 43.3956 256.482 43.8352C256.384 44.2749 256.249 44.8245 256.188 45.0565C256.126 45.2885 256.053 45.6183 256.016 45.7893C255.992 45.9602 255.82 46.693 255.636 47.4379C255.465 48.1829 255.171 49.3553 254.999 50.0636C254.828 50.772 254.681 51.6757 254.668 52.0787C254.656 52.6038 254.717 52.9214 254.877 53.1534C254.987 53.3366 255.293 53.5808 255.55 53.6908C255.93 53.8739 256.469 53.9106 258.699 53.9472C260.182 53.9594 261.431 53.935 261.48 53.8862C261.529 53.8373 261.823 52.7138 262.13 51.407C262.435 50.1551 262.718 48.9144 262.795 48.5762L262.804 48.5371C262.865 48.2684 263.085 47.3036 263.294 46.3999C263.514 45.4961 263.735 44.5069 263.808 44.2016C263.87 43.8963 263.943 43.6276 263.968 43.591C263.992 43.5544 264.066 43.2857 264.127 42.9804C264.188 42.6751 264.494 41.3439 264.813 40.0249C265.119 38.6938 265.376 37.558 265.376 37.4847C265.376 37.4114 264.85 37.3626 262.742 37.3626L262.828 36.8375C262.865 36.5566 263.171 35.2498 263.477 33.9431C263.796 32.6363 264.102 31.3662 264.151 31.1342C264.2 30.9022 264.311 30.4259 264.384 30.0961C264.458 29.7664 264.703 28.7161 265.327 26.066L273.009 26.0294C280.25 26.0049 280.691 26.0172 280.691 26.2126C280.691 26.3347 280.63 26.6278 280.569 26.8598C280.495 27.0919 280.385 27.5071 280.336 27.7758L280.325 27.8252C280.239 28.1999 279.9 29.6895 279.527 31.2563C279.135 32.905 278.78 34.4438 278.731 34.6758C278.682 34.9079 278.376 36.2024 278.057 37.5458C277.739 38.8892 277.432 40.1837 277.383 40.4157C277.334 40.6478 277.028 41.9423 276.71 43.2857C276.391 44.6291 276.072 45.948 276.011 46.2167C275.95 46.4854 275.852 46.925 275.791 47.1937C275.742 47.4624 275.509 48.4272 275.301 49.3309C275.08 50.2346 274.823 51.3093 274.725 51.7123C274.627 52.1153 274.504 52.6649 274.443 52.9336C274.394 53.2023 274.161 54.1671 273.953 55.0708C273.732 55.9745 273.512 56.9149 273.463 57.1469C273.414 57.3789 273.303 57.843 273.218 58.185C273.132 58.5147 273.022 58.991 272.96 59.223C272.899 59.4551 272.74 60.1756 272.593 60.8107C272.446 61.4457 272.262 62.0319 272.189 62.1052C272.115 62.1907 271.698 62.4349 271.257 62.667C270.816 62.9112 269.799 63.4364 268.991 63.8638C268.182 64.2912 267.19 64.8042 266.785 65.024C266.381 65.2438 265.229 65.8422 264.213 66.3674C263.208 66.8925 261.738 67.6497 260.966 68.0527C260.194 68.4557 259.214 68.9686 258.797 69.1885C258.368 69.4205 257.989 69.5915 257.952 69.5671C257.915 69.5548 258.025 68.9076 258.197 68.1382C258.368 67.3688 258.601 66.3543 258.712 65.878C258.822 65.402 258.932 64.9262 258.956 64.8042C259.005 64.6088 258.711 64.5966 254.141 64.5966C250.233 64.5966 249.057 64.5599 248.224 64.4134C247.648 64.3035 246.852 64.1081 246.447 63.9615C246.043 63.8272 245.467 63.5829 245.161 63.4364C244.855 63.2898 244.279 62.899 243.874 62.5815C243.47 62.2518 242.919 61.7144 242.637 61.3724C242.355 61.0305 241.988 60.4687 241.816 60.139C241.645 59.797 241.424 59.2475 241.314 58.9177C241.216 58.5758 241.069 57.8064 240.983 57.208C240.873 56.3775 240.873 55.8035 240.983 54.8265C241.069 54.1182 241.216 53.19 241.314 52.7504C241.412 52.3107 241.547 51.7612 241.608 51.5291C241.669 51.2971 241.804 50.7353 241.914 50.2712C242.012 49.8194 242.184 49.0866 242.282 48.6348C242.392 48.1707 242.527 47.6089 242.588 47.3769C242.649 47.1448 242.759 46.6686 242.833 46.3388C242.906 46.0091 243.017 45.5084 243.078 45.2397C243.139 44.971 243.348 44.0306 243.556 43.1636C243.764 42.2965 244.021 41.2218 244.132 40.7821C244.23 40.3425 244.364 39.7685 244.426 39.4998C244.475 39.2311 244.61 38.6571 244.72 38.2175C244.83 37.7778 245.026 36.923 245.161 36.3245C245.308 35.7261 245.504 34.8712 245.602 34.4316C245.712 33.9919 245.835 33.4424 245.896 33.2103C245.957 32.9783 246.092 32.4043 246.202 31.928C246.313 31.4517 246.472 30.7434 246.57 30.3404C246.668 29.9374 246.864 29.1069 247.011 28.5085C247.158 27.9101 247.317 27.1896 247.378 26.9209C247.425 26.6636 247.63 25.8019 247.83 24.9573L247.856 24.8447C248.065 23.9654 248.273 23.0373 248.334 22.7686C248.395 22.4999 248.506 21.9992 248.591 21.6695C248.677 21.3398 248.787 20.8635 248.849 20.6314C248.91 20.3994 249.118 19.5201 249.314 18.6774C249.51 17.8348 249.804 16.5524 249.976 15.8075C250.16 15.0747 250.466 13.7191 250.686 12.8154C250.895 11.9117 251.201 10.6171 251.348 9.94545C251.507 9.27376 251.789 8.08915 251.961 7.31976C252.144 6.55037 252.402 5.56115 252.536 5.1215C252.659 4.68185 252.941 3.99795 253.161 3.59494C253.37 3.19192 253.909 2.50802 254.35 2.05616C254.791 1.6165 255.416 1.14022 255.759 0.981452C256.09 0.82269 256.616 0.615076 256.923 0.529589Z" fill="white"/>
<path fill-rule="evenodd" clip-rule="evenodd" d="M324.92 0.126642C331.757 0.114429 335.763 0.151067 336.192 0.236555C336.56 0.30983 337.197 0.517443 337.601 0.700631C338.03 0.908244 338.618 1.32347 339.01 1.71427C339.378 2.08065 339.843 2.7157 340.039 3.1065C340.235 3.50951 340.468 4.16899 340.554 4.57201C340.64 4.97502 340.713 5.57343 340.713 5.91538C340.713 6.24512 340.603 7.01451 340.468 7.62514C340.333 8.23577 340.174 8.94409 340.113 9.21277C340.064 9.48145 339.819 10.5195 339.574 11.5332C339.341 12.5346 339.022 13.8535 338.875 14.4642C338.728 15.0748 338.569 15.7587 338.52 15.9907C338.459 16.2228 338.165 17.5173 337.846 18.8607C337.528 20.2041 337.221 21.4986 337.172 21.7306C337.123 21.9627 336.817 23.2572 336.498 24.6006C336.18 25.9439 335.874 27.2385 335.825 27.4705C335.776 27.7025 335.42 29.2413 335.028 30.89C334.636 32.5387 334.281 34.0775 334.22 34.3095C334.171 34.5416 333.95 35.4819 333.742 36.3857C333.521 37.2894 333.301 38.2298 333.252 38.4618C333.203 38.6938 333.092 39.1579 333.007 39.4999C332.921 39.8296 332.811 40.3059 332.749 40.5379C332.7 40.77 332.566 41.3317 332.455 41.7836C332.357 42.2477 332.186 42.9804 332.076 43.4323C331.978 43.8964 331.757 44.8123 331.598 45.484C331.426 46.1557 331.132 47.4502 330.912 48.354C330.703 49.2577 330.397 50.5522 330.25 51.2239C330.091 51.8956 329.784 53.1901 329.576 54.0938C329.356 54.9976 329.049 56.3165 328.878 57.0249C328.719 57.7332 328.498 58.5514 328.388 58.8567C328.29 59.162 328.008 59.7849 327.763 60.2612C327.481 60.7985 326.991 61.4458 326.452 61.9831C325.766 62.667 325.361 62.9479 324.43 63.3998C323.793 63.7051 323.07 64.0104 322.838 64.0837C322.605 64.157 321.943 64.3035 321.367 64.4134C320.461 64.5722 319.04 64.5966 301.09 64.5356L300.233 64.2425C299.767 64.0715 299.02 63.7173 298.591 63.4486C298.15 63.1678 297.537 62.6426 297.207 62.2762C296.876 61.9099 296.484 61.3237 296.324 60.9939C296.165 60.652 295.945 60.0413 295.834 59.6139C295.724 59.1987 295.638 58.4537 295.638 57.9774C295.638 57.3424 295.81 56.3287 296.263 54.3992C296.606 52.9214 296.937 51.517 296.986 51.285C297.035 51.0529 297.39 49.5141 297.782 47.8655C298.175 46.2168 298.53 44.678 298.579 44.4459C298.628 44.2139 298.934 42.9194 299.253 41.576C299.571 40.2326 299.878 38.9381 299.927 38.706C299.976 38.474 300.196 37.5336 300.417 36.6299C300.637 35.7262 300.894 34.6271 300.992 34.1874C301.09 33.7478 301.225 33.1982 301.274 32.9662C301.336 32.7341 301.434 32.3189 301.495 32.0502C301.556 31.7815 301.74 31.0366 301.887 30.4015C302.034 29.7665 302.205 29.0215 302.267 28.7528C302.328 28.4842 302.463 27.9102 302.573 27.4705C302.671 27.0309 302.806 26.4569 302.867 26.1882C302.916 25.9195 303.161 24.8815 303.406 23.8678C303.639 22.8664 303.896 21.7917 303.982 21.4864C304.055 21.1811 304.166 20.7414 304.215 20.5094C304.264 20.2773 304.619 18.7385 305.011 17.0899C305.403 15.4412 305.758 13.9024 305.807 13.6703C305.856 13.4383 306.163 12.1682 306.469 10.8615C306.775 9.55472 307.057 8.3701 307.082 8.23577C307.118 8.10143 307.29 7.40531 307.461 6.68477C307.633 5.95202 307.866 5.13378 307.976 4.85289C308.086 4.55979 308.368 4.02244 308.601 3.65606C308.834 3.28969 309.275 2.7157 309.593 2.39817C309.9 2.06843 310.426 1.62878 310.769 1.40896C311.1 1.18913 311.737 0.871607 312.178 0.688419C312.62 0.517443 313.281 0.322042 313.649 0.26098C314.028 0.187705 319.04 0.138854 324.92 0.126642ZM320.228 10.9592C320.105 11.0691 319.922 11.3255 319.836 11.5332C319.75 11.7408 319.652 12.0339 319.615 12.2048C319.579 12.3758 319.297 13.5849 318.978 14.8916C318.66 16.1983 318.366 17.4929 318.317 17.7615C318.255 18.0302 318.096 18.7508 317.949 19.3492C317.802 19.9476 317.508 21.1322 317.312 21.9749C317.116 22.8175 316.895 23.7213 316.834 23.9899C316.773 24.2586 316.614 24.9425 316.479 25.5165C316.332 26.0905 316.05 27.2629 315.842 28.1422C315.633 29.0215 315.425 29.9497 315.376 30.2183C315.327 30.487 315.217 30.9267 315.143 31.1953C315.07 31.464 314.874 32.2578 314.702 32.9662C314.531 33.6745 314.286 34.7125 314.151 35.2865C314.016 35.8605 313.734 37.0451 313.526 37.9122C313.306 38.7793 313.11 39.6342 313.085 39.8052C313.048 39.9762 312.889 40.6601 312.73 41.3317C312.57 42.0034 312.325 43.0537 312.178 43.6521C312.044 44.2505 311.823 45.1909 311.688 45.7283C311.554 46.2656 311.345 47.1693 311.211 47.7433C311.076 48.3173 310.794 49.5019 310.573 50.369C310.365 51.2361 310.157 52.2375 310.132 52.5673C310.083 53.1046 310.12 53.2145 310.402 53.4832C310.72 53.7885 310.769 53.7885 313.012 53.8252C315.192 53.8618 315.327 53.8496 315.854 53.5809C316.222 53.3977 316.479 53.1535 316.614 52.8726C316.724 52.6405 316.871 52.2253 316.944 51.9566C317.006 51.688 317.14 51.114 317.251 50.6743C317.349 50.2347 317.52 49.5141 317.618 49.0623C317.729 48.5982 317.9 47.8654 317.998 47.4136C318.108 46.9495 318.243 46.3877 318.304 46.1557C318.366 45.9237 318.5 45.3741 318.598 44.9344C318.696 44.4948 318.868 43.7865 318.966 43.3468C319.064 42.9072 319.285 41.979 319.456 41.2707C319.615 40.5624 319.909 39.3533 320.081 38.5839C320.265 37.8145 320.571 36.4956 320.767 35.6529C320.963 34.8102 321.184 33.9065 321.245 33.6378C321.306 33.3692 321.49 32.5754 321.661 31.867C321.821 31.1587 322.127 29.8397 322.348 28.936C322.556 28.0323 322.862 26.7378 323.021 26.0661C323.168 25.3944 323.475 24.0999 323.683 23.1961C323.891 22.2924 324.112 21.352 324.173 21.12C324.234 20.888 324.369 20.3384 324.479 19.8987C324.577 19.4591 324.871 18.2256 325.116 17.1509C325.361 16.0762 325.607 15.0015 325.668 14.7695C325.717 14.5374 325.852 13.9879 325.962 13.5482C326.072 13.1086 326.195 12.4002 326.219 11.9606C326.256 11.4232 326.219 11.1057 326.121 10.9836C326.035 10.8859 325.815 10.7271 325.619 10.6416C325.398 10.5439 324.602 10.4951 323.168 10.5073C322.017 10.5073 320.926 10.5684 320.755 10.6294C320.583 10.7027 320.35 10.8492 320.228 10.9592Z" fill="white"/>
<path d="M314.2 53.9347C313.661 53.9592 312.754 53.9592 312.179 53.9347C311.603 53.9224 312.044 53.8979 313.159 53.8979C314.274 53.8979 314.739 53.9224 314.2 53.9347Z" fill="white" fill-opacity="0.5"/>
<path d="M324.185 10.4582C323.683 10.4827 322.825 10.4827 322.286 10.4582C321.747 10.4459 322.164 10.4214 323.205 10.4214C324.246 10.4214 324.687 10.4459 324.185 10.4582Z" fill="white" fill-opacity="0.6"/>
<path d="M364.237 1.3723C364.298 1.11584 364.384 0.725037 364.433 0.517424L364.519 0.11441H375.95L376.109 2.03178C376.195 3.09427 376.342 4.99942 376.44 6.28174C376.538 7.56406 376.685 9.28602 376.746 10.1287C376.808 10.9714 376.942 12.6689 377.053 13.9146C377.151 15.1603 377.285 16.9189 377.347 17.8226C377.42 18.7263 377.579 20.6681 377.69 22.1336C377.812 23.5869 377.947 24.7837 377.996 24.7837C378.057 24.7837 378.118 24.6005 378.143 24.3929C378.167 24.1731 378.449 22.9152 378.768 21.6085C379.086 20.3017 379.393 19.0316 379.442 18.7996C379.491 18.5676 379.589 18.1279 379.662 17.8226C379.723 17.5173 379.956 16.5281 380.177 15.6243C380.397 14.7206 380.655 13.6459 380.753 13.2429C380.851 12.8399 380.973 12.2903 381.034 12.0216C381.096 11.753 381.402 10.4584 381.708 9.15169C382.027 7.84494 382.333 6.57484 382.382 6.3428C382.431 6.11076 382.541 5.64669 382.615 5.30474C382.688 4.975 382.995 3.68047 383.816 0.175473L390.26 0.138835C393.801 0.126622 396.705 0.138835 396.705 0.175473C396.717 0.21211 396.496 1.21354 396.215 2.41037C395.933 3.59498 395.663 4.76739 395.614 4.99942C395.565 5.23146 395.259 6.52599 394.94 7.86937C394.622 9.21275 394.315 10.5073 394.266 10.7393C394.205 10.9714 394.119 11.411 394.046 11.7163C393.985 12.0215 393.666 13.3656 393.348 14.7084L393.263 15.0667C392.976 16.2747 392.717 17.367 392.661 17.5783C392.612 17.8104 392.453 18.5065 392.318 19.1049C392.171 19.7033 391.975 20.5582 391.877 20.9978C391.767 21.4375 391.596 22.1458 391.498 22.5855C391.4 23.0251 391.265 23.5747 391.203 23.8067C391.142 24.0388 391.007 24.6005 390.897 25.0646C390.799 25.5165 390.628 26.2492 390.517 26.7011C390.419 27.1652 390.199 28.0811 390.04 28.7528C389.88 29.4245 389.721 30.1084 389.684 30.2794C389.66 30.4503 389.366 31.6594 389.059 32.9661C388.741 34.2729 388.435 35.543 388.386 35.775C388.337 36.007 387.981 37.5458 387.589 39.1945C387.197 40.8432 386.842 42.382 386.793 42.614C386.744 42.8461 386.438 44.1406 386.119 45.484C385.8 46.8274 385.494 48.1219 385.445 48.3539C385.396 48.586 385.09 49.8805 384.771 51.2239C384.453 52.5672 384.146 53.8862 384.073 54.1549C384.012 54.4235 383.914 54.8388 383.865 55.0708C383.803 55.3029 383.583 56.2676 383.362 57.208L383.291 57.5122C383.089 58.3741 382.874 59.2903 382.786 59.6505C382.688 60.0535 382.566 60.6031 382.505 60.8718C382.443 61.1404 382.259 61.9613 382.087 62.7062C381.916 63.4381 381.745 64.1697 381.647 64.5966H370.927L370.829 63.8394C370.78 63.412 370.657 62.2762 370.559 61.2992C370.461 60.3222 370.29 58.759 370.179 57.8186C370.081 56.8783 369.946 55.5837 369.885 54.9487C369.824 54.3136 369.714 53.2634 369.652 52.6283C369.579 51.9933 369.469 50.943 369.395 50.3079C369.334 49.6729 369.187 48.2929 369.089 47.2548C368.979 46.2167 368.832 44.8978 368.77 44.3238C368.697 43.7498 368.586 42.7362 368.525 42.0645C368.464 41.3928 368.366 40.4646 368.317 40.0005C368.268 39.5487 368.207 39.1457 368.17 39.1335C368.133 39.109 368.011 39.4632 367.9 39.9028C367.79 40.3547 367.557 41.2951 367.386 42.0034C367.214 42.7117 366.883 44.104 366.638 45.1176C366.393 46.119 366.087 47.4136 365.952 47.9875C365.818 48.5615 365.658 49.221 365.597 49.4531C365.536 49.6851 365.34 50.4789 365.168 51.2239C365.003 51.9427 364.712 53.1392 364.515 53.9464L364.494 54.0328C364.298 54.8388 363.968 56.2188 363.759 57.0859C363.551 57.953 363.245 59.2475 363.073 59.9558C362.902 60.6642 362.583 61.9831 361.97 64.5355L349.425 64.5966L349.498 64.2669C349.535 64.0715 349.608 63.7051 349.67 63.4364C349.731 63.1677 349.951 62.264 350.147 61.4213C350.343 60.5787 350.637 59.2964 350.809 58.5514C350.993 57.8064 351.299 56.463 351.52 55.5593C351.728 54.6556 352.034 53.3366 352.193 52.6283C352.365 51.92 352.549 51.1506 352.61 50.9186C352.671 50.6865 352.953 49.5019 353.235 48.2929C353.517 47.0838 353.798 45.8748 353.86 45.6061C353.921 45.3374 354.019 44.8978 354.08 44.6291C354.129 44.3604 354.35 43.4201 354.558 42.553C354.766 41.6859 355.024 40.5867 355.134 40.1105C355.244 39.6342 355.379 39.0602 355.428 38.8281C355.489 38.5961 355.722 37.5825 355.967 36.5688C356.2 35.5674 356.531 34.163 356.702 33.4546C356.874 32.7463 357.143 31.5983 357.315 30.89C357.486 30.1817 357.768 28.9726 357.952 28.2032C358.123 27.4339 358.319 26.6034 358.368 26.3714C358.417 26.1393 358.724 24.8448 359.042 23.5014C359.361 22.158 359.667 20.8635 359.716 20.6315C359.765 20.3994 360.12 18.8607 360.512 17.212C360.905 15.5633 361.26 14.0245 361.309 13.7924C361.358 13.5604 361.664 12.2903 361.983 10.9836C362.288 9.73207 362.57 8.49178 362.648 8.15312L362.657 8.11362C362.706 7.84494 362.926 6.88015 363.147 5.97643C363.367 5.0727 363.624 3.97357 363.722 3.53392C363.82 3.09427 363.955 2.53249 364.017 2.28824C364.078 2.03178 364.176 1.61655 364.237 1.3723Z" fill="white"/>
<path d="M472.74 9.84739C466.075 9.8719 455.183 9.8719 448.542 9.84739C441.902 9.83514 447.366 9.82289 460.671 9.82289C473.977 9.82289 479.405 9.83514 472.74 9.84739Z" fill="white" fill-opacity="0.8"/>
<path d="M276.464 11.6793C274.516 11.7038 271.343 11.7038 269.419 11.6793C267.496 11.6671 269.101 11.6548 272.972 11.6548C276.844 11.6548 278.412 11.6671 276.464 11.6793Z" fill="#CC0000" fill-opacity="0.8"/>
<path d="M275.827 26.0293C273.071 26.0171 269.591 25.9926 268.072 25.9681C266.553 25.9558 268.807 25.9313 273.058 25.9068C277.322 25.8946 280.814 25.9191 280.814 25.9803C280.814 26.0293 278.572 26.0538 275.827 26.0293Z" fill="#CC0000" fill-opacity="0.7"/>
<path d="M264.053 37.5094C263.33 37.4849 262.705 37.4359 262.656 37.3869C262.607 37.3378 263.159 37.3133 263.882 37.3378C264.605 37.3623 265.229 37.4114 265.278 37.4604C265.327 37.5094 264.776 37.5339 264.053 37.5094Z" fill="white" fill-opacity="0.2"/>
<path d="M260.353 53.9347C259.716 53.9592 258.613 53.9592 257.902 53.9347C257.192 53.9224 257.719 53.8979 259.066 53.8979C260.414 53.8979 260.99 53.9224 260.353 53.9347Z" fill="white" fill-opacity="0.5"/>
<path d="M376.219 64.6214C380.471 64.6091 381.647 64.5601 381.647 64.4499C381.647 64.3641 381.684 64.3274 381.733 64.3886C381.794 64.4376 381.769 64.5356 381.696 64.5969C381.622 64.6827 379.638 64.7072 370.804 64.6582L376.219 64.6214Z" fill="white" fill-opacity="0.5"/>
<path d="M145.736 64.6578L152.475 64.5965C156.187 64.5598 159.226 64.523 159.238 64.4985C159.25 64.4863 159.238 64.5353 159.213 64.5965C159.177 64.6823 156.824 64.7068 145.736 64.6578Z" fill="white" fill-opacity="0.5"/>
<path d="M180.042 64.6578L187.086 64.5966C190.958 64.5598 194.143 64.523 194.156 64.4985C194.168 64.4863 194.156 64.5353 194.131 64.5965C194.094 64.6823 191.644 64.7068 180.042 64.6578Z" fill="white" fill-opacity="0.5"/>
<path d="M135.935 64.6817C134.122 64.7062 131.083 64.7062 129.197 64.6817C127.31 64.6695 128.792 64.6572 132.505 64.6572C136.217 64.6572 137.748 64.6695 135.935 64.6817Z" fill="white" fill-opacity="0.5"/>
<path d="M215.572 64.6817C213.759 64.7062 210.721 64.7062 208.834 64.6817C206.947 64.6695 208.43 64.6572 212.142 64.6572C215.854 64.6572 217.386 64.6695 215.572 64.6817Z" fill="white" fill-opacity="0.5"/>
<path d="M256.8 64.6817C255.624 64.7062 253.639 64.7062 252.389 64.6817C251.139 64.6695 252.107 64.6572 254.533 64.6572C256.959 64.6572 257.976 64.6695 256.8 64.6817Z" fill="white" fill-opacity="0.5"/>
<path d="M314.996 64.6817C312.668 64.7062 308.895 64.7062 306.604 64.6817C304.313 64.6695 306.212 64.6572 310.831 64.6572C315.45 64.6572 317.324 64.6695 314.996 64.6817Z" fill="white" fill-opacity="0.5"/>
<path d="M358.797 64.6817C357.045 64.7062 354.203 64.7062 352.487 64.6817C350.772 64.6695 352.206 64.6572 355.673 64.6572C359.14 64.6572 360.549 64.6695 358.797 64.6817Z" fill="white" fill-opacity="0.5"/>
<path d="M374.664 73.9633C322.274 73.9878 236.487 73.9878 184.024 73.9633C131.561 73.9511 174.431 73.9388 279.282 73.9388C384.134 73.9388 427.053 73.9511 374.664 73.9633Z" fill="white" fill-opacity="0.6"/>
<path d="M84.4768 88.1059L272.115 88.0446C375.312 88.0078 459.765 87.9711 459.777 87.9466C459.789 87.9343 459.777 87.9833 459.753 88.0446C459.716 88.1304 397.072 88.1549 84.4768 88.1059Z" fill="white" fill-opacity="0.2"/>
<path d="M51.2496 88.1913C47.2678 88.2158 44.0333 88.1913 44.0578 88.1423C44.0945 88.081 49.1791 88.0565 55.354 88.0687C61.529 88.0932 64.7635 88.1178 62.5459 88.13C60.316 88.1545 55.2437 88.179 51.2496 88.1913Z" fill="white" fill-opacity="0.2"/>
<path d="M353.161 98.022C352.83 98.0465 352.303 98.0465 351.997 98.022C351.691 97.9975 351.973 97.9852 352.61 97.9852C353.247 97.9852 353.504 97.9975 353.161 98.022Z" fill="#848484" fill-opacity="0.3"/>
<path fill-rule="evenodd" clip-rule="evenodd" d="M190.456 98.1074C191.191 98.1318 192 98.2051 192.233 98.2784C192.465 98.3516 192.858 98.5471 193.09 98.7058C193.323 98.8524 193.666 99.2065 193.838 99.463C194.009 99.7317 194.266 100.306 194.413 100.745C194.548 101.185 194.72 101.93 194.793 102.394C194.867 102.87 195.002 104.018 195.1 104.959C195.21 105.899 195.369 107.572 195.479 108.683C195.577 109.795 195.773 111.798 195.92 113.141C196.055 114.484 196.227 116.243 196.3 117.049C196.386 117.855 196.447 118.759 196.447 119.064C196.46 119.406 196.374 119.76 196.239 119.956C196.031 120.285 196.031 120.285 194.475 120.285C193.127 120.298 192.882 120.261 192.71 120.078C192.6 119.956 192.453 119.748 192.38 119.614C192.306 119.479 192.184 118.795 192.098 118.087C192.024 117.379 191.926 116.316 191.804 114.607L187.577 114.57C183.644 114.533 183.338 114.545 183.142 114.753C183.031 114.875 182.811 115.303 182.639 115.706C182.468 116.109 182.113 116.902 181.843 117.476C181.574 118.05 181.279 118.71 181.181 118.942C181.083 119.174 180.826 119.577 180.226 120.285H178.609C176.991 120.298 176.979 120.285 176.832 119.98C176.734 119.797 176.71 119.516 176.759 119.284C176.795 119.064 176.991 118.551 177.175 118.148C177.359 117.745 177.763 116.841 178.082 116.133C178.4 115.425 178.792 114.545 178.964 114.179C179.135 113.813 179.515 112.958 179.821 112.286C180.116 111.614 180.532 110.723 180.728 110.308C180.924 109.88 181.083 109.514 181.083 109.477C181.083 109.441 181.304 108.964 181.561 108.415C181.831 107.853 182.358 106.681 182.75 105.814C183.13 104.946 183.718 103.652 184.061 102.944C184.391 102.235 185.004 101.173 185.421 100.574C185.825 99.9759 186.364 99.3409 186.597 99.1577C186.83 98.9745 187.222 98.7302 187.454 98.6081C187.687 98.486 188.165 98.315 188.496 98.2295C188.876 98.1318 189.635 98.083 190.456 98.1074ZM188.288 103.31C188.153 103.615 187.908 104.14 187.761 104.47C187.614 104.812 187.258 105.569 186.989 106.18C186.719 106.791 186.34 107.633 186.131 108.073C185.935 108.512 185.629 109.209 185.445 109.636C185.274 110.051 185.127 110.418 185.127 110.454C185.127 110.491 186.511 110.515 188.19 110.515H191.253C191.253 109.954 191.204 109.27 191.13 108.659C191.069 108.036 190.934 106.534 190.824 105.325C190.713 104.116 190.554 102.907 190.468 102.638C190.321 102.174 190.285 102.15 189.746 102.113C189.255 102.076 189.133 102.125 188.863 102.418C188.692 102.602 188.435 103.005 188.288 103.31Z" fill="white"/>
<path d="M190.272 110.601C189.635 110.625 188.642 110.625 188.067 110.601C187.491 110.589 188.018 110.564 189.23 110.564C190.443 110.564 190.909 110.589 190.272 110.601Z" fill="white" fill-opacity="0.4"/>
<path d="M186.658 110.601C186.388 110.625 185.898 110.625 185.555 110.601C185.212 110.576 185.432 110.564 186.045 110.564C186.658 110.564 186.927 110.576 186.658 110.601Z" fill="white" fill-opacity="0.2"/>
<path d="M224.7 98.6935C225.006 98.5103 225.472 98.3027 225.742 98.2294C226.011 98.1439 226.795 98.0707 227.481 98.0707C228.474 98.0584 228.878 98.1073 229.38 98.3027C229.736 98.4492 230.152 98.6935 230.299 98.8523C230.459 99.0232 230.679 99.3652 230.814 99.6216C230.936 99.8659 231.132 100.489 231.243 100.989C231.353 101.49 231.439 102.137 231.439 102.431C231.439 102.711 231.488 103.31 231.561 103.774C231.623 104.226 231.77 105.471 231.868 106.546C231.978 107.621 232.149 109.221 232.235 110.088C232.333 110.955 232.492 112.616 232.603 113.752C232.725 114.9 232.86 116.121 232.921 116.475C232.995 116.902 233.093 117.11 233.215 117.11C233.313 117.11 233.448 117.012 233.509 116.902C233.571 116.78 233.705 116.157 233.816 115.522L233.823 115.482C233.933 114.846 234.1 113.886 234.208 113.324C234.306 112.75 234.465 111.846 234.563 111.309C234.661 110.772 234.882 109.514 235.053 108.5C235.225 107.499 235.396 106.583 235.421 106.485C235.457 106.387 235.543 105.923 235.617 105.447C235.69 104.971 235.788 104.323 235.849 103.982C235.898 103.652 236.094 102.553 236.278 101.539C236.45 100.538 236.695 99.5239 236.805 99.2919C236.915 99.0599 237.148 98.7668 237.32 98.6324C237.528 98.4859 237.92 98.3882 238.484 98.3393C238.961 98.3027 239.574 98.3393 239.856 98.4126C240.248 98.5103 240.432 98.6446 240.566 98.9133C240.664 99.1087 240.75 99.4629 240.75 99.6827C240.738 99.8903 240.664 100.513 240.554 101.051C240.456 101.588 240.321 102.308 240.272 102.638C240.211 102.98 240.052 103.908 239.905 104.714C239.758 105.52 239.5 106.974 239.329 107.951C239.157 108.928 238.961 110.027 238.9 110.393C238.827 110.759 238.729 111.37 238.667 111.737C238.606 112.103 238.422 113.202 238.239 114.179C238.067 115.156 237.834 116.316 237.736 116.78C237.65 117.232 237.405 117.94 237.222 118.368C237.026 118.795 236.634 119.382 235.739 120.285H230.52L230.177 119.98C229.993 119.809 229.748 119.467 229.613 119.223C229.491 118.966 229.331 118.502 229.246 118.185C229.172 117.855 229.025 116.841 228.915 115.925C228.805 114.997 228.682 113.752 228.621 113.141C228.572 112.53 228.437 111.297 228.327 110.393C228.229 109.489 228.057 107.975 227.947 107.035C227.837 106.094 227.702 104.8 227.641 104.165C227.579 103.53 227.494 102.736 227.432 102.406C227.383 102.089 227.273 101.783 227.212 101.759C227.151 101.722 227.028 101.771 226.942 101.857C226.857 101.954 226.673 102.663 226.538 103.432C226.391 104.201 226.232 105.142 226.17 105.508C226.109 105.874 225.803 107.609 225.497 109.355C225.178 111.101 224.884 112.811 224.823 113.141C224.774 113.483 224.578 114.582 224.406 115.583C224.222 116.597 224.002 117.843 223.904 118.368C223.806 118.881 223.659 119.43 223.585 119.589C223.512 119.736 223.352 119.956 223.242 120.078C223.071 120.261 222.838 120.297 221.551 120.285C220.13 120.285 220.032 120.273 219.861 120.017C219.763 119.858 219.677 119.491 219.677 119.186C219.677 118.881 219.763 118.148 219.873 117.537C219.971 116.927 220.118 116.133 220.191 115.767C220.253 115.4 220.363 114.826 220.412 114.484C220.461 114.155 220.767 112.42 221.086 110.637C221.404 108.854 221.711 107.157 221.76 106.851C221.809 106.546 222.029 105.337 222.238 104.165C222.446 102.992 222.666 101.832 222.728 101.6C222.777 101.368 222.96 100.904 223.107 100.562C223.267 100.232 223.561 99.7316 223.769 99.4751C223.977 99.2186 224.394 98.8645 224.7 98.6935Z" fill="white"/>
<path d="M268.623 98.547C268.893 98.4615 269.53 98.315 270.032 98.2417C270.534 98.1562 271.637 98.0829 272.482 98.0707C273.328 98.0707 274.541 98.144 275.178 98.2295C275.815 98.3272 276.721 98.5348 277.187 98.6936C277.665 98.8523 278.192 99.121 278.388 99.3042C278.682 99.5973 278.731 99.7439 278.731 100.281C278.731 100.635 278.621 101.295 278.486 101.747C278.29 102.431 278.179 102.614 277.873 102.76C277.628 102.882 277.346 102.919 277.04 102.87C276.795 102.821 276.366 102.711 276.097 102.614C275.827 102.516 275.055 102.37 274.381 102.272C273.708 102.174 272.715 102.089 272.176 102.089C271.637 102.089 270.865 102.15 270.461 102.223C270.056 102.296 269.517 102.467 269.26 102.614C269.015 102.76 268.733 103.017 268.647 103.176C268.574 103.334 268.5 103.762 268.5 104.116C268.5 104.665 268.549 104.812 268.868 105.142C269.076 105.362 270.534 106.412 272.115 107.487C273.891 108.696 275.276 109.734 275.729 110.198C276.133 110.613 276.599 111.224 276.746 111.553C276.905 111.895 277.089 112.469 277.163 112.836C277.236 113.202 277.248 113.886 277.199 114.362C277.15 114.839 276.991 115.632 276.832 116.133C276.648 116.707 276.329 117.33 275.986 117.806C275.68 118.234 275.165 118.783 274.847 119.04C274.516 119.296 273.928 119.662 272.789 120.224L267.949 120.261C263.612 120.285 263.048 120.273 262.497 120.078C262.166 119.956 261.725 119.699 261.529 119.492C261.211 119.15 261.186 119.076 261.247 118.453C261.284 118.087 261.37 117.538 261.443 117.232C261.505 116.927 261.664 116.548 261.799 116.377C261.921 116.206 262.166 116.023 262.325 115.962C262.546 115.877 263.012 115.95 264.09 116.219C264.898 116.426 266.026 116.658 266.601 116.731C267.177 116.805 268.059 116.866 268.562 116.866C269.064 116.866 269.897 116.793 270.4 116.707C270.902 116.622 271.514 116.438 271.747 116.304C271.98 116.17 272.286 115.901 272.421 115.693C272.568 115.498 272.715 115.107 272.764 114.814C272.825 114.484 272.789 114.167 272.691 113.898C272.605 113.691 272.25 113.275 271.919 112.994C271.588 112.714 270.167 111.712 268.746 110.772C267.324 109.819 265.879 108.757 265.523 108.415C265.168 108.061 264.702 107.413 264.482 106.974C264.102 106.204 264.09 106.131 264.09 104.714C264.102 103.652 264.163 103.09 264.31 102.663C264.421 102.345 264.666 101.796 264.849 101.454C265.021 101.099 265.474 100.501 265.854 100.135C266.271 99.7194 266.859 99.3042 267.337 99.0722C267.778 98.8646 268.353 98.6325 268.623 98.547Z" fill="white"/>
<path fill-rule="evenodd" clip-rule="evenodd" d="M352.463 98.0707C353.284 98.0707 354.386 98.1196 354.901 98.1929C355.428 98.2539 356.102 98.3883 356.408 98.4737C356.714 98.5714 357.229 98.7669 357.572 98.9256C357.903 99.0844 358.491 99.5118 358.858 99.8904C359.238 100.257 359.655 100.806 359.802 101.112C359.936 101.417 360.145 101.991 360.255 102.394C360.377 102.87 360.451 103.652 360.451 104.592C360.451 105.533 360.365 106.558 360.194 107.462C360.059 108.232 359.9 109.135 359.851 109.477C359.789 109.807 359.655 110.576 359.544 111.187C359.434 111.798 359.226 112.75 359.079 113.324C358.944 113.898 358.748 114.558 358.638 114.79C358.54 115.022 358.393 115.351 358.331 115.522C358.258 115.693 357.976 116.206 357.707 116.683C357.425 117.159 356.8 117.941 356.285 118.453C355.66 119.076 355.085 119.504 353.651 120.224L344.278 120.285L343.641 119.943C343.286 119.76 342.759 119.382 342.477 119.089C342.183 118.808 341.816 118.319 341.657 117.989C341.497 117.672 341.264 117.086 341.154 116.683C340.995 116.145 340.934 115.535 340.934 114.362C340.934 113.422 341.019 112.323 341.142 111.675C341.252 111.065 341.399 110.295 341.461 109.966C341.522 109.624 341.657 108.867 341.767 108.256C341.877 107.645 342.049 106.742 342.159 106.241C342.257 105.74 342.502 104.91 342.673 104.409C342.857 103.908 343.213 103.09 343.482 102.589C343.752 102.089 344.34 101.283 344.781 100.819C345.259 100.306 345.945 99.7439 346.435 99.463C346.888 99.1943 347.464 98.9012 347.709 98.8157C347.942 98.7302 348.334 98.5959 348.567 98.5348C348.799 98.4737 349.437 98.3394 349.976 98.2539C350.515 98.1562 351.63 98.0829 352.451 98.0707H352.463ZM349.498 102.528C349.155 102.626 348.689 102.834 348.456 103.005C348.224 103.163 347.917 103.456 347.77 103.64C347.623 103.823 347.39 104.214 347.256 104.495C347.109 104.788 346.913 105.252 346.815 105.533C346.717 105.826 346.557 106.473 346.447 106.974C346.349 107.474 346.079 108.879 345.871 110.088C345.589 111.639 345.467 112.677 345.467 113.63C345.467 114.655 345.516 115.083 345.675 115.425C345.785 115.681 346.03 115.987 346.214 116.096C346.41 116.219 346.864 116.414 347.231 116.536C347.721 116.695 348.297 116.744 349.375 116.744C350.576 116.744 351.029 116.683 351.826 116.451C352.622 116.206 352.904 116.048 353.333 115.62C353.627 115.327 354.019 114.79 354.203 114.423C354.386 114.057 354.631 113.422 354.742 113.019C354.852 112.616 355.023 111.798 355.134 111.187C355.232 110.576 355.366 109.807 355.44 109.477C355.501 109.135 355.648 108.403 355.771 107.829C355.893 107.193 355.979 106.229 355.991 105.325C355.991 104.043 355.955 103.811 355.734 103.432C355.587 103.2 355.317 102.907 355.146 102.785C354.974 102.675 354.484 102.492 354.055 102.394C353.602 102.284 352.769 102.223 352.009 102.235C351.299 102.235 350.588 102.272 350.417 102.296C350.245 102.321 349.829 102.431 349.498 102.528Z" fill="white"/>
<path d="M349.915 116.829C349.682 116.854 349.241 116.854 348.934 116.829C348.628 116.805 348.824 116.78 349.363 116.78C349.902 116.78 350.147 116.805 349.915 116.829Z" fill="#090909" fill-opacity="0.5"/>
<path d="M352.426 102.174C352.157 102.199 351.777 102.199 351.569 102.174C351.36 102.15 351.593 102.125 352.059 102.125C352.524 102.125 352.696 102.15 352.426 102.174Z" fill="white" fill-opacity="0.4"/>
<path d="M106.285 98.2663C105.415 98.2908 103.921 98.2908 102.977 98.2663C102.034 98.254 102.745 98.2295 104.57 98.2295C106.396 98.2295 107.155 98.254 106.285 98.2663Z" fill="#591313" fill-opacity="0.2"/>
<path d="M113.697 98.2663C112.656 98.2908 110.892 98.2908 109.777 98.2663C108.662 98.254 109.52 98.2295 111.676 98.2295C113.832 98.2295 114.739 98.254 113.697 98.2663Z" fill="white" fill-opacity="0.2"/>
<path d="M148.922 98.2663C148.113 98.2908 146.741 98.2908 145.859 98.2663C144.977 98.254 145.638 98.2295 147.329 98.2295C149.02 98.2295 149.73 98.254 148.922 98.2663Z" fill="white" fill-opacity="0.2"/>
<path d="M311.933 98.2663C311.088 98.2908 309.74 98.2908 308.932 98.2663C308.123 98.254 308.809 98.2295 310.463 98.2295C312.117 98.2295 312.779 98.254 311.933 98.2663Z" fill="white" fill-opacity="0.2"/>
<path d="M394.144 98.2663C393.372 98.2908 392.049 98.2908 391.203 98.2663C390.358 98.254 390.995 98.2295 392.612 98.2295C394.23 98.2295 394.916 98.254 394.144 98.2663Z" fill="white" fill-opacity="0.2"/>
<path d="M437.761 98.2662C435.776 98.2907 432.541 98.2907 430.593 98.2662C428.645 98.254 430.263 98.2417 434.208 98.2417C438.153 98.2417 439.746 98.254 437.761 98.2662Z" fill="white" fill-opacity="0.2"/>
<path d="M100.11 98.7057C100.208 98.6203 100.453 98.4981 100.649 98.4371C100.858 98.376 104.215 98.315 108.454 98.315C114.825 98.3027 115.964 98.3272 116.332 98.4859C116.565 98.5836 116.822 98.779 116.883 98.9134C116.944 99.0477 117.006 99.3774 117.006 99.6461C117.006 99.9148 116.944 100.428 116.871 100.77C116.785 101.124 116.638 101.551 116.528 101.71C116.417 101.869 116.185 102.076 116.001 102.162C115.744 102.296 114.984 102.333 110.022 102.333L109.973 102.602C109.936 102.76 109.826 103.371 109.716 103.982C109.605 104.592 109.471 105.349 109.409 105.691C109.348 106.021 109.213 106.766 109.115 107.34C109.005 107.914 108.785 109.196 108.601 110.21C108.429 111.211 108.233 112.347 108.16 112.714C108.098 113.08 107.988 113.654 107.939 113.996C107.89 114.326 107.682 115.571 107.461 116.744C107.253 117.916 107.033 119.076 106.959 119.308C106.886 119.54 106.714 119.858 106.555 120.017C106.297 120.273 106.187 120.285 104.729 120.285C103.247 120.285 103.149 120.273 102.977 120.004C102.879 119.858 102.793 119.516 102.793 119.247C102.793 118.979 102.855 118.429 102.916 118.026C102.989 117.623 103.136 116.829 103.234 116.255C103.345 115.681 103.467 114.936 103.528 114.606C103.577 114.265 103.737 113.336 103.884 112.53C104.031 111.724 104.288 110.271 104.472 109.294C104.643 108.317 104.839 107.242 104.888 106.913C104.95 106.571 105.048 105.997 105.109 105.63C105.17 105.264 105.305 104.47 105.415 103.859C105.526 103.249 105.611 102.663 105.611 102.54C105.611 102.345 105.403 102.333 102.818 102.333C100.086 102.345 100.037 102.333 99.7672 102.064C99.6201 101.905 99.4486 101.649 99.3873 101.478C99.3261 101.283 99.3383 100.88 99.4486 100.342C99.5344 99.8904 99.6814 99.3774 99.7794 99.182C99.8652 98.9989 100.024 98.779 100.11 98.7057Z" fill="white"/>
<path fill-rule="evenodd" clip-rule="evenodd" d="M147.329 98.315C149.89 98.3027 151.054 98.3516 151.924 98.4982C152.622 98.6081 153.382 98.8279 153.823 99.0355C154.227 99.2309 154.754 99.5484 154.987 99.7438C155.219 99.9392 155.575 100.391 155.771 100.757C155.967 101.124 156.199 101.771 156.298 102.211C156.383 102.65 156.457 103.224 156.457 103.493C156.445 103.762 156.371 104.446 156.285 105.02C156.187 105.594 156.016 106.387 155.905 106.79C155.795 107.193 155.501 107.926 155.256 108.427C154.974 109.001 154.533 109.612 154.068 110.088C153.565 110.601 153.051 110.979 152.414 111.285C151.911 111.529 151.311 111.773 151.09 111.822C150.87 111.871 150.698 111.932 150.698 111.944C150.698 111.969 150.907 112.433 151.176 112.982C151.434 113.544 151.862 114.46 152.132 115.034C152.414 115.608 152.904 116.646 153.247 117.354C153.578 118.063 153.921 118.856 154.006 119.125C154.153 119.553 154.141 119.662 153.761 120.285H152.009C150.38 120.273 150.245 120.261 149.902 119.992C149.669 119.821 149.277 119.198 148.824 118.295C148.444 117.501 148.125 116.841 148.125 116.805C148.125 116.768 147.807 116.072 147.415 115.242C147.023 114.423 146.569 113.434 146.104 112.347H142.428L142.343 112.738C142.294 112.958 142.196 113.446 142.134 113.813C142.061 114.179 141.816 115.583 141.571 116.927C141.228 118.82 141.068 119.467 140.529 120.285H138.937C137.417 120.285 137.332 120.273 137.16 120.004C137.062 119.858 136.976 119.492 136.976 119.186C136.976 118.881 137.123 117.867 137.295 116.927C137.454 115.987 137.65 114.936 137.711 114.606C137.76 114.265 137.871 113.605 137.944 113.141C138.018 112.665 138.103 112.201 138.14 112.103C138.165 112.005 138.361 110.931 138.569 109.721C138.777 108.512 139.01 107.218 139.071 106.852C139.145 106.485 139.243 105.875 139.304 105.508C139.365 105.142 139.549 104.067 139.733 103.127C139.904 102.186 140.186 101.112 140.358 100.745C140.529 100.379 140.872 99.866 141.117 99.6095C141.362 99.353 141.791 99.0233 142.061 98.8767C142.33 98.7424 142.857 98.5592 143.225 98.4737C143.666 98.376 145.112 98.3272 147.329 98.315ZM144.242 102.907C144.168 103.029 143.935 104.116 143.727 105.325C143.507 106.534 143.31 107.67 143.286 107.853L143.225 108.195C147.354 108.195 148.885 108.134 149.289 108.061C149.694 107.987 150.184 107.841 150.392 107.743C150.6 107.633 150.845 107.462 150.943 107.352C151.041 107.242 151.213 107.022 151.323 106.852C151.433 106.681 151.605 106.265 151.715 105.936C151.838 105.581 151.924 104.946 151.924 104.433C151.924 103.798 151.862 103.456 151.703 103.224C151.593 103.053 151.299 102.821 151.066 102.711C150.723 102.565 150.037 102.516 147.758 102.492C146.165 102.479 144.768 102.504 144.634 102.577C144.487 102.638 144.315 102.785 144.242 102.907Z" fill="white"/>
<path d="M147.145 108.28C146.374 108.305 145.161 108.305 144.45 108.28C143.739 108.268 144.376 108.244 145.859 108.244C147.341 108.244 147.917 108.268 147.145 108.28Z" fill="white" fill-opacity="0.8"/>
<path d="M148.432 102.419C147.758 102.443 146.68 102.443 146.043 102.419C145.406 102.406 145.957 102.382 147.268 102.382C148.579 102.382 149.106 102.406 148.432 102.419Z" fill="white" fill-opacity="0.6"/>
<path fill-rule="evenodd" clip-rule="evenodd" d="M310.463 98.315C312.889 98.3028 314.126 98.3516 314.874 98.4859C315.449 98.5836 316.111 98.7302 316.344 98.8157C316.577 98.9134 316.993 99.0966 317.263 99.2431C317.532 99.3775 318.01 99.7683 318.316 100.086C318.647 100.452 318.99 100.977 319.162 101.417C319.358 101.942 319.456 102.504 319.493 103.371C319.542 104.177 319.493 104.959 319.358 105.691C319.26 106.302 319.064 107.12 318.929 107.523C318.806 107.926 318.512 108.61 318.292 109.05C318.059 109.489 317.52 110.198 317.079 110.65C316.638 111.101 316.062 111.602 315.793 111.761C315.523 111.932 314.947 112.213 314.506 112.384C314.065 112.555 313.244 112.787 312.668 112.885C311.921 113.019 310.757 113.08 305.44 113.08L305.378 113.41C305.354 113.605 305.182 114.57 304.999 115.584C304.827 116.585 304.643 117.684 304.582 118.026C304.533 118.356 304.423 118.856 304.361 119.125C304.288 119.394 304.116 119.76 303.724 120.285H302.132C300.612 120.285 300.527 120.273 300.355 120.004C300.257 119.858 300.171 119.516 300.171 119.247C300.171 118.979 300.245 118.319 300.343 117.782C300.453 117.244 300.674 115.974 300.845 114.973C301.029 113.959 301.225 112.836 301.286 112.469C301.36 112.103 301.458 111.492 301.519 111.126C301.58 110.76 301.801 109.489 302.009 108.317C302.217 107.145 302.475 105.716 302.573 105.142C302.671 104.568 302.805 103.823 302.854 103.493C302.916 103.151 303.026 102.553 303.112 102.15C303.198 101.747 303.394 101.112 303.565 100.745C303.724 100.379 304.031 99.8904 304.251 99.6706C304.472 99.4385 304.888 99.1088 305.195 98.9378C305.501 98.7546 306.052 98.547 306.42 98.4615C306.836 98.376 308.368 98.315 310.463 98.315ZM307.412 102.968C307.314 103.127 307.192 103.579 307.143 103.982C307.094 104.385 306.873 105.643 306.665 106.79C306.469 107.926 306.297 108.879 306.297 108.891C306.297 108.915 307.719 108.915 309.458 108.891C312.546 108.867 312.619 108.854 313.207 108.561C313.538 108.39 313.967 108.061 314.151 107.829C314.347 107.597 314.616 107.047 314.763 106.607C314.91 106.168 315.045 105.362 315.082 104.775C315.131 103.872 315.106 103.688 314.886 103.334C314.739 103.127 314.42 102.846 314.163 102.736C313.795 102.565 313.207 102.528 310.892 102.492C309.336 102.479 307.964 102.504 307.829 102.577C307.682 102.638 307.498 102.809 307.412 102.968Z" fill="white"/>
<path d="M309.116 109.013C307.596 109.038 306.322 109.013 306.273 108.952C306.224 108.903 307.462 108.891 311.872 108.989L309.116 109.013Z" fill="white" fill-opacity="0.6"/>
<path d="M311.627 102.419C311.027 102.443 309.973 102.443 309.299 102.419C308.625 102.406 309.128 102.382 310.402 102.382C311.676 102.382 312.227 102.406 311.627 102.419Z" fill="white" fill-opacity="0.6"/>
<path fill-rule="evenodd" clip-rule="evenodd" d="M392.612 98.315C395.173 98.3027 396.337 98.3516 397.206 98.4982C397.942 98.6081 398.664 98.8279 399.167 99.0599C399.608 99.2798 400.184 99.6706 400.453 99.9514C400.723 100.22 401.066 100.709 401.225 101.026C401.372 101.344 401.556 102.003 401.642 102.479C401.752 103.176 401.752 103.64 401.629 104.592C401.544 105.264 401.397 106.143 401.286 106.546C401.188 106.949 400.919 107.658 400.686 108.134C400.453 108.598 400.037 109.294 399.743 109.66C399.436 110.051 398.86 110.564 398.37 110.882C397.893 111.187 397.317 111.517 397.084 111.602C396.851 111.688 396.508 111.785 396.312 111.81C396.128 111.834 395.981 111.883 395.981 111.92C395.981 111.956 396.459 112.982 397.035 114.203C397.611 115.437 398.321 116.927 398.615 117.537C398.897 118.148 399.203 118.856 399.302 119.125C399.436 119.553 399.424 119.662 399.044 120.285H397.292C395.638 120.273 395.54 120.261 395.16 119.98C394.891 119.772 394.572 119.296 394.217 118.539C393.923 117.928 393.555 117.134 393.408 116.805C393.249 116.463 392.869 115.645 392.563 114.973C392.244 114.301 391.852 113.434 391.387 112.347H387.65L387.515 113.165C387.442 113.629 387.307 114.46 387.209 115.034C387.111 115.608 386.976 116.341 386.915 116.683C386.854 117.012 386.707 117.782 386.584 118.392C386.462 119.003 386.253 119.65 385.861 120.224H382.565L382.394 119.858C382.247 119.553 382.247 119.308 382.357 118.453C382.431 117.879 382.553 117.11 382.614 116.744C382.688 116.377 382.896 115.132 383.104 113.996C383.301 112.848 383.558 111.431 383.668 110.821C383.778 110.21 383.913 109.416 383.974 109.05C384.036 108.683 384.207 107.767 384.342 107.035C384.477 106.302 384.697 105.007 384.844 104.165C384.979 103.322 385.163 102.333 385.249 101.967C385.334 101.6 385.518 101.051 385.653 100.745C385.788 100.44 386.082 99.9881 386.314 99.7194C386.547 99.4629 386.976 99.1088 387.282 98.9378C387.589 98.7546 388.14 98.547 388.508 98.4737C388.924 98.3882 390.48 98.3272 392.612 98.315ZM389.524 102.907C389.451 103.029 389.218 104.165 388.998 105.447C388.789 106.729 388.593 107.865 388.557 107.975C388.508 108.183 388.704 108.195 391.595 108.158C393.408 108.134 394.879 108.048 395.124 107.975C395.356 107.902 395.736 107.719 395.969 107.56C396.202 107.401 396.508 107.035 396.655 106.729C396.802 106.424 396.986 105.984 397.072 105.752C397.145 105.52 397.206 104.922 397.206 104.433C397.206 103.798 397.145 103.469 396.986 103.224C396.876 103.053 396.582 102.821 396.349 102.711C396.006 102.565 395.32 102.516 393.041 102.492C391.448 102.479 390.051 102.504 389.917 102.577C389.77 102.638 389.598 102.785 389.524 102.907Z" fill="white"/>
<path d="M391.081 108.257C388.545 108.257 388.447 108.245 388.422 108.012C388.406 107.841 388.418 107.828 388.459 107.975C388.508 108.171 388.753 108.196 393.715 108.269L391.081 108.257Z" fill="white" fill-opacity="0.8"/>
<path d="M393.838 102.419C393.237 102.443 392.184 102.443 391.51 102.419C390.836 102.406 391.338 102.382 392.612 102.382C393.887 102.382 394.438 102.406 393.838 102.419Z" fill="white" fill-opacity="0.6"/>
<path d="M425.484 99.1699C425.619 98.889 425.864 98.6691 426.182 98.5226C426.636 98.3272 427.224 98.3028 434.121 98.3028C440.934 98.3028 441.595 98.315 442.061 98.5226C442.404 98.6691 442.588 98.8401 442.673 99.0966C442.759 99.3408 442.747 99.7316 442.649 100.318C442.575 100.794 442.44 101.307 442.355 101.478C442.269 101.649 442.073 101.893 441.926 102.028C441.681 102.26 441.436 102.272 435.751 102.394L435.653 102.882C435.592 103.151 435.457 103.835 435.359 104.409C435.249 104.983 435.126 105.728 435.065 106.058C435.016 106.4 434.857 107.328 434.71 108.134C434.563 108.94 434.293 110.393 434.121 111.37C433.95 112.347 433.766 113.422 433.705 113.752C433.656 114.094 433.411 115.461 433.166 116.805C432.933 118.148 432.7 119.333 432.676 119.43C432.639 119.528 432.492 119.76 432.345 119.943C432.063 120.273 432.05 120.273 428.816 120.285L428.62 119.833C428.424 119.382 428.437 119.259 429 116.011C429.319 114.167 429.625 112.384 429.686 112.042C429.735 111.712 429.87 110.967 429.98 110.393C430.091 109.819 430.262 108.891 430.36 108.317C430.458 107.743 430.593 107.01 430.642 106.668C430.703 106.339 430.899 105.264 431.071 104.287C431.242 103.31 431.389 102.479 431.389 102.431C431.389 102.37 430.127 102.333 425.753 102.333L425.386 101.967C425.104 101.686 425.018 101.49 425.018 101.148C425.018 100.892 425.08 100.44 425.153 100.135C425.227 99.8293 425.374 99.4019 425.484 99.1699Z" fill="white"/>
<path d="M272.544 102.174C272.274 102.199 271.858 102.199 271.625 102.174C271.392 102.15 271.613 102.125 272.115 102.125C272.617 102.125 272.813 102.15 272.544 102.174Z" fill="white" fill-opacity="0.4"/>
<path d="M104.325 102.419C103.59 102.443 102.401 102.443 101.691 102.419C100.98 102.406 101.593 102.382 103.038 102.382C104.484 102.382 105.06 102.406 104.325 102.419Z" fill="white" fill-opacity="0.6"/>
<path d="M114.004 102.419C113.269 102.443 112.08 102.443 111.37 102.419C110.659 102.406 111.272 102.382 112.717 102.382C114.163 102.382 114.739 102.406 114.004 102.419Z" fill="white" fill-opacity="0.6"/>
<path d="M430.103 102.419C429.429 102.443 428.277 102.443 427.53 102.419C426.783 102.406 427.334 102.382 428.755 102.382C430.176 102.382 430.777 102.406 430.103 102.419Z" fill="white" fill-opacity="0.6"/>
<path d="M439.721 102.419C438.949 102.443 437.736 102.443 437.026 102.419C436.315 102.406 436.952 102.382 438.435 102.382C439.917 102.382 440.493 102.406 439.721 102.419Z" fill="white" fill-opacity="0.6"/>
<path d="M68.7332 102.785C67.6917 102.809 65.9275 102.809 64.8125 102.785C63.6976 102.773 64.5553 102.748 66.7116 102.748C68.8679 102.748 69.7746 102.773 68.7332 102.785Z" fill="white" fill-opacity="0.6"/>
<path d="M77.3706 102.785C76.0841 102.809 74.0258 102.809 72.7761 102.785C71.5264 102.773 72.5801 102.76 75.104 102.76C77.6278 102.76 78.657 102.773 77.3706 102.785Z" fill="white" fill-opacity="0.5"/>
<path d="M360.537 105.023C360.513 105.256 360.488 105.035 360.488 104.533C360.488 104.031 360.513 103.835 360.537 104.104C360.562 104.374 360.562 104.79 360.537 105.023Z" fill="white" fill-opacity="0.6"/>
<path d="M309.973 113.166C309.201 113.19 307.878 113.19 307.033 113.166C306.187 113.153 306.824 113.129 308.442 113.129C310.059 113.129 310.745 113.153 309.973 113.166Z" fill="#090909" fill-opacity="0.5"/>
<path d="M191.779 114.876C191.742 114.68 191.424 114.668 187.491 114.631L183.227 114.606H187.515C191.718 114.606 191.804 114.606 191.816 114.852C191.824 115.023 191.812 115.031 191.779 114.876Z" fill="white" fill-opacity="0.8"/>
<path d="M269.052 116.829C268.819 116.854 268.378 116.854 268.072 116.829C267.765 116.805 267.961 116.78 268.5 116.78C269.04 116.78 269.285 116.805 269.052 116.829Z" fill="white" fill-opacity="0.6"/>
</svg>
