<svg width="46" height="46" viewBox="0 0 46 46" fill="none" xmlns="http://www.w3.org/2000/svg">
<g id="solar:city-bold">
<g id="Group">
<path id="Vector" d="M18.6049 9.18658C18.0433 8.625 17.1406 8.625 15.3332 8.625H14.854V5.75C14.854 5.36875 14.7026 5.00312 14.433 4.73353C14.1634 4.46395 13.7978 4.3125 13.4165 4.3125C13.0353 4.3125 12.6696 4.46395 12.4 4.73353C12.1305 5.00312 11.979 5.36875 11.979 5.75V8.625H11.4998C9.69242 8.625 8.78967 8.625 8.22809 9.18658C7.6665 9.74817 7.6665 10.6509 7.6665 12.4583V12.8493C8.05367 12.7478 8.44467 12.6768 8.828 12.6251C10.0623 12.4583 11.5861 12.4583 13.244 12.4583H13.589C15.2469 12.4583 16.7688 12.4583 18.005 12.6251C18.3883 12.6749 18.7793 12.7478 19.1665 12.8493V12.4583C19.1665 10.6509 19.1665 9.74817 18.6049 9.18658Z" fill="#6C95C6"/>
<path id="Vector_2" fill-rule="evenodd" clip-rule="evenodd" d="M3.8335 40.7291C3.45225 40.7291 3.08661 40.8805 2.81703 41.1501C2.54745 41.4197 2.396 41.7853 2.396 42.1666C2.396 42.5478 2.54745 42.9135 2.81703 43.1831C3.08661 43.4526 3.45225 43.6041 3.8335 43.6041H42.1668C42.5481 43.6041 42.9137 43.4526 43.1833 43.1831C43.4529 42.9135 43.6043 42.5478 43.6043 42.1666C43.6043 41.7853 43.4529 41.4197 43.1833 41.1501C42.9137 40.8805 42.5481 40.7291 42.1668 40.7291H40.2502V14.8963C40.2502 12.3279 40.2502 11.0418 39.5678 10.0567C38.8855 9.07151 37.6818 8.61917 35.2745 7.71834C30.5691 5.95309 28.2173 5.07142 26.5671 6.21376C24.9168 7.35992 24.9168 9.87076 24.9168 14.8963V20.1249H25.0893C26.7472 20.1249 28.2691 20.1249 29.5053 20.2917C30.8681 20.4738 32.3094 20.905 33.492 22.0895C34.6784 23.274 35.1097 24.7153 35.2937 26.0762C35.4585 27.3143 35.4585 28.8362 35.4585 30.496V40.7291H32.5835V30.6666C32.5835 27.0518 32.5835 25.2463 31.4603 24.1231C30.3372 22.9999 28.5317 22.9999 24.9168 22.9999H21.0835C17.4687 22.9999 15.6632 22.9999 14.54 24.1231C13.4168 25.2463 13.4168 27.0518 13.4168 30.6666V40.7291H10.5418V30.4941C10.5418 28.8362 10.5418 27.3143 10.7086 26.0781C10.8907 24.7153 11.3219 23.274 12.5064 22.0914C13.6909 20.905 15.1322 20.4738 16.4931 20.2898C17.7312 20.1249 19.2531 20.1249 20.9129 20.1249H21.0509C20.9742 18.3309 20.7347 17.2308 19.9603 16.4564C18.8372 15.3333 17.0317 15.3333 13.4168 15.3333C9.802 15.3333 7.9965 15.3333 6.87333 16.4564C5.75016 17.5796 5.75016 19.3851 5.75016 22.9999V40.7291H3.8335ZM17.7293 28.7499C17.7293 28.3687 17.8808 28.003 18.1504 27.7335C18.4199 27.4639 18.7856 27.3124 19.1668 27.3124H26.8335C27.2147 27.3124 27.5804 27.4639 27.85 27.7335C28.1195 28.003 28.271 28.3687 28.271 28.7499C28.271 29.1312 28.1195 29.4968 27.85 29.7664C27.5804 30.036 27.2147 30.1874 26.8335 30.1874H19.1668C18.7856 30.1874 18.4199 30.036 18.1504 29.7664C17.8808 29.4968 17.7293 29.1312 17.7293 28.7499ZM17.7293 34.4999C17.7293 34.1187 17.8808 33.753 18.1504 33.4835C18.4199 33.2139 18.7856 33.0624 19.1668 33.0624H26.8335C27.2147 33.0624 27.5804 33.2139 27.85 33.4835C28.1195 33.753 28.271 34.1187 28.271 34.4999C28.271 34.8812 28.1195 35.2468 27.85 35.5164C27.5804 35.786 27.2147 35.9374 26.8335 35.9374H19.1668C18.7856 35.9374 18.4199 35.786 18.1504 35.5164C17.8808 35.2468 17.7293 34.8812 17.7293 34.4999Z" fill="#6C95C6"/>
</g>
</g>
</svg>
