<svg width="10" height="12" viewBox="0 0 10 12" fill="none" xmlns="http://www.w3.org/2000/svg">
<path fill-rule="evenodd" clip-rule="evenodd" d="M4.51249 11.6663C4.37988 11.6663 4.25271 11.6136 4.15894 11.5198C4.06517 11.426 4.01249 11.2989 4.01249 11.1663L4.01249 1.70626L0.865825 4.85293C0.82005 4.90205 0.76485 4.94145 0.703517 4.96878C0.642184 4.99611 0.575974 5.0108 0.508839 5.01199C0.441704 5.01317 0.375019 5.00082 0.31276 4.97568C0.250501 4.95053 0.193945 4.9131 0.146466 4.86562C0.0989867 4.81814 0.0615567 4.76158 0.0364093 4.69933C0.011262 4.63707 -0.00108733 4.57038 9.71865e-05 4.50325C0.0012817 4.43611 0.0159757 4.3699 0.0433037 4.30857C0.0706317 4.24724 0.110033 4.19204 0.159157 4.14626L4.15916 0.14626C4.25291 0.0526268 4.37999 3.41621e-05 4.51249 3.41506e-05C4.64499 3.4139e-05 4.77207 0.0526267 4.86582 0.14626L8.86582 4.14626C8.91495 4.19204 8.95435 4.24724 8.98168 4.30857C9.00901 4.3699 9.0237 4.43611 9.02488 4.50325C9.02607 4.57038 9.01372 4.63707 8.98857 4.69933C8.96343 4.76158 8.926 4.81814 8.87852 4.86562C8.83104 4.9131 8.77448 4.95053 8.71222 4.97568C8.64996 5.00082 8.58328 5.01317 8.51614 5.01199C8.44901 5.0108 8.3828 4.99611 8.32147 4.96878C8.26013 4.94145 8.20493 4.90205 8.15916 4.85293L5.01249 1.70626L5.01249 11.1663C5.01249 11.2989 4.95981 11.426 4.86604 11.5198C4.77228 11.6136 4.6451 11.6663 4.51249 11.6663Z" fill="#1F2937"/>
</svg>
