<svg width="16" height="8" viewBox="0 0 16 8" fill="none" xmlns="http://www.w3.org/2000/svg">
<path fill-rule="evenodd" clip-rule="evenodd" d="M8.48804 7.57001C8.35212 7.68647 8.17903 7.75049 8.00004 7.75049C7.82105 7.75049 7.64796 7.68647 7.51204 7.57001L0.512038 1.57001C0.437184 1.50593 0.375687 1.42772 0.331056 1.33987C0.286425 1.25202 0.259534 1.15624 0.25192 1.05799C0.244306 0.959749 0.256116 0.860968 0.286677 0.767288C0.317239 0.673608 0.365954 0.586864 0.430039 0.512011C0.494124 0.437158 0.572326 0.37566 0.660178 0.331028C0.748031 0.286397 0.843811 0.259506 0.942056 0.251892C1.0403 0.244277 1.13908 0.256088 1.23276 0.28665C1.32644 0.317212 1.41319 0.365926 1.48804 0.430011L8.00004 6.01301L14.512 0.432011C14.5862 0.364108 14.6732 0.311807 14.768 0.278219C14.8628 0.24463 14.9633 0.23044 15.0637 0.236491C15.1641 0.242542 15.2622 0.268711 15.3522 0.313442C15.4423 0.358173 15.5224 0.420552 15.5879 0.496872C15.6533 0.573193 15.7028 0.661895 15.7332 0.757706C15.7637 0.853517 15.7746 0.954479 15.7653 1.05459C15.756 1.1547 15.7267 1.25192 15.679 1.34047C15.6314 1.42901 15.5664 1.50707 15.488 1.57001L8.48804 7.57001Z" fill="#EB2C27"/>
</svg>
