<svg width="20" height="20" viewBox="0 0 20 20" fill="none" xmlns="http://www.w3.org/2000/svg">
<path d="M9.99981 19.75C9.86106 19.7501 9.72502 19.7116 9.6068 19.639L7.0373 18.0557C5.17439 16.8977 3.6362 15.2854 2.56703 13.3701C1.49787 11.4548 0.932789 9.29925 0.924805 7.10575V4.03075C0.924806 3.85016 0.989968 3.67563 1.10832 3.53923C1.22667 3.40283 1.39027 3.31371 1.56905 3.28825C4.4136 2.94188 7.14242 1.95432 9.5498 0.4C9.67963 0.302633 9.83753 0.25 9.99981 0.25C10.1621 0.25 10.32 0.302633 10.4498 0.4C12.8581 1.95358 15.5877 2.94012 18.4328 3.28525C18.6116 3.31071 18.7752 3.39983 18.8935 3.53623C19.0119 3.67263 19.0771 3.84716 19.0771 4.02775V7.10275C19.069 9.2965 18.5037 11.4522 17.4341 13.3676C16.3645 15.283 14.8258 16.8951 12.9623 18.0527L10.3928 19.6368C10.2748 19.7102 10.1388 19.7494 9.99981 19.75ZM2.4248 4.66975V7.10575C2.43159 9.04381 2.93068 10.9484 3.87523 12.6407C4.81978 14.333 6.17882 15.7576 7.82481 16.7808L9.99981 18.1188L12.1748 16.7785C13.8208 15.7553 15.1798 14.3308 16.1244 12.6384C17.0689 10.9461 17.568 9.04156 17.5748 7.1035V4.66975C14.8943 4.24883 12.3214 3.30985 9.99981 1.90525C7.67825 3.30985 5.10535 4.24883 2.4248 4.66975Z" fill="#15803D"/>
<path d="M10.0047 14.1997C9.82177 14.1996 9.64519 14.1326 9.50819 14.0114C9.43319 13.9484 9.32819 13.8667 9.19469 13.7639C8.06449 12.9492 7.08656 11.9418 6.30569 10.7879C5.52419 9.57893 5.03069 7.75043 6.20144 6.57668C6.48963 6.28998 6.83979 6.07327 7.22494 5.94324C7.61009 5.81321 8.01995 5.77333 8.42294 5.82668C9.01386 5.90049 9.56691 6.15721 10.0047 6.56093C10.4425 6.15721 10.9955 5.90049 11.5864 5.82668C11.9896 5.77355 12.3997 5.81353 12.785 5.94354C13.1704 6.07355 13.5208 6.29014 13.8094 6.57668C14.7567 7.52318 14.7222 9.08993 13.7172 10.7662C12.9387 11.9251 11.9593 12.9355 10.8252 13.7497C10.6842 13.8599 10.5709 13.9469 10.4997 14.0099C10.3633 14.1313 10.1873 14.1988 10.0047 14.1997ZM8.08169 7.29968C7.92983 7.29833 7.77922 7.32707 7.63852 7.38422C7.49783 7.44137 7.36984 7.52582 7.26194 7.63268C6.68294 8.21093 7.18019 9.37268 7.56194 9.96818C8.22405 10.9423 9.04884 11.7952 10.0002 12.4897C10.9487 11.8047 11.7707 10.9598 12.4294 9.99293C12.5974 9.71318 13.3999 8.28668 12.7482 7.63493C12.6212 7.51005 12.4673 7.41598 12.2983 7.35994C12.1292 7.30389 11.9496 7.28738 11.7732 7.31168C11.536 7.35058 11.3111 7.4438 11.1159 7.58405C10.9208 7.72431 10.7607 7.9078 10.6482 8.12018C10.5766 8.2249 10.4805 8.31057 10.3683 8.36978C10.2561 8.42898 10.1312 8.45992 10.0043 8.45992C9.87745 8.45992 9.75251 8.42898 9.64031 8.36978C9.52811 8.31057 9.43204 8.2249 9.36044 8.12018C9.24804 7.90772 9.08799 7.72418 8.89281 7.58391C8.69764 7.44364 8.47264 7.35047 8.23544 7.31168C8.18449 7.30444 8.13314 7.30043 8.08169 7.29968Z" fill="#15803D"/>
</svg>
