<svg width="22" height="18" viewBox="0 0 22 18" fill="none" xmlns="http://www.w3.org/2000/svg">
<path d="M19.863 7.05701C20.4224 6.75186 20.8913 6.30459 21.2226 5.76032C21.5539 5.21605 21.7358 4.59403 21.75 3.95701V3.74701C21.7487 2.81962 21.3793 1.93067 20.7231 1.27537C20.0669 0.620075 19.1774 0.252013 18.25 0.252014H3.745C2.81761 0.253339 1.92865 0.622673 1.27336 1.27891C0.618062 1.93514 0.249999 2.82462 0.25 3.75201V14.262C0.25 15.1903 0.618749 16.0805 1.27513 16.7369C1.9315 17.3933 2.82174 17.762 3.75 17.762H18.26C19.1883 17.762 20.0785 17.3933 20.7349 16.7369C21.3913 16.0805 21.76 15.1903 21.76 14.262V14.052C21.7458 13.415 21.5639 12.793 21.2326 12.2487C20.9013 11.7044 20.4324 11.2572 19.873 10.952C19.5341 10.7534 19.253 10.4696 19.0576 10.1287C18.8623 9.78788 18.7595 9.40187 18.7595 9.00901C18.7595 8.61616 18.8623 8.23015 19.0576 7.8893C19.253 7.54845 19.5341 7.26463 19.873 7.06601L19.863 7.05701Z" fill="white"/>
<path d="M7 3.25C6.80109 3.25 6.61032 3.17098 6.46967 3.03033C6.32902 2.88968 6.25 2.69891 6.25 2.5V1C6.25 0.801088 6.32902 0.610322 6.46967 0.46967C6.61032 0.329018 6.80109 0.25 7 0.25C7.19891 0.25 7.38968 0.329018 7.53033 0.46967C7.67098 0.610322 7.75 0.801088 7.75 1V2.5C7.75 2.69891 7.67098 2.88968 7.53033 3.03033C7.38968 3.17098 7.19891 3.25 7 3.25ZM7 13.649C6.80109 13.649 6.61032 13.57 6.46967 13.4293C6.32902 13.2887 6.25 13.0979 6.25 12.899V10.3C6.25 10.1011 6.32902 9.91032 6.46967 9.76967C6.61032 9.62902 6.80109 9.55 7 9.55C7.19891 9.55 7.38968 9.62902 7.53033 9.76967C7.67098 9.91032 7.75 10.1011 7.75 10.3V12.9C7.74973 13.0987 7.6706 13.2892 7.52998 13.4297C7.38935 13.5701 7.19874 13.649 7 13.649ZM7 8.449C6.80109 8.449 6.61032 8.36998 6.46967 8.22933C6.32902 8.08868 6.25 7.89791 6.25 7.699V5.1C6.25 4.90109 6.32902 4.71032 6.46967 4.56967C6.61032 4.42902 6.80109 4.35 7 4.35C7.19891 4.35 7.38968 4.42902 7.53033 4.56967C7.67098 4.71032 7.75 4.90109 7.75 5.1V7.7C7.74973 7.89874 7.6706 8.08925 7.52998 8.22968C7.38935 8.37012 7.19874 8.449 7 8.449ZM7 17.75C6.80109 17.75 6.61032 17.671 6.46967 17.5303C6.32902 17.3897 6.25 17.1989 6.25 17V15.5C6.25 15.3011 6.32902 15.1103 6.46967 14.9697C6.61032 14.829 6.80109 14.75 7 14.75C7.19891 14.75 7.38968 14.829 7.53033 14.9697C7.67098 15.1103 7.75 15.3011 7.75 15.5V17C7.75 17.1989 7.67098 17.3897 7.53033 17.5303C7.38968 17.671 7.19891 17.75 7 17.75Z" fill="#EB2C27"/>
<path d="M18.255 17.75H3.745C2.81761 17.7487 1.92865 17.3793 1.27336 16.7231C0.618062 16.0669 0.249999 15.1774 0.25 14.25V3.745C0.251325 2.81761 0.620659 1.92865 1.27689 1.27336C1.93313 0.618062 2.82261 0.249999 3.75 0.25H18.26C19.1883 0.25 20.0785 0.618749 20.7349 1.27513C21.3913 1.9315 21.76 2.82174 21.76 3.75V3.96C21.7458 4.59702 21.5639 5.21904 21.2326 5.76331C20.9013 6.30758 20.4324 6.75485 19.873 7.06C19.5341 7.25861 19.253 7.54243 19.0576 7.88328C18.8623 8.22413 18.7595 8.61015 18.7595 9.003C18.7595 9.39585 18.8623 9.78187 19.0576 10.1227C19.253 10.4636 19.5341 10.7474 19.873 10.946C20.4324 11.2512 20.9013 11.6984 21.2326 12.2427C21.5639 12.787 21.7458 13.409 21.76 14.046V14.256C21.7584 15.1841 21.3883 16.0735 20.731 16.7288C20.0737 17.384 19.1831 17.7513 18.255 17.75ZM3.745 1.75C3.21543 1.75132 2.70801 1.96262 2.33402 2.33755C1.96003 2.71248 1.75 3.22043 1.75 3.75V14.26C1.75 14.7904 1.96071 15.2991 2.33579 15.6742C2.71086 16.0493 3.21957 16.26 3.75 16.26H18.26C18.7904 16.26 19.2991 16.0493 19.6742 15.6742C20.0493 15.2991 20.26 14.7904 20.26 14.26V14.05C20.2443 13.6749 20.1302 13.3105 19.9292 12.9933C19.7283 12.6762 19.4475 12.4174 19.115 12.243C18.5504 11.9118 18.0822 11.4387 17.7569 10.8707C17.4316 10.3027 17.2604 9.65956 17.2604 9.005C17.2604 8.35044 17.4316 7.70725 17.7569 7.13925C18.0822 6.57126 18.5504 6.09819 19.115 5.767C19.4463 5.59085 19.7256 5.33075 19.9248 5.01274C20.1239 4.69474 20.2361 4.32998 20.25 3.955V3.745C20.2487 3.21543 20.0374 2.70801 19.6624 2.33402C19.2875 1.96003 18.7796 1.75 18.25 1.75H3.745Z" fill="#EB2C27"/>
</svg>
