<svg width="22" height="23" viewBox="0 0 22 23" fill="none" xmlns="http://www.w3.org/2000/svg">
<path d="M15.5 13.75H6.5C6.20163 13.75 5.91548 13.8685 5.7045 14.0795C5.49353 14.2905 5.375 14.5766 5.375 14.875C5.375 15.1734 5.49353 15.4595 5.7045 15.6705C5.91548 15.8815 6.20163 16 6.5 16H15.5C15.7984 16 16.0845 15.8815 16.2955 15.6705C16.5065 15.4595 16.625 15.1734 16.625 14.875C16.625 14.5766 16.5065 14.2905 16.2955 14.0795C16.0845 13.8685 15.7984 13.75 15.5 13.75ZM15.5 9.25H8.75C8.45163 9.25 8.16548 9.36853 7.9545 9.5795C7.74353 9.79048 7.625 10.0766 7.625 10.375C7.625 10.6734 7.74353 10.9595 7.9545 11.1705C8.16548 11.3815 8.45163 11.5 8.75 11.5H15.5C15.7984 11.5 16.0845 11.3815 16.2955 11.1705C16.5065 10.9595 16.625 10.6734 16.625 10.375C16.625 10.0766 16.5065 9.79048 16.2955 9.5795C16.0845 9.36853 15.7984 9.25 15.5 9.25ZM20 2.5H16.625V1.375C16.625 1.07663 16.5065 0.790483 16.2955 0.579505C16.0845 0.368526 15.7984 0.25 15.5 0.25C15.2016 0.25 14.9155 0.368526 14.7045 0.579505C14.4935 0.790483 14.375 1.07663 14.375 1.375V2.5H12.125V1.375C12.125 1.07663 12.0065 0.790483 11.7955 0.579505C11.5845 0.368526 11.2984 0.25 11 0.25C10.7016 0.25 10.4155 0.368526 10.2045 0.579505C9.99353 0.790483 9.875 1.07663 9.875 1.375V2.5H7.625V1.375C7.625 1.07663 7.50647 0.790483 7.2955 0.579505C7.08452 0.368526 6.79837 0.25 6.5 0.25C6.20163 0.25 5.91548 0.368526 5.7045 0.579505C5.49353 0.790483 5.375 1.07663 5.375 1.375V2.5H2C1.70163 2.5 1.41548 2.61853 1.2045 2.8295C0.993526 3.04048 0.875 3.32663 0.875 3.625V19.375C0.875 20.2701 1.23058 21.1286 1.86351 21.7615C2.49645 22.3944 3.35489 22.75 4.25 22.75H17.75C18.6451 22.75 19.5036 22.3944 20.1365 21.7615C20.7694 21.1286 21.125 20.2701 21.125 19.375V3.625C21.125 3.32663 21.0065 3.04048 20.7955 2.8295C20.5845 2.61853 20.2984 2.5 20 2.5ZM18.875 19.375C18.875 19.6734 18.7565 19.9595 18.5455 20.1705C18.3345 20.3815 18.0484 20.5 17.75 20.5H4.25C3.95163 20.5 3.66548 20.3815 3.4545 20.1705C3.24353 19.9595 3.125 19.6734 3.125 19.375V4.75H5.375V5.875C5.375 6.17337 5.49353 6.45952 5.7045 6.6705C5.91548 6.88147 6.20163 7 6.5 7C6.79837 7 7.08452 6.88147 7.2955 6.6705C7.50647 6.45952 7.625 6.17337 7.625 5.875V4.75H9.875V5.875C9.875 6.17337 9.99353 6.45952 10.2045 6.6705C10.4155 6.88147 10.7016 7 11 7C11.2984 7 11.5845 6.88147 11.7955 6.6705C12.0065 6.45952 12.125 6.17337 12.125 5.875V4.75H14.375V5.875C14.375 6.17337 14.4935 6.45952 14.7045 6.6705C14.9155 6.88147 15.2016 7 15.5 7C15.7984 7 16.0845 6.88147 16.2955 6.6705C16.5065 6.45952 16.625 6.17337 16.625 5.875V4.75H18.875V19.375Z" fill="#0055BA"/>
</svg>
