<svg width="10" height="12" viewBox="0 0 10 12" fill="none" xmlns="http://www.w3.org/2000/svg">
<path fill-rule="evenodd" clip-rule="evenodd" d="M5.00002 0.166992C5.13263 0.166992 5.25981 0.219671 5.35357 0.313439C5.44734 0.407207 5.50002 0.534384 5.50002 0.666992V10.127L8.64669 6.98033C8.69246 6.9312 8.74766 6.8918 8.80899 6.86447C8.87033 6.83714 8.93654 6.82245 9.00367 6.82126C9.07081 6.82008 9.13749 6.83243 9.19975 6.85758C9.26201 6.88272 9.31857 6.92015 9.36605 6.96763C9.41352 7.01511 9.45095 7.07167 9.4761 7.13393C9.50125 7.19619 9.5136 7.26287 9.51241 7.33001C9.51123 7.39714 9.49654 7.46335 9.46921 7.52468C9.44188 7.58602 9.40248 7.64122 9.35335 7.68699L5.35335 11.687C5.2596 11.7806 5.13252 11.8332 5.00002 11.8332C4.86752 11.8332 4.74044 11.7806 4.64669 11.687L0.646687 7.68699C0.597563 7.64122 0.558161 7.58602 0.530833 7.52468C0.503506 7.46335 0.488811 7.39714 0.487627 7.33001C0.486442 7.26287 0.498792 7.19619 0.523939 7.13393C0.549086 7.07167 0.586516 7.01511 0.633995 6.96763C0.681474 6.92015 0.73803 6.88272 0.800289 6.85758C0.862548 6.83243 0.929234 6.82008 0.996369 6.82126C1.0635 6.82245 1.12971 6.83714 1.19105 6.86447C1.25238 6.8918 1.30758 6.9312 1.35335 6.98033L4.50002 10.127V0.666992C4.50002 0.534384 4.5527 0.407207 4.64647 0.313439C4.74024 0.219671 4.86741 0.166992 5.00002 0.166992Z" fill="#1F2937"/>
</svg>
