<svg width="28" height="28" viewBox="0 0 28 28" fill="none" xmlns="http://www.w3.org/2000/svg">
<path d="M15.0148 17.5818L12.0515 14.6535L12.0865 14.6185C14.063 12.4218 15.5397 9.82263 16.4148 7.00016H19.8332V4.66683H11.6665V2.3335H9.33317V4.66683H1.1665V7.00016H14.1982C13.4165 9.24016 12.1798 11.3752 10.4998 13.2418C9.41484 12.0402 8.5165 10.7218 7.80484 9.3335H5.4715C6.32317 11.2352 7.48984 13.0318 8.94817 14.6535L3.00984 20.5102L4.6665 22.1668L10.4998 16.3335L14.1282 19.9618L15.0148 17.5818ZM21.5832 11.6668H19.2498L13.9998 25.6668H16.3332L17.6398 22.1668H23.1815L24.4998 25.6668H26.8332L21.5832 11.6668ZM18.5265 19.8335L20.4165 14.7818L22.3065 19.8335H18.5265Z" fill="black"/>
</svg>
