<svg width="36" height="36" viewBox="0 0 36 36" fill="none" xmlns="http://www.w3.org/2000/svg">
<rect width="36" height="36" rx="18" fill="#E5E7EB"/>
<path d="M9 12.524C9 12.129 9.327 11.81 9.73 11.81H14.518C14.524 10.968 14.616 9.81501 15.45 9.01701C16.137 8.36178 17.0506 7.9974 18 8.00001C18.9494 7.9974 19.863 8.36178 20.55 9.01701C21.384 9.81501 21.476 10.968 21.482 11.81H26.27C26.673 11.81 27 12.13 27 12.524C26.999 12.6188 26.9792 12.7125 26.942 12.7997C26.9047 12.8869 26.8507 12.9659 26.7829 13.0322C26.7151 13.0985 26.6349 13.1508 26.5469 13.1861C26.4589 13.2214 26.3648 13.2391 26.27 13.238H9.73C9.63518 13.2391 9.54109 13.2214 9.45309 13.1861C9.36509 13.1508 9.2849 13.0985 9.21711 13.0322C9.14933 12.9659 9.09526 12.8869 9.05801 12.7997C9.02076 12.7125 9.00104 12.6188 9 12.524Z" fill="#555555"/>
<path fill-rule="evenodd" clip-rule="evenodd" d="M17.596 27.9999H18.404C21.187 27.9999 22.578 27.9999 23.484 27.1139C24.388 26.2279 24.48 24.7739 24.665 21.8679L24.932 17.6809C25.032 16.1039 25.082 15.3149 24.629 14.8149C24.175 14.3149 23.409 14.3149 21.876 14.3149H14.124C12.591 14.3149 11.824 14.3149 11.371 14.8149C10.917 15.3149 10.967 16.1039 11.068 17.6809L11.335 21.8689C11.52 24.7749 11.612 26.2289 12.517 27.1139C13.422 27.9999 14.813 27.9999 17.596 27.9999ZM16.246 18.1889C16.206 17.7549 15.838 17.4389 15.426 17.4819C15.013 17.5249 14.713 17.9119 14.754 18.3459L15.254 23.6089C15.294 24.0429 15.662 24.3589 16.074 24.3159C16.487 24.2719 16.787 23.8859 16.746 23.4519L16.246 18.1889ZM20.575 17.4819C20.987 17.5249 21.288 17.9119 21.246 18.3459L20.746 23.6089C20.706 24.0429 20.337 24.3589 19.926 24.3159C19.513 24.2719 19.213 23.8859 19.254 23.4519L19.754 18.1879C19.794 17.7549 20.163 17.4379 20.574 17.4809" fill="#555555"/>
</svg>
