<svg width="24" height="24" viewBox="0 0 24 24" fill="none" xmlns="http://www.w3.org/2000/svg">
<path fill-rule="evenodd" clip-rule="evenodd" d="M9.93942 3.25H14.0614C15.9044 3.25 17.3634 3.25 18.5054 3.403C19.6794 3.561 20.6304 3.893 21.3804 4.641C22.4104 5.668 22.6604 7.081 22.7394 8.958V8.982C22.7474 9.146 22.7544 9.313 22.7474 9.454C22.7443 9.6564 22.6932 9.85517 22.5984 10.034C22.5291 10.1537 22.4382 10.2594 22.3304 10.346C22.2495 10.4111 22.1647 10.4712 22.0764 10.526C21.9134 10.629 21.6914 10.753 21.4324 10.898L21.4124 10.908C21.2176 11.0161 21.0553 11.1744 20.9423 11.3664C20.8293 11.5585 20.7697 11.7772 20.7697 12C20.7697 12.2228 20.8293 12.4415 20.9423 12.6336C21.0553 12.8256 21.2176 12.9839 21.4124 13.092L21.4324 13.102C21.6924 13.247 21.9124 13.371 22.0764 13.474C22.1614 13.528 22.2504 13.588 22.3304 13.654C22.4044 13.715 22.5154 13.818 22.5984 13.966C22.7184 14.18 22.7414 14.396 22.7484 14.546C22.7544 14.686 22.7474 14.854 22.7404 15.018L22.7394 15.042C22.6594 16.918 22.4094 18.332 21.3804 19.359C20.6304 20.107 19.6804 20.439 18.5054 20.597C17.3634 20.75 15.9044 20.75 14.0614 20.75H9.94042C8.09742 20.75 6.63842 20.75 5.49642 20.597C4.32142 20.439 3.37142 20.107 2.62142 19.359C1.59142 18.332 1.34142 16.919 1.26242 15.042V15.018C1.25305 14.8609 1.25005 14.7034 1.25342 14.546C1.26042 14.396 1.28342 14.18 1.40342 13.966C1.47272 13.8463 1.56359 13.7406 1.67142 13.654C1.75234 13.5889 1.83716 13.5288 1.92542 13.474C2.08842 13.371 2.31042 13.247 2.56942 13.102L2.58942 13.092C2.78421 12.9839 2.94653 12.8256 3.05955 12.6336C3.17257 12.4415 3.23217 12.2228 3.23217 12C3.23217 11.7772 3.17257 11.5585 3.05955 11.3664C2.94653 11.1744 2.78421 11.0161 2.58942 10.908L2.56942 10.898C2.30942 10.753 2.08942 10.629 1.92542 10.526C1.83701 10.4715 1.75217 10.4113 1.67142 10.346C1.56359 10.2594 1.47272 10.1537 1.40342 10.034C1.30824 9.85525 1.25683 9.65648 1.25342 9.454C1.24971 9.2886 1.25305 9.12312 1.26342 8.958C1.34142 7.082 1.59142 5.668 2.62142 4.641C3.37142 3.893 4.32142 3.561 5.49642 3.403C6.63742 3.25 8.09542 3.25 9.93942 3.25ZM21.2504 14.726V14.746L21.2414 14.979C21.1634 16.835 20.9104 17.711 20.3214 18.297C19.8974 18.721 19.3154 18.975 18.3064 19.11C17.2764 19.248 15.9174 19.25 14.0064 19.25H9.99642C8.08542 19.25 6.72642 19.248 5.69642 19.11C4.68642 18.975 4.10542 18.721 3.68042 18.297C3.09242 17.711 2.83942 16.835 2.76042 14.979C2.75704 14.8947 2.75438 14.8104 2.75242 14.726C2.87642 14.649 3.05542 14.549 3.32042 14.401C3.74797 14.1626 4.10411 13.8144 4.35204 13.3923C4.59997 12.9702 4.73069 12.4895 4.73069 12C4.73069 11.5105 4.59997 11.0298 4.35204 10.6077C4.10411 10.1856 3.74797 9.83739 3.32042 9.599C3.12904 9.49427 2.93968 9.38591 2.75242 9.274V9.254L2.76142 9.021C2.83942 7.165 3.09242 6.289 3.68142 5.703C4.10542 5.279 4.68642 5.025 5.69642 4.89C6.72642 4.752 8.08542 4.75 9.99642 4.75H14.0064C15.9174 4.75 17.2764 4.752 18.3064 4.89C19.3164 5.025 19.8974 5.279 20.3224 5.703C20.9094 6.289 21.1634 7.165 21.2414 9.021L21.2504 9.254V9.274C21.1264 9.351 20.9474 9.451 20.6824 9.599C20.2546 9.83718 19.8982 10.1853 19.6501 10.6075C19.4019 11.0296 19.2711 11.5103 19.2711 12C19.2711 12.4897 19.4019 12.9704 19.6501 13.3925C19.8982 13.8147 20.2546 14.1628 20.6824 14.401C20.9464 14.549 21.1264 14.649 21.2504 14.726ZM15.5304 8.47C15.6709 8.61063 15.7498 8.80125 15.7498 9C15.7498 9.19875 15.6709 9.38937 15.5304 9.53L9.53042 15.53C9.38824 15.6625 9.20019 15.7346 9.00589 15.7312C8.81159 15.7277 8.62621 15.649 8.48879 15.5116C8.35138 15.3742 8.27267 15.1888 8.26924 14.9945C8.26581 14.8002 8.33794 14.6122 8.47042 14.47L14.4704 8.47C14.611 8.32955 14.8017 8.25066 15.0004 8.25066C15.1992 8.25066 15.3898 8.32955 15.5304 8.47Z" fill="#15803D"/>
<path d="M15.5 14.5C15.5 14.7652 15.3946 15.0196 15.2071 15.2071C15.0196 15.3946 14.7652 15.5 14.5 15.5C14.2348 15.5 13.9804 15.3946 13.7929 15.2071C13.6054 15.0196 13.5 14.7652 13.5 14.5C13.5 14.2348 13.6054 13.9804 13.7929 13.7929C13.9804 13.6054 14.2348 13.5 14.5 13.5C14.7652 13.5 15.0196 13.6054 15.2071 13.7929C15.3946 13.9804 15.5 14.2348 15.5 14.5ZM10.5 9.5C10.5 9.76522 10.3946 10.0196 10.2071 10.2071C10.0196 10.3946 9.76522 10.5 9.5 10.5C9.23478 10.5 8.98043 10.3946 8.79289 10.2071C8.60536 10.0196 8.5 9.76522 8.5 9.5C8.5 9.23478 8.60536 8.98043 8.79289 8.79289C8.98043 8.60536 9.23478 8.5 9.5 8.5C9.76522 8.5 10.0196 8.60536 10.2071 8.79289C10.3946 8.98043 10.5 9.23478 10.5 9.5Z" fill="#15803D"/>
</svg>
