<svg width="58" height="44" viewBox="0 0 58 44" fill="none" xmlns="http://www.w3.org/2000/svg">
<path d="M43.1282 5.8313C42.9464 5.05355 41.9712 4.79224 41.4249 5.37491L35.0776 12.145C34.9426 12.289 34.7679 12.3898 34.5757 12.4348L25.539 14.5467C24.7612 14.7284 24.4999 15.7037 25.0826 16.2499L31.8526 22.5972C31.9967 22.7323 32.0975 22.9069 32.1424 23.0992L34.2543 32.1359C34.4361 32.9136 35.4113 33.1749 35.9576 32.5923L42.3049 25.8222C42.4399 25.6782 42.6146 25.5774 42.8069 25.5324L51.8436 23.4205C52.6213 23.2388 52.8826 22.2635 52.2999 21.7172L45.5299 15.3699C45.3859 15.2349 45.285 15.0602 45.2401 14.868L43.1282 5.8313Z" fill="url(#paint0_linear_4717_6882)"/>
<path d="M11.6061 21.614C11.0598 21.0313 10.0846 21.2926 9.90285 22.0704L8.59924 27.6484C8.55431 27.8407 8.45348 28.0153 8.30944 28.1504L4.13051 32.0684C3.54783 32.6147 3.80914 33.5899 4.5869 33.7717L10.165 35.0753C10.3572 35.1202 10.5319 35.221 10.6669 35.3651L14.5849 39.544C15.1312 40.1267 16.1064 39.8654 16.2882 39.0876L17.5918 33.5095C17.6367 33.3173 17.7375 33.1426 17.8816 33.0076L22.0605 29.0896C22.6432 28.5433 22.3819 27.5681 21.6041 27.3863L16.0261 26.0827C15.8338 26.0378 15.6591 25.937 15.5241 25.7929L11.6061 21.614Z" fill="url(#paint1_linear_4717_6882)"/>
<defs>
<linearGradient id="paint0_linear_4717_6882" x1="42.703" y1="4.01174" x2="34.6796" y2="33.9554" gradientUnits="userSpaceOnUse">
<stop stop-color="#FACC15"/>
<stop offset="1" stop-color="#FFA800"/>
</linearGradient>
<linearGradient id="paint1_linear_4717_6882" x1="10.3281" y1="20.2508" x2="15.8629" y2="40.9072" gradientUnits="userSpaceOnUse">
<stop stop-color="#FACC15"/>
<stop offset="1" stop-color="#FFA800"/>
</linearGradient>
</defs>
</svg>
