<svg width="117" height="40" viewBox="0 0 117 40" fill="none" xmlns="http://www.w3.org/2000/svg">
<path d="M0 6L6 0V6H0Z" fill="#B8221E"/>
<g filter="url(#filter0_d_4267_3681)">
<path d="M0 6H105C111.627 6 117 11.3726 117 18V28C117 34.6274 111.627 40 105 40H12C5.37258 40 0 34.6274 0 28V6Z" fill="url(#paint0_linear_4267_3681)" shape-rendering="crispEdges"/>
<path d="M15.8128 27.224H19.4928V29H13.5728V17.832H15.8128V27.224ZM29.1565 24.376C29.1565 24.696 29.1352 24.984 29.0925 25.24H22.6125C22.6658 25.88 22.8898 26.3813 23.2845 26.744C23.6792 27.1067 24.1645 27.288 24.7405 27.288C25.5725 27.288 26.1645 26.9307 26.5165 26.216H28.9325C28.6765 27.0693 28.1858 27.7733 27.4605 28.328C26.7352 28.872 25.8445 29.144 24.7885 29.144C23.9352 29.144 23.1672 28.9573 22.4845 28.584C21.8125 28.2 21.2845 27.6613 20.9005 26.968C20.5272 26.2747 20.3405 25.4747 20.3405 24.568C20.3405 23.6507 20.5272 22.8453 20.9005 22.152C21.2738 21.4587 21.7965 20.9253 22.4685 20.552C23.1405 20.1787 23.9138 19.992 24.7885 19.992C25.6312 19.992 26.3832 20.1733 27.0445 20.536C27.7165 20.8987 28.2338 21.416 28.5965 22.088C28.9698 22.7493 29.1565 23.512 29.1565 24.376ZM26.8365 23.736C26.8258 23.16 26.6178 22.7013 26.2125 22.36C25.8072 22.008 25.3112 21.832 24.7245 21.832C24.1698 21.832 23.7005 22.0027 23.3165 22.344C22.9432 22.6747 22.7138 23.1387 22.6285 23.736H26.8365ZM30.2155 24.536C30.2155 23.64 30.3915 22.8453 30.7435 22.152C31.1062 21.4587 31.5915 20.9253 32.1995 20.552C32.8182 20.1787 33.5062 19.992 34.2635 19.992C34.9248 19.992 35.5008 20.1253 35.9915 20.392C36.4928 20.6587 36.8928 20.9947 37.1915 21.4V20.136H39.4475V29H37.1915V27.704C36.9035 28.12 36.5035 28.4667 35.9915 28.744C35.4902 29.0107 34.9088 29.144 34.2475 29.144C33.5008 29.144 32.8182 28.952 32.1995 28.568C31.5915 28.184 31.1062 27.6453 30.7435 26.952C30.3915 26.248 30.2155 25.4427 30.2155 24.536ZM37.1915 24.568C37.1915 24.024 37.0848 23.56 36.8715 23.176C36.6582 22.7813 36.3702 22.4827 36.0075 22.28C35.6448 22.0667 35.2555 21.96 34.8395 21.96C34.4235 21.96 34.0395 22.0613 33.6875 22.264C33.3355 22.4667 33.0475 22.7653 32.8235 23.16C32.6102 23.544 32.5035 24.0027 32.5035 24.536C32.5035 25.0693 32.6102 25.5387 32.8235 25.944C33.0475 26.3387 33.3355 26.6427 33.6875 26.856C34.0502 27.0693 34.4342 27.176 34.8395 27.176C35.2555 27.176 35.6448 27.0747 36.0075 26.872C36.3702 26.6587 36.6582 26.36 36.8715 25.976C37.0848 25.5813 37.1915 25.112 37.1915 24.568ZM45.3313 26.936L47.5713 20.136H49.9553L46.6753 29H43.9553L40.6913 20.136H43.0913L45.3313 26.936ZM59.4534 24.376C59.4534 24.696 59.432 24.984 59.3894 25.24H52.9094C52.9627 25.88 53.1867 26.3813 53.5814 26.744C53.976 27.1067 54.4614 27.288 55.0374 27.288C55.8694 27.288 56.4614 26.9307 56.8134 26.216H59.2294C58.9734 27.0693 58.4827 27.7733 57.7574 28.328C57.032 28.872 56.1414 29.144 55.0854 29.144C54.232 29.144 53.464 28.9573 52.7814 28.584C52.1094 28.2 51.5814 27.6613 51.1974 26.968C50.824 26.2747 50.6374 25.4747 50.6374 24.568C50.6374 23.6507 50.824 22.8453 51.1974 22.152C51.5707 21.4587 52.0934 20.9253 52.7654 20.552C53.4374 20.1787 54.2107 19.992 55.0854 19.992C55.928 19.992 56.68 20.1733 57.3414 20.536C58.0134 20.8987 58.5307 21.416 58.8934 22.088C59.2667 22.7493 59.4534 23.512 59.4534 24.376ZM57.1334 23.736C57.1227 23.16 56.9147 22.7013 56.5094 22.36C56.104 22.008 55.608 21.832 55.0214 21.832C54.4667 21.832 53.9974 22.0027 53.6134 22.344C53.24 22.6747 53.0107 23.1387 52.9254 23.736H57.1334ZM68.7569 29.112C67.9782 29.112 67.2742 28.9787 66.6449 28.712C66.0262 28.4453 65.5355 28.0613 65.1729 27.56C64.8102 27.0587 64.6235 26.4667 64.6129 25.784H67.0129C67.0449 26.2427 67.2049 26.6053 67.4929 26.872C67.7915 27.1387 68.1969 27.272 68.7089 27.272C69.2315 27.272 69.6422 27.1493 69.9409 26.904C70.2395 26.648 70.3889 26.3173 70.3889 25.912C70.3889 25.5813 70.2875 25.3093 70.0849 25.096C69.8822 24.8827 69.6262 24.7173 69.3169 24.6C69.0182 24.472 68.6022 24.3333 68.0689 24.184C67.3435 23.9707 66.7515 23.7627 66.2929 23.56C65.8449 23.3467 65.4555 23.032 65.1249 22.616C64.8049 22.1893 64.6449 21.624 64.6449 20.92C64.6449 20.2587 64.8102 19.6827 65.1409 19.192C65.4715 18.7013 65.9355 18.328 66.5329 18.072C67.1302 17.8053 67.8129 17.672 68.5809 17.672C69.7329 17.672 70.6662 17.9547 71.3809 18.52C72.1062 19.0747 72.5062 19.8533 72.5809 20.856H70.1169C70.0955 20.472 69.9302 20.1573 69.6209 19.912C69.3222 19.656 68.9222 19.528 68.4209 19.528C67.9835 19.528 67.6315 19.64 67.3649 19.864C67.1089 20.088 66.9809 20.4133 66.9809 20.84C66.9809 21.1387 67.0769 21.3893 67.2689 21.592C67.4715 21.784 67.7169 21.944 68.0049 22.072C68.3035 22.1893 68.7195 22.328 69.2529 22.488C69.9782 22.7013 70.5702 22.9147 71.0289 23.128C71.4875 23.3413 71.8822 23.6613 72.2129 24.088C72.5435 24.5147 72.7089 25.0747 72.7089 25.768C72.7089 26.3653 72.5542 26.92 72.2449 27.432C71.9355 27.944 71.4822 28.3547 70.8849 28.664C70.2875 28.9627 69.5782 29.112 68.7569 29.112ZM78.5869 29.144C77.7335 29.144 76.9655 28.9573 76.2829 28.584C75.6002 28.2 75.0615 27.6613 74.6669 26.968C74.2829 26.2747 74.0909 25.4747 74.0909 24.568C74.0909 23.6613 74.2882 22.8613 74.6829 22.168C75.0882 21.4747 75.6375 20.9413 76.3309 20.568C77.0242 20.184 77.7975 19.992 78.6509 19.992C79.5042 19.992 80.2775 20.184 80.9709 20.568C81.6642 20.9413 82.2082 21.4747 82.6029 22.168C83.0082 22.8613 83.2109 23.6613 83.2109 24.568C83.2109 25.4747 83.0029 26.2747 82.5869 26.968C82.1815 27.6613 81.6269 28.2 80.9229 28.584C80.2295 28.9573 79.4509 29.144 78.5869 29.144ZM78.5869 27.192C78.9922 27.192 79.3709 27.096 79.7229 26.904C80.0855 26.7013 80.3735 26.4027 80.5869 26.008C80.8002 25.6133 80.9069 25.1333 80.9069 24.568C80.9069 23.7253 80.6829 23.08 80.2349 22.632C79.7975 22.1733 79.2589 21.944 78.6189 21.944C77.9789 21.944 77.4402 22.1733 77.0029 22.632C76.5762 23.08 76.3629 23.7253 76.3629 24.568C76.3629 25.4107 76.5709 26.0613 76.9869 26.52C77.4135 26.968 77.9469 27.192 78.5869 27.192ZM88.79 29.144C87.9367 29.144 87.1687 28.9573 86.486 28.584C85.8033 28.2 85.2647 27.6613 84.87 26.968C84.486 26.2747 84.294 25.4747 84.294 24.568C84.294 23.6613 84.4913 22.8613 84.886 22.168C85.2913 21.4747 85.8407 20.9413 86.534 20.568C87.2273 20.184 88.0007 19.992 88.854 19.992C89.7073 19.992 90.4807 20.184 91.174 20.568C91.8673 20.9413 92.4113 21.4747 92.806 22.168C93.2113 22.8613 93.414 23.6613 93.414 24.568C93.414 25.4747 93.206 26.2747 92.79 26.968C92.3847 27.6613 91.83 28.2 91.126 28.584C90.4327 28.9573 89.654 29.144 88.79 29.144ZM88.79 27.192C89.1953 27.192 89.574 27.096 89.926 26.904C90.2887 26.7013 90.5767 26.4027 90.79 26.008C91.0033 25.6133 91.11 25.1333 91.11 24.568C91.11 23.7253 90.886 23.08 90.438 22.632C90.0007 22.1733 89.462 21.944 88.822 21.944C88.182 21.944 87.6433 22.1733 87.206 22.632C86.7793 23.08 86.566 23.7253 86.566 24.568C86.566 25.4107 86.774 26.0613 87.19 26.52C87.6167 26.968 88.15 27.192 88.79 27.192ZM99.9691 20.008C101.025 20.008 101.878 20.344 102.529 21.016C103.18 21.6773 103.505 22.6053 103.505 23.8V29H101.265V24.104C101.265 23.4 101.089 22.8613 100.737 22.488C100.385 22.104 99.9051 21.912 99.2971 21.912C98.6785 21.912 98.1878 22.104 97.8251 22.488C97.4731 22.8613 97.2971 23.4 97.2971 24.104V29H95.0571V20.136H97.2971V21.24C97.5958 20.856 97.9745 20.5573 98.4331 20.344C98.9025 20.12 99.4145 20.008 99.9691 20.008Z" fill="white"/>
</g>
<defs>
<filter id="filter0_d_4267_3681" x="-10" y="0" width="137" height="54" filterUnits="userSpaceOnUse" color-interpolation-filters="sRGB">
<feFlood flood-opacity="0" result="BackgroundImageFix"/>
<feColorMatrix in="SourceAlpha" type="matrix" values="0 0 0 0 0 0 0 0 0 0 0 0 0 0 0 0 0 0 127 0" result="hardAlpha"/>
<feOffset dy="4"/>
<feGaussianBlur stdDeviation="5"/>
<feComposite in2="hardAlpha" operator="out"/>
<feColorMatrix type="matrix" values="0 0 0 0 0.316565 0 0 0 0 0.316565 0 0 0 0 0.316565 0 0 0 0.05 0"/>
<feBlend mode="normal" in2="BackgroundImageFix" result="effect1_dropShadow_4267_3681"/>
<feBlend mode="normal" in="SourceGraphic" in2="effect1_dropShadow_4267_3681" result="shape"/>
</filter>
<linearGradient id="paint0_linear_4267_3681" x1="58.5" y1="6" x2="58.5" y2="40" gradientUnits="userSpaceOnUse">
<stop stop-color="#EB2C27"/>
<stop offset="1" stop-color="#D60B00"/>
</linearGradient>
</defs>
</svg>
