<svg width="48" height="48" viewBox="0 0 48 48" fill="none" xmlns="http://www.w3.org/2000/svg">
<path d="M22.0026 5.49991C22.4004 5.49964 22.7818 5.34135 23.0629 5.05986C23.344 4.77837 23.5018 4.39673 23.5016 3.99891C23.5013 3.60108 23.343 3.21966 23.0615 2.93854C22.78 2.65742 22.3984 2.49964 22.0006 2.49991C17.9686 2.50791 14.7566 2.55791 12.2046 2.96991C9.60456 3.38991 7.52856 4.20991 5.87056 5.86791C4.08056 7.65591 3.27056 9.93591 2.88256 12.8279C2.50256 15.6479 2.50256 19.2679 2.50256 23.8839V24.1139C2.50256 28.7299 2.50256 32.3479 2.88256 35.1719C3.27056 38.0619 4.08256 40.3419 5.87056 42.1319C7.66056 43.9199 9.94056 44.7319 12.8306 45.1199C15.6526 45.4999 19.2706 45.4999 23.8886 45.4999H24.1166C28.7346 45.4999 32.3526 45.4999 35.1766 45.1199C38.0646 44.7299 40.3446 43.9199 42.1346 42.1299C43.7906 40.4739 44.6106 38.3959 45.0306 35.7979C45.4446 33.2439 45.4946 30.0319 45.5006 26.0019C45.501 25.8049 45.4626 25.6098 45.3875 25.4277C45.3125 25.2455 45.2024 25.0799 45.0633 24.9404C44.7826 24.6585 44.4014 24.4997 44.0036 24.4989C43.6057 24.4981 43.2239 24.6554 42.942 24.9361C42.6602 25.2169 42.5014 25.5981 42.5006 25.9959C42.4946 30.0759 42.4386 33.0419 42.0686 35.3179C41.7086 37.5499 41.0686 38.9519 40.0126 40.0099C38.8726 41.1499 37.3326 41.8019 34.7746 42.1459C32.1746 42.4959 28.7586 42.4979 24.0026 42.4979C19.2466 42.4979 15.8306 42.4959 13.2306 42.1459C10.6726 41.8019 9.13056 41.1479 7.99056 40.0099C6.85256 38.8699 6.19856 37.3299 5.85456 34.7699C5.50656 32.1699 5.50256 28.7559 5.50256 23.9979C5.50256 19.2419 5.50656 15.8259 5.85456 13.2259C6.19856 10.6699 6.85456 9.12591 7.99256 7.98791C9.04856 6.93191 10.4526 6.29391 12.6826 5.93191C14.9586 5.56391 17.9226 5.50791 22.0026 5.49991Z" fill="#177EB1"/>
<path d="M31.8126 3.99991C31.8126 4.82791 32.4846 5.49991 33.3126 5.49991H40.3786L25.5006 20.3799V15.9999C25.5006 15.6021 25.3426 15.2206 25.0613 14.9392C24.78 14.6579 24.3984 14.4999 24.0006 14.4999C23.6028 14.4999 23.2213 14.6579 22.94 14.9392C22.6586 15.2206 22.5006 15.6021 22.5006 15.9999V23.9999C22.5006 24.8279 23.1726 25.4999 24.0006 25.4999H32.0006C32.3984 25.4999 32.78 25.3419 33.0613 25.0606C33.3426 24.7793 33.5006 24.3977 33.5006 23.9999C33.5006 23.6021 33.3426 23.2206 33.0613 22.9392C32.78 22.6579 32.3984 22.4999 32.0006 22.4999H27.6206L42.5006 7.61991V14.6879C42.5006 15.0857 42.6586 15.4673 42.9399 15.7486C43.2213 16.0299 43.6028 16.1879 44.0006 16.1879C44.3984 16.1879 44.78 16.0299 45.0613 15.7486C45.3426 15.4673 45.5006 15.0857 45.5006 14.6879V3.99991C45.5006 3.60208 45.3426 3.22055 45.0613 2.93925C44.78 2.65794 44.3984 2.49991 44.0006 2.49991H33.3126C32.9148 2.49991 32.5333 2.65794 32.2519 2.93925C31.9706 3.22055 31.8126 3.60208 31.8126 3.99991Z" fill="#177EB1"/>
</svg>
