<svg width="1424" height="453" viewBox="0 0 1424 453" fill="none" xmlns="http://www.w3.org/2000/svg">
<path fill-rule="evenodd" clip-rule="evenodd" d="M584.729 208.419C581.421 210.462 580.66 209.979 575.362 209.949L546.673 209.675C544.26 203.52 544.536 188.985 546.322 182.458L582.044 182.361C592.147 182.889 589.823 184.093 590.822 184.725C600.534 190.699 599.133 207.347 584.729 208.42V208.419ZM546.734 121.384C555.966 120.959 566.113 121.139 575.406 121.25C584.163 121.353 594.064 121.796 593.067 131.411C592.123 140.519 582.025 140.29 574.045 140.331C565.159 140.375 555.584 140.639 546.434 140.194L546.734 121.384ZM628.336 158.168C632.479 151.355 636.081 148.904 638.592 138.883C644.532 115.186 634.193 91.174 609.826 82.5196C588.995 75.1209 526.38 77.565 498.839 78.0681L498.831 252.26C530.056 253.031 596.442 256.666 619.413 243.549C633.336 235.599 642.038 224.339 644.765 204.546C649.206 172.307 631.528 163.67 628.335 158.167L628.336 158.168Z" fill="#FEFEFE"/>
<path fill-rule="evenodd" clip-rule="evenodd" d="M885.052 121.499C899.116 121.579 926.993 116.899 926.813 134.182C926.642 150.563 899.186 147.466 884.101 146.521L885.053 121.5L885.052 121.499ZM953.12 179.499C966.468 169.764 975.974 159.126 976.995 136.884C980.387 62.9385 887.371 78.0431 834.702 78.0431L834.903 252.262L884.153 252.479L884.259 190.517L904.633 190.668C913.601 210.813 920.196 232.498 929.036 252.326L980.446 252.333C979.589 245.441 969.489 223.566 966.763 216.309C964.26 209.643 953.187 185.919 953.119 179.498L953.12 179.499Z" fill="#FEFEFE"/>
<path fill-rule="evenodd" clip-rule="evenodd" d="M1329.25 177.414C1329.14 172.809 1331.62 167.714 1333.19 162.899C1333.92 160.662 1334.52 158.231 1335.39 155.794C1337.63 149.476 1338.19 150.494 1339.81 149.53L1347.98 177.575L1329.25 177.414ZM1253.13 252.244L1303.07 252.449L1313.74 221.048C1324.37 219.48 1349.33 220.192 1361.92 220.663C1366.97 227.978 1369.21 244.539 1374.02 252.349L1423.79 252.387C1423.92 245.796 1386.67 143.288 1379.2 122.251C1375.31 111.322 1368.76 88.6618 1363.24 78.4647L1329.91 78.0259C1311.03 78.0423 1316.66 69.4455 1301.75 112.938C1296.7 127.668 1290.33 144.716 1285.47 159.077C1280.81 172.896 1253.79 245.543 1253.13 252.243V252.244Z" fill="#FEFEFE"/>
<path fill-rule="evenodd" clip-rule="evenodd" d="M1074.57 177.47C1074.51 172.938 1081.95 151.367 1083.89 148.192C1086.23 152.483 1093.11 172.374 1093.39 177.548L1074.57 177.47ZM998.52 252.21L1048.62 252.471L1059.11 221.07C1066.57 219.677 1100.61 219.748 1108.35 220.941L1118.73 251.97L1169.6 252.413C1169.31 248.373 1112.21 84.2696 1108.61 78.3934L1059.46 78.0757C1049.18 107.493 1039.33 135.89 1028.88 165.056C1023.62 179.72 1018.24 194.094 1013.5 208.475C1010 219.083 999.736 243.051 998.52 252.209V252.21Z" fill="#FEFEFE"/>
<path fill-rule="evenodd" clip-rule="evenodd" d="M731.322 149.519C734.05 152.885 735.742 159.935 737.096 164.068C738.125 167.21 741.109 174.214 740.941 177.474L721.698 177.194L731.323 149.52L731.322 149.519ZM646.277 252.317L696.197 252.316C711.589 212.532 692.579 220.398 755.32 220.49L766.38 252.225L817.443 252.344L756.589 78.3839L707.002 78.021C699.576 101.531 646.539 244.543 646.276 252.317H646.277Z" fill="#FEFEFE"/>
<path fill-rule="evenodd" clip-rule="evenodd" d="M1185.74 185.707C1186.85 187.048 1186.91 184.034 1187.85 190.164L1187.82 251.431L1235.22 251.922L1235.28 188.786C1236.67 182.287 1234.76 187.218 1237.45 185.232C1238.99 177.9 1285.61 94.8192 1293.39 78.169L1238.55 78.0739C1230.68 86.3232 1218.57 128.341 1211.26 134.782C1206.66 128.549 1201.06 114.109 1197.45 106.689C1192.77 97.0819 1188.36 86.8224 1183.49 78.2083L1126.58 78.071C1129.2 88.2288 1179 169.684 1185.74 185.706L1185.74 185.707Z" fill="#FEFEFE"/>
<path fill-rule="evenodd" clip-rule="evenodd" d="M204.722 194.628L141.62 195.318C143.413 200.819 159.721 211.139 165.078 215.122C170.642 219.258 186.947 230.329 190.353 234.158C192.417 248.41 175.055 280.585 174.137 297.004C180.302 295.163 194.91 283.579 200.844 279.533C235.837 255.677 218.885 256.145 253.831 279.697C262.059 285.242 272.456 293.461 280.262 297.77C280.339 287.314 263.367 246.568 262.531 235.49C267.274 230.427 281.497 221.005 288.065 216.133C292.609 212.762 312.198 199.043 313.34 195.495L248.632 194.278L229.73 138.494C229.539 138.125 228.86 137.021 228.664 136.711L227.387 135.003C220.172 140.123 212.075 185.35 204.723 194.627L204.722 194.628Z" fill="#FEFEFE"/>
<path fill-rule="evenodd" clip-rule="evenodd" d="M334.032 185.995C326.638 185.393 331.353 185.248 330.107 187.497C334.225 192.557 339.466 200.741 343.294 206.185L356.763 226.159C352.083 236.525 333.867 256.553 329.811 266.606L335.365 265.928L376.7 253.357C381.156 258.01 385.699 265.02 391.013 271.826C393.585 275.121 395.679 277.963 398.406 281.806C402.348 287.364 402.174 288.349 407.148 290.652L408.224 243.019C416.569 237.706 446.594 232.191 452.196 226.159C447.37 220.643 416.134 213.347 407.955 209.442L407.91 160.598C402.839 162.487 396.781 172.653 391.544 179.667C386.765 186.067 381.333 194.472 376.557 199.424L334.03 185.995H334.032Z" fill="#FEFEFE"/>
<path fill-rule="evenodd" clip-rule="evenodd" d="M160.3 47.0295C165.542 49.225 175.85 57.7392 180.437 61.1251C185.028 64.5149 194.38 72.3398 199.872 75.0778C199.482 87.4992 189.354 108.558 186.697 122.899C195.752 119.905 223.725 96.1709 227.385 96.3514L261.59 120.318C270.946 126.17 266.419 121.157 267.522 119.513C265.836 116.981 254.412 80.3789 254.635 75.5117C260.247 71.6736 291.087 49.5725 292.331 45.5645L243.481 44.9434L228.324 0C219.553 6.48192 217.097 35.2589 210.054 44.6198C200.909 45.6816 165.049 43.6714 160.299 47.0295H160.3Z" fill="#FEFEFE"/>
<path fill-rule="evenodd" clip-rule="evenodd" d="M187.13 334.139L200.061 375.473C194.219 382.839 163.375 401.743 161.403 406.566L210.055 407.697C214.389 413.459 222.166 442.403 226.053 452.478C229.884 451.399 226.996 454.799 229.806 448.592L235.731 430.46C238.139 423.431 240.42 412.992 244.077 407.524L293.075 406.46C291.542 402.184 259.668 382.98 254.213 375.474C254.18 375.348 265.204 335.659 266.636 336.805L267.853 329.472C260.093 331.411 252.261 338.999 246.767 342.892C241.04 346.95 232.144 353.914 227.386 356.01C220.413 353.203 197.002 334.77 188.724 329.705C186.308 331.489 186.274 325.831 187.129 334.14L187.13 334.139Z" fill="#FEFEFE"/>
<path fill-rule="evenodd" clip-rule="evenodd" d="M122.073 273.942C122.154 278.513 105.936 306.381 103.115 312.5C90.1229 313.994 67.5955 306.832 53.1581 306.672L86.5555 342.144C85.128 354.455 69.4503 373.749 66.9005 386.813C79.6512 383.526 99.3898 368.8 111.401 366.442C115.339 370.596 123.54 378.678 128.04 382.834C135.595 389.81 140.029 396.233 146.867 398.857L140.821 351.477C144.254 348.353 177.031 330.519 182.563 329.639C180.645 324.096 184.498 327.687 177.05 325.541C172.129 324.123 143.076 321.014 135.015 318.239L126.624 270.822C126.228 271.111 125.669 271.404 125.374 271.598C125.089 271.787 124.467 272.19 124.184 272.379C123.919 272.556 122.391 273.632 122.074 273.942H122.073Z" fill="#FEFEFE"/>
<path fill-rule="evenodd" clip-rule="evenodd" d="M272.557 122.178C273.287 125.851 270.478 125.828 282.151 127.442C290.574 128.606 314.121 132.095 319.375 134.681C321.157 140.315 322.443 152.006 323.371 158.148C324.041 162.575 324.91 166.455 325.511 170.462C327.717 185.183 326.292 180.167 330.747 181.12C331.417 173.357 347.145 148.382 351.149 139.505L399.773 145.803C397.987 141.492 399.668 143.973 396.126 140.023C394.65 138.377 393.623 137.534 392.148 136.06C388.413 132.327 367.254 111.182 367.189 108.841C370.825 99.3293 386.687 72.1201 387.344 65.0861C373.765 69.3841 357.264 82.3258 343.372 85.5726C334.201 79.489 314.743 56.0909 307.235 52.6023L314.08 101.529C308.557 104.355 276.242 121.836 272.557 122.178Z" fill="#FEFEFE"/>
<path fill-rule="evenodd" clip-rule="evenodd" d="M273.18 330.456C277.169 330.544 308.115 347.389 313.317 350.838C314.487 359.174 308.429 388.5 307.281 399.691C313.83 396.799 335.254 372.662 343.372 366.507C356.132 370.555 376.341 384.634 387.586 386.752C384.482 374.405 368.638 352.762 367.369 342.144C371.912 336.448 378.661 330.326 383.737 325.158C387.058 321.778 388.861 319.191 392.149 316.24C395.825 312.943 397.57 311.632 399.641 306.532L351.18 312.822C347.688 305.342 330.426 275.148 330.401 270.61C327.102 270.956 327.803 267.154 325.727 280.522C325.121 284.426 324.228 289.007 323.599 293.027C322.658 299.037 321.411 313.387 318.799 317.532C314.435 320.872 279.948 325.411 272.207 326.306L273.181 330.454L273.18 330.456Z" fill="#FEFEFE"/>
<path fill-rule="evenodd" clip-rule="evenodd" d="M141.277 55.198C139.439 60.6201 130.482 66.9532 126.726 70.8479C121.898 75.8543 117.123 80.6965 111.4 85.678C102.68 84.4127 77.2474 67.7826 66.8487 65.5209C69.7767 78.5241 85.4103 99.0969 86.9223 110.173C80.3156 116.846 57.2314 139.142 54.6068 145.522C67.8548 144.599 91.7213 138.592 103.036 139.883L104.005 143.845C108.33 147.388 112.034 157.134 114.955 162.584C117.988 168.242 121.405 178.038 126.56 181.366L134.951 133.95L182.615 125.582C179.748 121.143 147.522 104.919 140.986 101.891C139.703 90.4617 145.811 66.4636 146.685 53.3442C146.412 53.4498 142.428 54.7573 141.276 55.197L141.277 55.198Z" fill="#FEFEFE"/>
<path fill-rule="evenodd" clip-rule="evenodd" d="M119.779 266.213C127.507 267.291 122.036 267.001 123.804 264.821C120.644 259.29 114.809 251.671 110.623 245.625C93.7709 221.288 93.672 230.859 110.539 206.621C114.901 200.351 121.947 192.147 124.153 185.473C110.391 188.467 88.6627 198.24 76.248 198.728C74.1763 194.427 51.2928 161.546 45.8103 160.108C48.6039 168.254 46.6349 199.39 45.8794 209.774L0 226.159C10.0416 232.802 37.4611 236.497 46.2442 243.487L46.9603 292.05C50.3309 290.31 73.729 258.26 76.7386 253.486C81.336 253.382 115.773 263.751 119.779 266.213Z" fill="#FEFEFE"/>
<path fill-rule="evenodd" clip-rule="evenodd" d="M603.485 301.119C636.288 296.773 628.751 314.896 620.443 316.329C616.933 316.934 605.125 316.585 600.906 316.163L603.484 301.119L603.485 301.119ZM634.507 335.682C642.377 330.347 645.784 330.161 650.654 318.917C654.588 309.835 653.516 299.43 649.18 292.331C638.73 275.226 620.892 278.285 599.338 278.462C580.063 278.619 582.289 274.315 579.441 291.543C576.784 307.61 566.426 365.576 566.632 373.85L591.153 373.561L597.291 338.845C612.623 337.149 609.108 338.648 612.523 351.414C614.595 359.158 615.965 366.439 618.588 373.861L644.698 373.326L634.506 335.682H634.507Z" fill="#FEFEFE"/>
<path fill-rule="evenodd" clip-rule="evenodd" d="M775.115 373.761C778.58 369.376 817.693 284.061 817.602 278.598L794.644 278.844C789.069 289.482 775.798 325.49 769.963 331.392L761.465 280.818C759.409 279.321 761.056 280.076 757.933 279.195L748.684 278.703C744.428 278.77 740.234 278.763 735.471 278.828L751.871 373.761H775.114H775.115Z" fill="#FEFEFE"/>
<path fill-rule="evenodd" clip-rule="evenodd" d="M698 331.303L698.156 331.951C698.728 326.176 701.574 320.393 704.659 317.027C707.155 320.676 707.383 325.747 707.18 331.48L698.001 331.303H698ZM679.655 319.004C676.418 325.395 654.864 368.367 654.391 373.922L678.466 373.824L688.663 353.024L711.969 353.605L715.825 373.843L741.706 373.883C742.193 368.201 733.042 319.649 731.769 317.488C731.235 308.818 728.393 285.134 724.362 279.68C719.511 276.74 706.156 278.363 699.325 278.87C695.717 283.557 683.246 310.693 679.654 319.003L679.655 319.004Z" fill="#FEFEFE"/>
<path fill-rule="evenodd" clip-rule="evenodd" d="M568.389 300.802C569.288 293.804 571.782 284.539 570.947 278.585L503.351 278.852C501.416 283.137 499.246 295.965 499.909 301.484L520.533 301.922L509.333 373.839L533.541 373.531C538.522 362.049 542.184 307.595 546.881 303.089C550.188 299.473 562.492 301.938 568.389 300.802Z" fill="#FEFEFE"/>
<path fill-rule="evenodd" clip-rule="evenodd" d="M928 278.595L902.869 278.998C900.285 288.005 886.948 368.137 887.549 373.929L947.805 373.326C949.672 365.304 951.121 358.369 951.383 351.036L916.832 350.47L927.999 278.595H928Z" fill="#FEFEFE"/>
<path fill-rule="evenodd" clip-rule="evenodd" d="M849.383 301.507L888.718 301.705L891.814 278.606L829.548 278.719C825.711 287.463 819.491 332.506 817.813 344.804C816.363 351.857 812.775 366.061 814.063 373.84L863.312 373.826C877.482 373.92 880.421 378.827 881.318 350.988C871.018 350.942 851.263 349.045 842.671 351.737C842.115 346.098 843.198 341.138 844.602 336.655L876.398 336.193L879.184 314.133L848.466 313.876L849.382 301.508L849.383 301.507Z" fill="#FEFEFE"/>
</svg>
